<svg width="20" height="22" viewBox="0 0 20 22" fill="none" xmlns="http://www.w3.org/2000/svg">
<path d="M19.7718 17.8673C19.1246 17.2778 18.558 16.602 18.0872 15.858C17.5728 14.8314 17.2647 13.7098 17.1812 12.5596V9.17195C17.1857 7.36541 16.5443 5.61939 15.3777 4.26194C14.211 2.90449 12.5994 2.02905 10.8456 1.8001V0.915481C10.8456 0.67268 10.7512 0.439824 10.5832 0.268138C10.4152 0.0964523 10.1873 0 9.94967 0C9.71204 0 9.48414 0.0964523 9.31612 0.268138C9.14809 0.439824 9.05369 0.67268 9.05369 0.915481V1.81382C7.31561 2.05927 5.72347 2.94 4.57217 4.29289C3.42086 5.64578 2.78841 7.37915 2.79195 9.17195V12.5596C2.70843 13.7098 2.40036 14.8314 1.88591 15.858C1.42341 16.6003 0.865903 17.276 0.228188 17.8673C0.156598 17.9316 0.0992224 18.0107 0.0598775 18.0994C0.0205325 18.188 0.000120669 18.2843 0 18.3816V19.3142C0 19.4961 0.0707093 19.6705 0.196573 19.7991C0.322436 19.9278 0.493143 20 0.671141 20H19.3289C19.5069 20 19.6776 19.9278 19.8034 19.7991C19.9293 19.6705 20 19.4961 20 19.3142V18.3816C19.9999 18.2843 19.9795 18.188 19.9401 18.0994C19.9008 18.0107 19.8434 17.9316 19.7718 17.8673ZM1.39597 18.6285C2.02027 18.012 2.57004 17.3213 3.03356 16.5712C3.68174 15.3314 4.05952 13.9628 4.14094 12.5596V9.17195C4.11432 8.36827 4.24626 7.56734 4.52889 6.81685C4.81152 6.06635 5.23907 5.38165 5.78607 4.8035C6.33308 4.22535 6.98835 3.76559 7.71287 3.45158C8.4374 3.13758 9.21635 2.97576 10.0034 2.97576C10.7904 2.97576 11.5693 3.13758 12.2938 3.45158C13.0184 3.76559 13.6736 4.22535 14.2206 4.8035C14.7676 5.38165 15.1952 6.06635 15.4778 6.81685C15.7605 7.56734 15.8924 8.36827 15.8658 9.17195V12.5596C15.9472 13.9628 16.325 15.3314 16.9732 16.5712C17.4367 17.3213 17.9864 18.012 18.6107 18.6285H1.39597Z" fill="#212121"/>
<path d="M10.038 21.9998C10.5171 21.987 10.9768 21.7793 11.3358 21.4134C11.6949 21.0474 11.9301 20.5467 12 20H8C8.07184 20.5616 8.31812 21.074 8.69301 21.4419C9.06789 21.8097 9.54587 22.008 10.038 21.9998Z" fill="#212121"/>
</svg>
