<svg width="20" height="20" viewBox="0 0 20 20" fill="none" xmlns="http://www.w3.org/2000/svg">
<path d="M8.19654 1.69498C8.29031 1.72688 8.38191 1.76482 8.47075 1.80857L9.53975 2.33486C9.82983 2.47769 10.1698 2.47769 10.4599 2.33486L11.5289 1.80857C12.6643 1.24952 14.0381 1.71682 14.5971 2.8523L14.6583 2.98757L14.7107 3.12652L15.0944 4.25452C15.1986 4.56067 15.439 4.80108 15.7451 4.90522L16.8731 5.28894C18.0713 5.69654 18.7122 6.99832 18.3047 8.19654C18.2727 8.29031 18.2348 8.38191 18.1911 8.47075L17.6647 9.53975C17.5219 9.82983 17.5219 10.1698 17.6647 10.4599L18.1911 11.5289C18.7502 12.6643 18.2828 14.0381 17.1473 14.5971C17.0585 14.6408 16.9669 14.6788 16.8731 14.7107L15.7451 15.0944C15.439 15.1986 15.1986 15.439 15.0944 15.7451L14.7107 16.8731C14.3031 18.0713 13.0013 18.7122 11.8031 18.3047C11.7093 18.2727 11.6177 18.2348 11.5289 18.1911L10.4599 17.6647C10.1698 17.5219 9.82983 17.5219 9.53975 17.6647L8.47075 18.1911C7.33527 18.7502 5.96157 18.2828 5.40252 17.1473C5.35877 17.0585 5.32083 16.9669 5.28894 16.8731L4.90522 15.7451C4.80108 15.439 4.56067 15.1986 4.25452 15.0944L3.12652 14.7107C1.9283 14.3031 1.28738 13.0013 1.69498 11.8031C1.72688 11.7093 1.76482 11.6177 1.80857 11.5289L2.33486 10.4599C2.47769 10.1698 2.47769 9.82983 2.33486 9.53975L1.80857 8.47075C1.24952 7.33527 1.71682 5.96157 2.8523 5.40252C2.94116 5.35877 3.03276 5.32083 3.12652 5.28894L4.25452 4.90522C4.56067 4.80108 4.80108 4.56067 4.90522 4.25452L5.28894 3.12652C5.69654 1.9283 6.99832 1.28738 8.19654 1.69498ZM12.8912 7.47455L8.37517 11.9906L6.72996 10.0164C6.50898 9.75117 6.11488 9.71533 5.84971 9.93633C5.58453 10.1573 5.54871 10.5514 5.76968 10.8166L7.85301 13.3166C8.0883 13.5989 8.51525 13.6183 8.77508 13.3584L13.7751 8.35841C14.0192 8.11435 14.0192 7.71862 13.7751 7.47455C13.531 7.23047 13.1353 7.23047 12.8912 7.47455Z" fill="#FA7A93"/>
</svg>
