<svg width="24" height="24" viewBox="0 0 24 24" fill="none" xmlns="http://www.w3.org/2000/svg">
<path d="M8.14424 6.3065C8.57828 6.07462 9.04535 6.00003 9.5001 6C10.0265 5.99997 10.6379 6.1729 11.1317 6.57756C11.6487 7.00119 12.0001 7.65113 12.0001 8.49927C12.0001 9.47386 11.3114 10.003 10.9231 10.3013C10.8929 10.3245 10.8646 10.3463 10.8385 10.3668C10.4139 10.7005 10.2501 10.8788 10.2501 11.2493C10.2501 11.6635 9.91435 11.9993 9.50014 11.9993C9.08593 11.9993 8.75014 11.6635 8.75014 11.2493C8.75014 10.1153 9.46139 9.54122 9.91174 9.18733C10.425 8.78396 10.5001 8.69411 10.5001 8.49927C10.5001 8.10223 10.3515 7.87752 10.181 7.7378C9.98738 7.57912 9.72376 7.49999 9.50018 7.5C9.20493 7.50002 9.002 7.54889 8.85104 7.62954C8.70759 7.70617 8.55581 7.84073 8.40947 8.11064C8.21205 8.47478 7.75681 8.60993 7.39268 8.41251C7.02854 8.21509 6.89339 7.75985 7.09081 7.39571C7.35447 6.90939 7.70269 6.54238 8.14424 6.3065Z" fill="#212121"/>
<path d="M9.50007 15.0001C10.0524 15.0001 10.5001 14.5524 10.5001 14.0001C10.5001 13.4477 10.0524 13 9.50007 13C8.94775 13 8.5 13.4477 8.5 14.0001C8.5 14.5524 8.94775 15.0001 9.50007 15.0001Z" fill="#212121"/>
<path d="M9.50103 3C5.3589 3 2.00103 6.35786 2.00103 10.5C2.00103 11.6329 2.2527 12.7088 2.70369 13.6734C2.44965 14.6714 2.16584 15.7842 1.97945 16.5147C1.74642 17.428 2.56885 18.2588 3.48319 18.039C4.23342 17.8587 5.38644 17.5819 6.41392 17.337C7.35623 17.7631 8.40187 18 9.50103 18C13.6432 18 17.0011 14.6421 17.0011 10.5C17.0011 6.35786 13.6432 3 9.50103 3ZM3.50103 10.5C3.50103 7.18629 6.18731 4.5 9.50103 4.5C12.8148 4.5 15.5011 7.18629 15.5011 10.5C15.5011 13.8137 12.8148 16.5 9.50103 16.5C8.5403 16.5 7.63433 16.2748 6.83107 15.8749L6.58765 15.7537L6.32314 15.8167C5.40041 16.0363 4.33434 16.2919 3.53538 16.4838C3.73413 15.7047 3.9973 14.6724 4.22546 13.7757L4.29565 13.4998L4.16513 13.2468C3.74091 12.4246 3.50103 11.4914 3.50103 10.5Z" fill="#212121"/>
<path d="M14.5001 20.9997C12.5307 20.9997 10.7386 20.2406 9.40039 18.9991C9.43359 18.9995 9.46683 18.9997 9.50011 18.9997C10.2181 18.9997 10.9152 18.9106 11.5812 18.743C12.4451 19.225 13.4405 19.4997 14.5001 19.4997C15.4608 19.4997 16.3668 19.2744 17.17 18.8745L17.4135 18.7533L17.678 18.8163C18.5995 19.0357 19.6431 19.2621 20.4171 19.4258C20.2422 18.6753 20.0035 17.6707 19.7756 16.7753L19.7055 16.4995L19.836 16.2465C20.2602 15.4243 20.5001 14.4911 20.5001 13.4997C20.5001 11.3849 19.4061 9.52581 17.7531 8.45725C17.5747 7.73399 17.3038 7.0472 16.9535 6.41016C19.8908 7.42648 22.0001 10.2167 22.0001 13.4997C22.0001 14.6328 21.7483 15.709 21.2971 16.6737C21.5501 17.6817 21.8064 18.7736 21.9689 19.4769C22.1733 20.3619 21.3939 21.1629 20.5014 20.9764C19.7743 20.8244 18.6318 20.5806 17.588 20.3363C16.6455 20.7626 15.5996 20.9997 14.5001 20.9997Z" fill="#212121"/>
</svg>
