<svg width="20" height="20" viewBox="0 0 20 20" fill="none" xmlns="http://www.w3.org/2000/svg">
<path d="M6.78752 5.2559C7.14922 5.06267 7.53844 5.00051 7.9174 5.00049C8.3561 5.00046 8.8656 5.14457 9.2771 5.48179C9.70793 5.83481 10.0008 6.37643 10.0008 7.08321C10.0008 7.89537 9.42685 8.3363 9.10327 8.58488C9.0781 8.60421 9.05452 8.62238 9.03277 8.63946C8.67893 8.91755 8.54243 9.06613 8.54243 9.37488C8.54243 9.72005 8.26261 9.99988 7.91743 9.99988C7.57226 9.99988 7.29243 9.72005 7.29243 9.37488C7.29243 8.42988 7.88514 7.9515 8.26043 7.6566C8.68818 7.32045 8.75077 7.24558 8.75077 7.08321C8.75077 6.75235 8.62693 6.56509 8.48485 6.44866C8.32347 6.31642 8.10378 6.25048 7.91747 6.25049C7.67143 6.2505 7.50232 6.29123 7.37652 6.35844C7.25698 6.4223 7.13049 6.53443 7.00854 6.75935C6.84403 7.0628 6.46466 7.17543 6.16122 7.01091C5.85777 6.8464 5.74514 6.46703 5.90966 6.16358C6.12938 5.75831 6.41956 5.45247 6.78752 5.2559Z" fill="#328ECC"/>
<path d="M7.91738 12.5C8.37765 12.5 8.75073 12.1269 8.75073 11.6667C8.75073 11.2063 8.37765 10.8333 7.91738 10.8333C7.45711 10.8333 7.08398 11.2063 7.08398 11.6667C7.08398 12.1269 7.45711 12.5 7.91738 12.5Z" fill="#328ECC"/>
<path d="M7.91654 2.5C4.46477 2.5 1.66655 5.29822 1.66655 8.75C1.66655 9.69408 1.87627 10.5907 2.25209 11.3945C2.04039 12.2262 1.80389 13.1535 1.64856 13.7623C1.45437 14.5233 2.13973 15.2157 2.90168 15.0325C3.52687 14.8823 4.48772 14.6516 5.34395 14.4475C6.12921 14.8026 7.00058 15 7.91654 15C11.3683 15 14.1666 12.2018 14.1666 8.75C14.1666 5.29822 11.3683 2.5 7.91654 2.5ZM2.91655 8.75C2.91655 5.98858 5.15512 3.75 7.91654 3.75C10.678 3.75 12.9166 5.98858 12.9166 8.75C12.9166 11.5114 10.678 13.75 7.91654 13.75C7.11594 13.75 6.36096 13.5623 5.69158 13.2291L5.48873 13.1281L5.2683 13.1806C4.49936 13.3636 3.61097 13.5766 2.94517 13.7365C3.1108 13.0873 3.3301 12.227 3.52024 11.4798L3.57873 11.2498L3.46996 11.039C3.11645 10.3538 2.91655 9.57617 2.91655 8.75Z" fill="#328ECC"/>
<path d="M12.0837 17.5C10.4426 17.5 8.94916 16.8674 7.83398 15.8329C7.86165 15.8332 7.88935 15.8334 7.91708 15.8334C8.51541 15.8334 9.09633 15.7591 9.65133 15.6194C10.3712 16.0211 11.2007 16.25 12.0837 16.25C12.8843 16.25 13.6393 16.0623 14.3087 15.729L14.5116 15.628L14.732 15.6805C15.4999 15.8634 16.3696 16.052 17.0146 16.1884C16.8688 15.563 16.6699 14.7259 16.48 13.9797L16.4216 13.7499L16.5303 13.539C16.8838 12.8539 17.0837 12.0762 17.0837 11.25C17.0837 9.48769 16.1721 7.93842 14.7946 7.04795C14.6459 6.44523 14.4202 5.87291 14.1282 5.34204C16.576 6.18897 18.3337 8.51419 18.3337 11.25C18.3337 12.1943 18.1239 13.0911 17.7479 13.895C17.9587 14.735 18.1723 15.6449 18.3077 16.231C18.4781 16.9685 17.8286 17.636 17.0848 17.4806C16.4789 17.3539 15.5268 17.1508 14.657 16.9472C13.8716 17.3024 13 17.5 12.0837 17.5Z" fill="#328ECC"/>
</svg>
