<svg width="24" height="24" viewBox="0 0 24 24" fill="none" xmlns="http://www.w3.org/2000/svg">
<path d="M7.1271 6.10119L7.125 7.7992V16.2008C7.125 17.6364 8.2163 18.8003 9.5625 18.8003L16.0247 18.8005C15.793 19.4993 15.168 20 14.4333 20H9.5625C7.59499 20 6 18.2991 6 16.2008V7.7992C6 7.0148 6.47059 6.3476 7.1271 6.10119ZM16.3125 4C17.2444 4 18 4.80572 18 5.79962V16.1974C18 17.1913 17.2444 17.9971 16.3125 17.9971H9.5625C8.63052 17.9971 7.875 17.1913 7.875 16.1974V5.79962C7.875 4.80572 8.63052 4 9.5625 4H16.3125ZM16.3125 5.19975H9.5625C9.25184 5.19975 9 5.46832 9 5.79962V16.1974C9 16.5287 9.25184 16.7973 9.5625 16.7973H16.3125C16.6231 16.7973 16.875 16.5287 16.875 16.1974V5.79962C16.875 5.46832 16.6231 5.19975 16.3125 5.19975Z" fill="#212121"/>
</svg>
