<svg width="18" height="18" viewBox="0 0 18 18" fill="none" xmlns="http://www.w3.org/2000/svg">
<path d="M8.5173 15.3379C8.36111 15.338 8.20582 15.3143 8.05675 15.2676C7.41621 15.0676 7.00664 14.5068 7.01296 13.8396C7.01859 13.2296 6.90222 12.697 6.66738 12.2575C6.37945 11.7186 5.89992 11.3038 5.24179 11.0243C5.17787 10.9972 5.11991 10.9578 5.07121 10.9084C5.02251 10.8589 4.98402 10.8003 4.95796 10.736C4.93189 10.6717 4.91875 10.6029 4.91928 10.5335C4.91982 10.464 4.93402 10.3954 4.96107 10.3315C4.98812 10.2676 5.0275 10.2096 5.07696 10.1609C5.12642 10.1122 5.18498 10.0737 5.24931 10.0477C5.31364 10.0216 5.38247 10.0085 5.45188 10.009C5.52128 10.0095 5.5899 10.0237 5.65382 10.0508C7.24992 10.7279 8.08453 12.0406 8.0673 13.8477C8.06772 13.9393 8.09726 14.0283 8.15166 14.102C8.20605 14.1757 8.28247 14.2302 8.36988 14.2576C8.45728 14.285 8.55113 14.2839 8.63786 14.2545C8.72459 14.225 8.79971 14.1687 8.85234 14.0938C9.84867 12.6274 8.97433 11.013 8.96554 10.9968C8.92106 10.9166 8.8983 10.8261 8.89951 10.7343C8.90072 10.6425 8.92587 10.5526 8.97245 10.4736C9.01904 10.3945 9.08546 10.3289 9.16514 10.2834C9.24482 10.2379 9.33501 10.2139 9.42679 10.2139H14.4063C14.5366 10.2105 14.6603 10.1563 14.7512 10.0629C14.8421 9.9696 14.893 9.84445 14.893 9.71416C14.893 9.58387 14.8421 9.45872 14.7512 9.36538C14.6603 9.27204 14.5366 9.21787 14.4063 9.21441H13.6874C13.5475 9.21442 13.4134 9.15886 13.3145 9.05996C13.2156 8.96106 13.16 8.82693 13.16 8.68707C13.16 8.54721 13.2156 8.41308 13.3145 8.31418C13.4134 8.21529 13.5475 8.15973 13.6874 8.15973C13.753 8.15977 13.818 8.14688 13.8786 8.12179C13.9392 8.0967 13.9943 8.05991 14.0407 8.01351C14.0871 7.96711 14.1239 7.91202 14.149 7.85139C14.1741 7.79076 14.187 7.72577 14.1869 7.66016C14.1868 7.52772 14.1341 7.40076 14.0404 7.30711C13.9468 7.21347 13.8198 7.16077 13.6874 7.16059H12.9688C12.8289 7.16059 12.6948 7.10503 12.5959 7.00613C12.497 6.90724 12.4414 6.7731 12.4414 6.63324C12.4414 6.49338 12.497 6.35925 12.5959 6.26035C12.6948 6.16146 12.8289 6.1059 12.9688 6.1059C13.1013 6.1059 13.2283 6.05327 13.322 5.95958C13.4157 5.86589 13.4684 5.73882 13.4684 5.60633C13.4684 5.47383 13.4157 5.34677 13.322 5.25308C13.2283 5.15939 13.1013 5.10676 12.9688 5.10676H12.2498C12.11 5.10676 11.9758 5.0512 11.8769 4.9523C11.7781 4.85341 11.7225 4.71927 11.7225 4.57941C11.7225 4.43955 11.7781 4.30542 11.8769 4.20653C11.9758 4.10763 12.11 4.05207 12.2498 4.05207C12.3823 4.05207 12.5094 3.99944 12.6031 3.90575C12.6968 3.81206 12.7494 3.68499 12.7494 3.5525C12.7494 3.42001 12.6968 3.29294 12.6031 3.19925C12.5094 3.10556 12.3823 3.05293 12.2498 3.05293H9.20355C8.73468 3.0523 8.26948 3.13564 7.83 3.29902L5.45695 4.18039C5.32941 4.21672 5.19287 4.20366 5.07453 4.14381C4.95619 4.08397 4.86474 3.98174 4.8184 3.85749C4.77206 3.73324 4.77424 3.59609 4.82449 3.47337C4.87474 3.35065 4.96939 3.25137 5.08957 3.19531L7.46261 2.31395C8.01951 2.10613 8.60914 1.9998 9.20355 2H12.2498C12.5113 2.00048 12.7685 2.06687 12.9975 2.19303C13.2266 2.31919 13.4201 2.50106 13.5603 2.72181C13.7005 2.94257 13.7827 3.1951 13.7995 3.45606C13.8162 3.71702 13.7669 3.97798 13.6561 4.21484C14.0206 4.39538 14.2999 4.71145 14.4343 5.09538C14.5687 5.47931 14.5474 5.90058 14.375 6.26902C14.7394 6.44962 15.0186 6.76566 15.1529 7.1495C15.2872 7.53334 15.2659 7.95449 15.0936 8.32285C15.408 8.4783 15.6606 8.73549 15.8103 9.05264C15.96 9.36978 15.998 9.72823 15.9182 10.0697C15.8384 10.4112 15.6455 10.7157 15.3707 10.9337C15.096 11.1517 14.7556 11.2703 14.4049 11.2704H10.1988C10.4368 12.0828 10.5936 13.4096 9.72492 14.6882C9.59293 14.8878 9.41357 15.0516 9.20284 15.165C8.99211 15.2784 8.75659 15.3378 8.5173 15.3379Z" fill="#212121"/>
<path d="M5.44855 11.065H2.42969C2.28983 11.065 2.1557 11.0094 2.0568 10.9105C1.9579 10.8116 1.90234 10.6775 1.90234 10.5376V3.30811C1.90234 3.16825 1.9579 3.03411 2.0568 2.93522C2.1557 2.83632 2.28983 2.78076 2.42969 2.78076H5.44855C5.58841 2.78076 5.72255 2.83632 5.82144 2.93522C5.92034 3.03411 5.9759 3.16825 5.9759 3.30811V10.5376C5.9759 10.6775 5.92034 10.8116 5.82144 10.9105C5.72255 11.0094 5.58841 11.065 5.44855 11.065ZM2.95809 10.0103H4.92121V3.83545H2.95703L2.95809 10.0103Z" fill="#212121"/>
</svg>
