<svg width="20" height="20" viewBox="0 0 20 20" fill="none" xmlns="http://www.w3.org/2000/svg">
<path d="M2.70703 17.5C2.70703 17.1549 2.98685 16.875 3.33203 16.875H16.6654C17.0105 16.875 17.2904 17.1549 17.2904 17.5C17.2904 17.8452 17.0105 18.125 16.6654 18.125H3.33203C2.98685 18.125 2.70703 17.8452 2.70703 17.5Z" fill="#A81D28"/>
<path fill-rule="evenodd" clip-rule="evenodd" d="M14.951 2.06675C14.6448 1.93989 14.3165 1.87465 13.985 1.87476C13.6535 1.87486 13.3253 1.9403 13.0191 2.06734C12.7129 2.19437 12.4347 2.38059 12.2005 2.61515L4.27793 10.5478C3.80573 11.021 3.54048 11.6623 3.54036 12.3309V15C3.54036 15.3452 3.82019 15.625 4.16536 15.625H6.8512C7.52047 15.625 8.16218 15.359 8.63532 14.8848L16.5521 6.96387C17.0241 6.49054 17.2892 5.84935 17.2892 5.18087C17.2892 4.51239 17.024 3.87106 16.5519 3.39773L15.7699 2.61404C15.5356 2.37957 15.2573 2.1936 14.951 2.06675ZM13.9854 3.12476C14.1526 3.1247 14.3182 3.15762 14.4727 3.22161L14.8858 3.4977L15.667 4.28054C15.9053 4.51954 16.0392 4.84338 16.0392 5.18087C16.0392 5.51825 15.9055 5.84187 15.6673 6.08084L7.75081 14.0015C7.51228 14.2406 7.18859 14.375 6.8512 14.375H4.79036V12.331L5.1628 11.4307L13.0852 3.49826C13.2033 3.3799 13.3437 3.286 13.4981 3.22191C13.6526 3.15782 13.8182 3.12481 13.9854 3.12476Z" fill="#A81D28"/>
</svg>
