<?xml version="1.0" encoding="UTF-8" standalone="no"?>
<svg
   width="24"
   height="24"
   viewBox="0 0 24 24"
   fill="none"
   version="1.1"
   id="svg2"
   sodipodi:docname="eye.svg"
   inkscape:version="1.3.2 (091e20e, 2023-11-25, custom)"
   xmlns:inkscape="http://www.inkscape.org/namespaces/inkscape"
   xmlns:sodipodi="http://sodipodi.sourceforge.net/DTD/sodipodi-0.dtd"
   xmlns="http://www.w3.org/2000/svg"
   xmlns:svg="http://www.w3.org/2000/svg">
  <defs
     id="defs2" />
  <sodipodi:namedview
     id="namedview2"
     pagecolor="#ffffff"
     bordercolor="#cccccc"
     borderopacity="1"
     inkscape:showpageshadow="0"
     inkscape:pageopacity="1"
     inkscape:pagecheckerboard="0"
     inkscape:deskcolor="#d1d1d1"
     inkscape:zoom="49.208333"
     inkscape:cx="11.989839"
     inkscape:cy="12"
     inkscape:window-width="3440"
     inkscape:window-height="1377"
     inkscape:window-x="-8"
     inkscape:window-y="-8"
     inkscape:window-maximized="1"
     inkscape:current-layer="svg2" />
  <path
     style="color:#000000;fill:#212121;fill-opacity:0.6;stroke-linecap:round;stroke-linejoin:round;stroke-miterlimit:10;-inkscape-stroke:none"
     d="M 12,4.5 C 7.1392619,4.5 2.9963565,7.5274385 1.5410156,11.755859 a 0.750075,0.750075 0 0 0 0,0.488282 C 2.9963565,16.472562 7.1392619,19.5 12,19.5 c 4.860738,0 9.003643,-3.027438 10.458984,-7.255859 a 0.750075,0.750075 0 0 0 0,-0.488282 C 21.003643,7.5274385 16.860738,4.5 12,4.5 Z M 12,6 c 4.134714,0 7.589241,2.5278159 8.910156,6 C 19.589241,15.472184 16.134714,18 12,18 7.8652857,18 4.4107594,15.472184 3.0898438,12 4.4107594,8.5278159 7.8652857,6 12,6 Z"
     id="path1" />
  <path
     style="color:#000000;fill:#212121;fill-opacity:0.6;stroke-linecap:round;stroke-linejoin:round;stroke-miterlimit:10;-inkscape-stroke:none"
     d="m 12,7.5 c -2.4763967,0 -4.5,2.0236033 -4.5,4.5 0,2.476421 2.0236106,4.5 4.5,4.5 2.476414,0 4.5,-2.023586 4.5,-4.5 C 16.5,9.5236106 14.476421,7.5 12,7.5 Z M 12,9 c 1.665775,0 3,1.334254 3,3 0,1.665782 -1.334218,3 -3,3 -1.665746,0 -3,-1.334225 -3,-3 0,-1.665739 1.334261,-3 3,-3 z"
     id="path2" />
</svg>
