<svg width="24" height="24" viewBox="0 0 24 24" fill="none" xmlns="http://www.w3.org/2000/svg">
<path d="M11.9996 2C17.5233 2 22.0011 6.47785 22.0011 12.0016C22.0011 17.5253 17.5233 22.0031 11.9996 22.0031C6.4759 22.0031 1.99805 17.5253 1.99805 12.0016C1.99805 6.47785 6.4759 2 11.9996 2ZM14.9385 16.5013H9.0607C9.71274 18.9154 10.8461 20.5031 11.9996 20.5031C13.1531 20.5031 14.2864 18.9154 14.9385 16.5013ZM7.50791 16.5019L4.78543 16.5017C5.74377 18.0348 7.17721 19.2404 8.8796 19.9124C8.35732 19.0925 7.92633 18.0663 7.60933 16.8969L7.50791 16.5019ZM19.2137 16.5017L16.4913 16.5019C16.1675 17.8356 15.6999 19.0014 15.1185 19.9124C16.7155 19.2824 18.0752 18.1834 19.0285 16.7853L19.2137 16.5017ZM7.09303 10.0009H3.73542L3.73066 10.0181C3.57858 10.6545 3.49805 11.3186 3.49805 12.0016C3.49805 13.0577 3.69064 14.0689 4.04262 15.0019L7.21578 15.0015C7.07348 14.0524 6.99805 13.0442 6.99805 12.0016C6.99805 11.3176 7.03052 10.6484 7.09303 10.0009ZM15.3965 10.001H8.60268C8.53465 10.6413 8.49805 11.311 8.49805 12.0016C8.49805 13.0611 8.5842 14.0714 8.73779 15.0017H15.2614C15.415 14.0714 15.5011 13.0611 15.5011 12.0016C15.5011 11.311 15.4645 10.6413 15.3965 10.001ZM20.2642 10.0001L16.9061 10.0009C16.9687 10.6484 17.0011 11.3176 17.0011 12.0016C17.0011 13.0442 16.9257 14.0524 16.7834 15.0015L19.9565 15.0019C20.3085 14.0689 20.5011 13.0577 20.5011 12.0016C20.5011 11.3122 20.4191 10.6419 20.2642 10.0001ZM8.88065 4.09071L8.85775 4.09942C6.81043 4.91413 5.15442 6.50144 4.24975 8.50131L7.29787 8.50167C7.61123 6.74888 8.15807 5.22296 8.88065 4.09071ZM11.9996 3.5L11.8839 3.5053C10.6185 3.62106 9.39603 5.62303 8.82832 8.50125H15.1709C14.6047 5.63109 13.3875 3.63229 12.1259 3.50632L11.9996 3.5ZM15.1196 4.09077L15.2264 4.26486C15.8956 5.37733 16.4037 6.83721 16.7013 8.50167L19.7494 8.50131C18.8848 6.5899 17.3338 5.05537 15.4108 4.21204L15.1196 4.09077Z" fill="#212121"/>
</svg>
