<svg width="24" height="24" viewBox="0 0 24 24" fill="none" xmlns="http://www.w3.org/2000/svg">
<path d="M16.5623 22H7.43768C5.99599 21.9985 4.61379 21.4251 3.59435 20.4056C2.57492 19.3862 2.00153 18.004 2 16.5623V7.43768C2.00153 5.99599 2.57492 4.61379 3.59435 3.59435C4.61379 2.57492 5.99599 2.00153 7.43768 2H16.5623C18.004 2.00153 19.3862 2.57492 20.4056 3.59435C21.4251 4.61379 21.9985 5.99599 22 7.43768V16.5623C21.9985 18.004 21.4251 19.3862 20.4056 20.4056C19.3862 21.4251 18.004 21.9985 16.5623 22ZM7.43768 3.44928C6.38036 3.45081 5.36678 3.87151 4.61915 4.61915C3.87151 5.36678 3.45081 6.38036 3.44928 7.43768V16.5623C3.45081 17.6196 3.87151 18.6332 4.61915 19.3809C5.36678 20.1285 6.38036 20.5492 7.43768 20.5507H16.5623C17.6196 20.5492 18.6332 20.1285 19.3809 19.3809C20.1285 18.6332 20.5492 17.6196 20.5507 16.5623V7.43768C20.5492 6.38036 20.1285 5.36678 19.3809 4.61915C18.6332 3.87151 17.6196 3.45081 16.5623 3.44928H7.43768Z" fill="white"/>
<path d="M12 17C11.0111 17 10.0444 16.7068 9.22215 16.1573C8.3999 15.6079 7.75904 14.827 7.3806 13.9134C7.00217 12.9998 6.90315 11.9945 7.09608 11.0245C7.289 10.0546 7.76521 9.16373 8.46447 8.46447C9.16373 7.76521 10.0546 7.289 11.0245 7.09608C11.9945 6.90315 12.9998 7.00217 13.9134 7.3806C14.827 7.75904 15.6079 8.39991 16.1573 9.22215C16.7068 10.0444 17 11.0111 17 12C17 13.3261 16.4732 14.5979 15.5355 15.5355C14.5979 16.4732 13.3261 17 12 17ZM12 8.37222C11.2811 8.36893 10.5774 8.57931 9.97827 8.97667C9.37914 9.37402 8.91158 9.94043 8.63493 10.604C8.35829 11.2676 8.28505 11.9984 8.42449 12.7036C8.56394 13.4089 8.90979 14.0568 9.41815 14.5652C9.9265 15.0735 10.5744 15.4194 11.2797 15.5588C11.985 15.6983 12.7158 15.625 13.3793 15.3484C14.0429 15.0718 14.6093 14.6042 15.0067 14.0051C15.404 13.4059 15.6144 12.7022 15.6111 11.9833C15.6053 11.0274 15.223 10.1123 14.547 9.43634C13.871 8.76038 12.9559 8.37805 12 8.37222Z" fill="white"/>
<path d="M17 8C17.2652 8 17.5196 7.89464 17.7071 7.70711C17.8946 7.51957 18 7.26522 18 7C18 6.73478 17.8946 6.48043 17.7071 6.29289C17.5196 6.10536 17.2652 6 17 6C16.7348 6 16.4804 6.10536 16.2929 6.29289C16.1054 6.48043 16 6.73478 16 7C16 7.26522 16.1054 7.51957 16.2929 7.70711C16.4804 7.89464 16.7348 8 17 8Z" fill="white"/>
</svg>
