<svg width="18" height="18" viewBox="0 0 18 18" fill="none" xmlns="http://www.w3.org/2000/svg">
<path d="M12.2498 15.2122H9.2035C8.60915 15.2128 8.01952 15.1068 7.46256 14.8993L5.08951 14.018C4.95954 13.9684 4.8544 13.8695 4.797 13.7428C4.7396 13.6161 4.73458 13.4719 4.78303 13.3415C4.83148 13.2111 4.92949 13.1052 5.0557 13.0467C5.18191 12.9882 5.32611 12.982 5.4569 13.0294L7.82959 13.9107C8.26921 14.0741 8.73451 14.1574 9.2035 14.1568H12.2498C12.3823 14.1568 12.5093 14.1042 12.603 14.0105C12.6967 13.9168 12.7494 13.7898 12.7494 13.6573C12.7494 13.5248 12.6967 13.3977 12.603 13.304C12.5093 13.2103 12.3823 13.1577 12.2498 13.1577C12.1099 13.1577 11.9758 13.1021 11.8769 13.0032C11.778 12.9043 11.7224 12.7702 11.7224 12.6304C11.7224 12.4905 11.778 12.3564 11.8769 12.2575C11.9758 12.1586 12.1099 12.103 12.2498 12.103H12.9687C13.1012 12.103 13.2283 12.0504 13.322 11.9567C13.4157 11.863 13.4683 11.7359 13.4683 11.6034C13.4683 11.4709 13.4157 11.3439 13.322 11.2502C13.2283 11.1565 13.1012 11.1039 12.9687 11.1039C12.8289 11.1039 12.6947 11.0483 12.5958 10.9494C12.4969 10.8505 12.4414 10.7164 12.4414 10.5765C12.4414 10.4367 12.4969 10.3025 12.5958 10.2036C12.6947 10.1047 12.8289 10.0492 12.9687 10.0492H13.6873C13.7862 10.0492 13.8828 10.0199 13.9649 9.96503C14.0471 9.91014 14.1112 9.83211 14.149 9.74081C14.1868 9.6495 14.1967 9.54903 14.1774 9.45211C14.1581 9.35518 14.1105 9.26615 14.0406 9.19629C13.9944 9.1497 13.9393 9.11278 13.8787 9.08767C13.818 9.06256 13.753 9.04977 13.6873 9.05004C13.5475 9.05004 13.4133 8.99448 13.3144 8.89558C13.2155 8.79669 13.16 8.66255 13.16 8.52269C13.16 8.38283 13.2155 8.2487 13.3144 8.14981C13.4133 8.05091 13.5475 7.99535 13.6873 7.99535H14.4063C14.5049 7.99503 14.6013 7.9655 14.6832 7.91047C14.7651 7.85545 14.8289 7.7774 14.8665 7.68617C14.9041 7.59494 14.9139 7.49461 14.8945 7.39785C14.8752 7.30109 14.8276 7.21222 14.7578 7.14246C14.7118 7.09603 14.657 7.05918 14.5967 7.03402C14.5364 7.00886 14.4716 6.99589 14.4063 6.99586H9.42674C9.33497 6.99597 9.24476 6.97214 9.16503 6.92671C9.0853 6.88128 9.0188 6.81583 8.97211 6.73682C8.92542 6.65782 8.90015 6.56801 8.8988 6.47625C8.89746 6.38449 8.92008 6.29397 8.96444 6.21363C9.12464 5.8886 9.23374 5.5408 9.28787 5.1825C9.40705 4.41363 9.2601 3.71859 8.85123 3.11672C8.7986 3.04175 8.72349 2.98547 8.63675 2.95601C8.55002 2.92656 8.45617 2.92545 8.36877 2.95284C8.28137 2.98024 8.20494 3.03473 8.15055 3.10843C8.09616 3.18213 8.06661 3.27122 8.06619 3.36281C8.08342 5.16914 7.24881 6.48187 5.65272 7.15969C5.58872 7.18831 5.51967 7.20388 5.44959 7.2055C5.3795 7.20712 5.3098 7.19475 5.24456 7.16911C5.17931 7.14347 5.11983 7.10509 5.0696 7.05619C5.01936 7.0073 4.97938 6.94888 4.95199 6.88435C4.9246 6.81982 4.91035 6.75048 4.91007 6.68038C4.9098 6.61028 4.9235 6.54083 4.95038 6.47609C4.97726 6.41134 5.01678 6.35261 5.06663 6.30332C5.11647 6.25403 5.17565 6.21517 5.24069 6.18902C5.89881 5.90777 6.37834 5.49469 6.66627 4.95574C6.90112 4.51594 7.01783 3.98367 7.01186 3.37371C7.00658 2.70715 7.41756 2.14465 8.0567 1.94566C8.69584 1.74668 9.3508 1.97309 9.72487 2.52434C10.5936 3.80262 10.4368 5.12941 10.1988 5.94187H14.4063C14.757 5.94192 15.0974 6.06057 15.3721 6.27854C15.6468 6.49651 15.8398 6.80099 15.9196 7.14249C15.9994 7.48399 15.9613 7.84245 15.8116 8.15959C15.6619 8.47674 15.4094 8.73393 15.095 8.88937C15.2673 9.25773 15.2885 9.67889 15.1542 10.0627C15.0199 10.4466 14.7407 10.7626 14.3764 10.9432C14.5488 11.3116 14.57 11.7329 14.4357 12.1168C14.3013 12.5008 14.0219 12.8168 13.6574 12.9974C13.7684 13.2342 13.8179 13.4952 13.8013 13.7563C13.7846 14.0173 13.7024 14.2699 13.5622 14.4907C13.422 14.7116 13.2283 14.8934 12.9992 15.0195C12.77 15.1457 12.5128 15.2119 12.2512 15.2122H12.2498Z" fill="white"/>
<path d="M5.44855 14.4313H2.42969C2.28983 14.4313 2.1557 14.3758 2.0568 14.2769C1.9579 14.178 1.90234 14.0438 1.90234 13.904V6.6748C1.90234 6.53494 1.9579 6.40081 2.0568 6.30192C2.1557 6.20302 2.28983 6.14746 2.42969 6.14746H5.44855C5.58841 6.14746 5.72255 6.20302 5.82144 6.30192C5.92034 6.40081 5.9759 6.53494 5.9759 6.6748V13.904C5.9759 14.0438 5.92034 14.178 5.82144 14.2769C5.72255 14.3758 5.58841 14.4313 5.44855 14.4313ZM2.95809 13.3766H4.92121V7.20215H2.95703L2.95809 13.3766Z" fill="white"/>
</svg>
