<svg width="56" height="56" viewBox="0 0 56 56" fill="none" xmlns="http://www.w3.org/2000/svg">
<g clip-path="url(#clip0_736_24422)">
<path fill-rule="evenodd" clip-rule="evenodd" d="M28 53.6667C42.1753 53.6667 53.6667 42.1753 53.6667 28C53.6667 13.8247 42.1753 2.33333 28 2.33333C13.8247 2.33333 2.33333 13.8247 2.33333 28C2.33333 42.1753 13.8247 53.6667 28 53.6667ZM28 56C43.464 56 56 43.464 56 28C56 12.536 43.464 0 28 0C12.536 0 0 12.536 0 28C0 43.464 12.536 56 28 56Z" fill="white"/>
<path d="M21.1831 19.6257C21.5639 18.8643 22.4293 18.5053 23.2183 18.7358L23.5097 18.8502L38.7077 26.4492C39.0431 26.6171 39.3154 26.889 39.4832 27.2247C39.864 27.986 39.6317 28.8937 38.9741 29.3869L38.7077 29.5513L23.5097 37.1503C23.269 37.2706 23.0033 37.3334 22.7341 37.3334C21.8827 37.3334 21.1748 36.7199 21.0281 35.9111L21 35.5993V20.4013C21 20.132 21.0628 19.8665 21.1831 19.6257Z" fill="white"/>
</g>
<defs>
<clipPath id="clip0_736_24422">
<rect width="56" height="56" fill="white"/>
</clipPath>
</defs>
</svg>
