<svg width="20" height="20" viewBox="0 0 20 20" fill="none" xmlns="http://www.w3.org/2000/svg">
<path d="M9.79162 2.5C10.108 2.5 10.3696 2.73501 10.411 3.04007L10.4168 3.12488L10.4178 9.16667H16.462C16.8072 9.16667 17.087 9.4465 17.087 9.79167C17.087 10.1081 16.8519 10.3696 16.5469 10.411L16.462 10.4167H10.4178L10.4195 16.4576C10.4195 16.8028 10.1398 17.0828 9.79462 17.0828C9.4782 17.0828 9.21662 16.8478 9.1752 16.5427L9.16945 16.4578L9.16779 10.4167H3.12695C2.78177 10.4167 2.50195 10.1368 2.50195 9.79167C2.50195 9.47525 2.73708 9.21375 3.04214 9.17233L3.12695 9.16667H9.16779L9.16679 3.12512C9.1667 2.77995 9.44645 2.5 9.79162 2.5Z" fill="#212121"/>
</svg>
