<svg width="24" height="24" viewBox="0 0 24 24" fill="none" xmlns="http://www.w3.org/2000/svg">
<path d="M5.69362 11.9987L2.29933 3.27053C2.0631 2.66306 2.65544 2.08212 3.2414 2.28861L3.33375 2.32787L21.3337 11.3278C21.852 11.587 21.8844 12.2965 21.4309 12.6119L21.3337 12.6695L3.33375 21.6695C2.75077 21.961 2.11746 21.425 2.2688 20.8224L2.29933 20.7268L5.69362 11.9987ZM4.4021 4.5391L7.01109 11.2481L13.6387 11.2487C14.0184 11.2487 14.3322 11.5308 14.3818 11.8969L14.3887 11.9987C14.3887 12.3783 14.1065 12.6921 13.7404 12.7418L13.6387 12.7487L7.01109 12.7481L4.4021 19.4582L19.3213 11.9987L4.4021 4.5391Z" fill="#212121"/>
</svg>
