<svg width="20" height="20" viewBox="0 0 20 20" fill="none" xmlns="http://www.w3.org/2000/svg">
<path d="M8.98918 2.58561C9.40185 1.74946 10.5942 1.74946 11.0068 2.58561L12.9718 6.56705L17.3656 7.2055C18.2884 7.33958 18.6568 8.47358 17.9891 9.12441L14.8097 12.2235L15.5603 16.5995C15.7178 17.5186 14.7533 18.2194 13.9279 17.7855L9.99802 15.7194L6.06812 17.7855C5.24279 18.2194 4.27817 17.5186 4.4358 16.5995L5.18635 12.2235L2.00698 9.12441C1.33927 8.47358 1.70772 7.33958 2.63047 7.2055L7.02425 6.56705L8.98918 2.58561ZM9.99802 3.36594L8.11608 7.17918C7.95222 7.51121 7.63545 7.74135 7.26902 7.7946L3.06087 8.40608L6.10592 11.3742C6.37107 11.6327 6.49206 12.0051 6.42947 12.3701L5.71062 16.5612L9.47452 14.5824C9.80227 14.4101 10.1938 14.4101 10.5215 14.5824L14.2854 16.5612L13.5666 12.3701C13.504 12.0051 13.625 11.6327 13.8901 11.3742L16.9352 8.40608L12.727 7.7946C12.3606 7.74135 12.0438 7.51121 11.88 7.17918L9.99802 3.36594Z" fill="#328ECC"/>
</svg>
