<svg width="20" height="20" viewBox="0 0 20 20" fill="none" xmlns="http://www.w3.org/2000/svg">
<path d="M9.99935 1.4585C11.4435 1.4585 12.6237 2.58887 12.7034 4.01315L12.7077 4.16683H17.0827C17.4278 4.16683 17.7077 4.44665 17.7077 4.79183C17.7077 5.10825 17.4725 5.36974 17.1675 5.41112L17.0827 5.41683H16.4193L15.3526 16.2662C15.242 17.3904 14.3313 18.2585 13.2182 18.3289L13.0719 18.3335H6.92679C5.79713 18.3335 4.84406 17.5122 4.66504 16.4113L4.64613 16.2662L3.57852 5.41683H2.91602C2.5996 5.41683 2.33811 5.1817 2.29672 4.87664L2.29102 4.79183C2.29102 4.47541 2.52614 4.21392 2.83121 4.17254L2.91602 4.16683H7.29102C7.29102 2.67105 8.5036 1.4585 9.99935 1.4585ZM15.1635 5.41683H4.83435L5.89012 16.1438C5.93908 16.6415 6.33296 17.0287 6.82089 17.0782L6.92679 17.0835H13.0719C13.572 17.0835 13.9959 16.7294 14.0929 16.2487L14.1086 16.1438L15.1635 5.41683ZM11.4577 7.7085C11.7741 7.7085 12.0356 7.94362 12.077 8.24869L12.0827 8.3335V14.1668C12.0827 14.512 11.8028 14.7918 11.4577 14.7918C11.1413 14.7918 10.8798 14.5567 10.8383 14.2517L10.8327 14.1668V8.3335C10.8327 7.98832 11.1125 7.7085 11.4577 7.7085ZM8.54102 7.7085C8.85743 7.7085 9.11893 7.94362 9.16035 8.24869L9.16602 8.3335V14.1668C9.16602 14.512 8.88618 14.7918 8.54102 14.7918C8.2246 14.7918 7.96311 14.5567 7.92172 14.2517L7.91602 14.1668V8.3335C7.91602 7.98832 8.19584 7.7085 8.54102 7.7085ZM9.99935 2.7085C9.23418 2.7085 8.60668 3.29775 8.54585 4.04722L8.54102 4.16683H11.4577C11.4577 3.36141 10.8048 2.7085 9.99935 2.7085Z" fill="#A81D28"/>
</svg>
