<svg width="18" height="19" viewBox="0 0 18 19" fill="none" xmlns="http://www.w3.org/2000/svg">
<path d="M9.0013 8.9987C11.3945 8.9987 13.3346 7.0586 13.3346 4.66536C13.3346 2.27213 11.3945 0.332031 9.0013 0.332031C6.60807 0.332031 4.66797 2.27213 4.66797 4.66536C4.66797 7.0586 6.60807 8.9987 9.0013 8.9987Z" fill="#328ECC"/>
<path d="M17.6654 16.582V17.6654C17.6654 17.9527 17.5512 18.2282 17.3481 18.4314C17.1449 18.6346 16.8693 18.7487 16.582 18.7487H1.41536C1.12805 18.7487 0.852497 18.6346 0.649332 18.4314C0.446168 18.2282 0.332031 17.9527 0.332031 17.6654V16.582C0.332031 14.8581 1.01685 13.2048 2.23584 11.9858C3.45482 10.7669 5.10812 10.082 6.83203 10.082H11.1654C12.8893 10.082 14.5426 10.7669 15.7616 11.9858C16.9805 13.2048 17.6654 14.8581 17.6654 16.582Z" fill="#328ECC"/>
</svg>
