<svg width="25" height="24" viewBox="0 0 25 24" fill="none" xmlns="http://www.w3.org/2000/svg">
<g clip-path="url(#clip0_2024_1343)">
<path d="M12.5 24C19.1274 24 24.5 18.6274 24.5 12C24.5 5.37258 19.1274 0 12.5 0C5.87258 0 0.5 5.37258 0.5 12C0.5 18.6274 5.87258 24 12.5 24Z" fill="#3B5998"/>
<path d="M17 24V15H20L20.75 11.25H17V9.75C17 8.25 17.7515 7.5 19.25 7.5H20.75V3.75C20 3.75 19.07 3.75 17.75 3.75C14.9938 3.75 13.25 5.91075 13.25 9V11.25H10.25V15H13.25V24H17Z" fill="white"/>
</g>
<defs>
<clipPath id="clip0_2024_1343">
<rect width="24" height="24" fill="white" transform="translate(0.5)"/>
</clipPath>
</defs>
</svg>
