<svg width="25" height="24" viewBox="0 0 25 24" fill="none" xmlns="http://www.w3.org/2000/svg">
<path d="M18.185 12.9187C18.1587 10.2805 20.3363 9.01518 20.4337 8.95126C19.2099 7.16183 17.3032 6.9163 16.6246 6.88836C15.0032 6.72368 13.4593 7.8434 12.6368 7.8434C11.8159 7.8434 10.5451 6.91249 9.20058 6.9362C7.43189 6.96244 5.80164 7.9649 4.89147 9.54816C3.05463 12.7346 4.42157 17.4569 6.21142 20.043C7.08645 21.3071 8.12997 22.7295 9.49903 22.6774C10.8186 22.6253 11.3164 21.824 12.9115 21.824C14.5066 21.824 14.9545 22.6774 16.3502 22.6507C17.7693 22.6249 18.6688 21.3625 19.5367 20.0934C20.5412 18.6248 20.9548 17.2029 20.9794 17.1309C20.9485 17.1165 18.2133 16.0688 18.185 12.9187Z" fill="#212121"/>
<path d="M15.5607 5.17684C16.2867 4.29546 16.7786 3.07076 16.6448 1.85156C15.5971 1.8939 14.3288 2.54794 13.5765 3.42848C12.9026 4.20995 12.3133 5.45412 12.4712 6.65131C13.64 6.7419 14.8321 6.05653 15.5607 5.17684Z" fill="#212121"/>
</svg>
