<svg width="25" height="24" viewBox="0 0 25 24" fill="none" xmlns="http://www.w3.org/2000/svg">
<path fill-rule="evenodd" clip-rule="evenodd" d="M5.67387 11.9996C5.67387 11.2202 5.80325 10.4728 6.03444 9.77191L1.99006 6.68359C1.20181 8.28391 0.757812 10.0873 0.757812 11.9996C0.757812 13.9104 1.20144 15.7125 1.98837 17.3118L6.0305 14.2175C5.80156 13.5198 5.67387 12.7753 5.67387 11.9996Z" fill="#FBBC05"/>
<path fill-rule="evenodd" clip-rule="evenodd" d="M12.7731 4.90912C14.4664 4.90912 15.9958 5.50912 17.1975 6.49088L20.6933 3C18.5631 1.14544 15.832 0 12.7731 0C8.02409 0 3.94259 2.71575 1.98828 6.684L6.03247 9.77231C6.96434 6.94369 9.62066 4.90912 12.7731 4.90912Z" fill="#EA4335"/>
<path fill-rule="evenodd" clip-rule="evenodd" d="M12.7731 19.091C9.62084 19.091 6.96453 17.0564 6.03266 14.2278L1.98828 17.3155C3.94259 21.2843 8.02409 24.0001 12.7731 24.0001C15.7041 24.0001 18.5025 22.9593 20.6027 21.0093L16.7638 18.0415C15.6807 18.7238 14.3166 19.091 12.7731 19.091Z" fill="#34A853"/>
<path fill-rule="evenodd" clip-rule="evenodd" d="M24.2441 12.0001C24.2441 11.291 24.1348 10.5273 23.9709 9.81836H12.7734V14.4547H19.2189C18.8966 16.0355 18.0195 17.2507 16.7642 18.0415L20.6031 21.0093C22.8092 18.9618 24.2441 15.9115 24.2441 12.0001Z" fill="#4285F4"/>
</svg>
