<svg width="112" height="30" viewBox="0 0 112 30" fill="none" xmlns="http://www.w3.org/2000/svg">
<mask id="mask0_701_15824" style="mask-type:luminance" maskUnits="userSpaceOnUse" x="0" y="0" width="112" height="30">
<path d="M0 -7.82013e-05H112V29.4141H0V-7.82013e-05Z" fill="white"/>
</mask>
<g mask="url(#mask0_701_15824)">
<path d="M45.8159 19.9161C45.8159 19.6891 45.6685 19.521 45.3672 19.4556V19.3087C45.534 19.3087 46.0896 19.3311 46.2459 19.3311C46.381 19.3311 46.919 19.3087 47.0864 19.3087V19.4556C46.8067 19.5104 46.6599 19.6761 46.6599 19.9161V22.7983C46.6599 23.711 47.1592 24.2269 48.2035 24.2269C49.1033 24.2269 49.8035 23.8213 49.8035 22.8661V19.9049C49.8035 19.6908 49.6695 19.521 49.3324 19.4556V19.3087C49.4551 19.3087 49.9144 19.3311 50.0713 19.3311C50.2052 19.3311 50.6874 19.3087 50.8107 19.3087V19.4556C50.4854 19.5335 50.3408 19.6796 50.3408 19.9049V22.7073C50.3408 23.9651 49.6119 24.6875 48.039 24.6875C46.5747 24.6875 45.8159 24.0193 45.8159 22.8377V19.9161Z" fill="#1D1D1B"/>
<path d="M52.0973 24.4617C52.438 24.398 52.5725 24.2247 52.5725 24.0124V20.0288C52.5725 19.6909 52.3933 19.5389 52.0879 19.4552V19.3083C52.2607 19.3213 52.5507 19.3289 52.6988 19.3289C52.8333 19.3289 53.0424 19.3266 53.1833 19.3083L56.6251 23.3709V19.905C56.6251 19.6915 56.4901 19.5217 56.1542 19.4552V19.3083C56.2775 19.3083 56.7204 19.3313 56.8778 19.3313C57.0147 19.3313 57.4892 19.3083 57.6143 19.3083V19.4552C57.2859 19.5329 57.1275 19.6804 57.1275 19.905V24.6875H56.9201C56.7896 24.6575 56.5429 24.5166 56.1671 24.1027L53.0876 20.5017V24.0124C53.0876 24.2258 53.2103 24.395 53.5463 24.4617V24.6091C53.423 24.6091 52.9801 24.5856 52.8228 24.5856C52.6871 24.5856 52.2224 24.6091 52.0973 24.6091V24.4617Z" fill="#1D1D1B"/>
<path d="M79.2566 23.3882H79.4023C79.4793 23.6859 79.6489 23.9573 79.8868 24.1141C80.1342 24.2891 80.5224 24.3729 80.836 24.3729C81.5284 24.3729 81.9673 24.0286 81.9673 23.4837C81.9673 22.9194 81.4051 22.6264 80.7316 22.2885C80.2304 22.0368 79.2461 21.6212 79.2461 20.6659C79.2461 19.776 79.9222 19.2225 81.0035 19.2225C81.7171 19.2225 82.0519 19.3975 82.5335 19.3751L82.5242 20.4547H82.3772C82.1845 19.8185 81.609 19.5968 80.9787 19.5968C80.2739 19.5968 80.0102 20.0015 80.0102 20.4129C80.0102 21.002 80.5845 21.2991 81.2354 21.5905C81.9673 21.9177 82.7614 22.331 82.7614 23.2514C82.7614 24.1229 82.0824 24.7539 80.8413 24.7539C80.103 24.7539 79.6601 24.5422 79.2719 24.4943L79.2566 23.3882Z" fill="#1D1D1B"/>
<path d="M94.0474 22.4165L92.646 20.1594C92.407 19.7632 92.2238 19.5543 91.957 19.4553V19.309C92.1491 19.309 92.6678 19.3321 92.8151 19.3321C92.9484 19.3321 93.5082 19.309 93.7103 19.309V19.4553C93.5311 19.4871 93.4471 19.5773 93.4471 19.713C93.4471 19.8326 93.5283 19.9866 93.6098 20.1204C93.6898 20.253 94.6431 21.8404 94.6431 21.8404L95.6385 20.1211C95.7391 19.9488 95.8101 19.7779 95.8101 19.6652C95.8101 19.5626 95.7377 19.4776 95.5681 19.4553V19.309C95.7367 19.309 96.0908 19.3321 96.2036 19.3321C96.3164 19.3321 96.7234 19.309 96.8907 19.309V19.4453C96.5079 19.6028 96.2688 19.94 96.0368 20.3309L94.7629 22.4684M94.8497 22.1989V24.002C94.8497 24.1807 94.9854 24.4053 95.2919 24.4618V24.6094C95.1211 24.6094 94.5632 24.5857 94.4017 24.5857C94.266 24.5857 93.7308 24.6094 93.5376 24.6094V24.4618C93.8453 24.4053 93.9929 24.1807 93.9929 24.002V22.278" fill="#1D1D1B"/>
<path d="M68.0076 19.3106H71.2938C71.3954 19.3106 71.5734 19.2989 71.6749 19.2547H71.8219L71.7989 20.3266H71.6533C71.5282 19.9893 71.3984 19.7193 70.7623 19.7193H69.3355V21.5873H70.4352C70.5955 21.5873 70.7899 21.5737 70.8739 21.5536C71.1211 21.4994 71.2299 21.3613 71.2798 21.1498H71.4266C71.4161 21.3112 71.4161 21.6798 71.4161 21.789C71.4161 21.8986 71.4266 22.2866 71.4266 22.4623H71.2798C71.2092 22.2512 71.113 22.0908 70.8739 22.0319C70.7899 22.0095 70.592 21.9912 70.4352 21.9912H69.3355V24.1823H70.8874C71.5652 24.1823 71.7621 23.8987 71.9305 23.4978L72.0756 23.5318L71.9305 24.6328C71.4266 24.5879 71.1242 24.5879 70.552 24.5879H68.9122C68.7542 24.5879 68.1744 24.611 68.0059 24.611V24.4641C68.3019 24.4075 68.4747 24.2606 68.4747 23.9759V19.9234C68.4747 19.6722 68.34 19.5152 68.0076 19.4593V19.3106Z" fill="#1D1D1B"/>
<path d="M59.6154 19.9506C59.6154 19.6788 59.4539 19.5291 59.1373 19.4605V19.315C59.3135 19.315 59.884 19.3373 60.0501 19.3373C60.1893 19.3373 60.7756 19.315 60.9541 19.315V19.4605C60.6392 19.5291 60.4741 19.6645 60.4741 19.9506V23.9749C60.4741 24.2466 60.6363 24.3946 60.9541 24.4618V24.6094C60.7761 24.6094 60.2139 24.5863 60.0501 24.5863C59.9084 24.5863 59.3135 24.6094 59.1367 24.6094V24.4618C59.4604 24.4012 59.6154 24.2591 59.6154 23.9749V19.9506Z" fill="#1D1D1B"/>
<path d="M84.5438 19.9506C84.5438 19.6788 84.3804 19.5291 84.0645 19.4605V19.315C84.2407 19.315 84.8116 19.3373 84.9765 19.3373C85.117 19.3373 85.7032 19.315 85.8812 19.315V19.4605C85.5664 19.5291 85.4018 19.6645 85.4018 19.9506V23.9749C85.4018 24.2466 85.564 24.3946 85.8812 24.4618V24.6094C85.7044 24.6094 85.1428 24.5863 84.9765 24.5863C84.8374 24.5863 84.2407 24.6094 84.0645 24.6094V24.4618C84.3875 24.4012 84.5438 24.2591 84.5438 23.9749V19.9506Z" fill="#1D1D1B"/>
<path d="M89.1104 19.3314C87.309 19.3314 87.0207 19.2977 86.6523 19.2748L86.6554 20.3668H86.8021C86.9366 19.8827 87.2051 19.7701 87.5529 19.7701H88.6828V23.9749C88.6828 24.2589 88.5279 24.4012 88.2037 24.4618V24.6094C88.3815 24.6094 88.9818 24.5863 89.1204 24.5863C89.2855 24.5863 89.8494 24.6094 90.025 24.6094V24.4618C89.7065 24.3946 89.5452 24.2466 89.5452 23.9749V19.7701H90.6662C91.0269 19.7701 91.2849 19.8934 91.4192 20.3668H91.5644L91.5668 19.2748C91.2008 19.2977 90.9125 19.3314 89.1104 19.3314Z" fill="#1D1D1B"/>
<path d="M74.7357 23.9768C74.7357 24.2486 74.9077 24.396 75.2256 24.4637V24.6113C75.0493 24.6113 74.4731 24.5882 74.3087 24.5882C74.1677 24.5882 73.6051 24.6113 73.4277 24.6113V24.4637C73.7225 24.4072 73.8963 24.261 73.8963 23.9768V19.9114C73.8963 19.6613 73.7607 19.5039 73.4289 19.4473V19.301C73.6051 19.301 74.1623 19.3233 74.3199 19.3233C74.5778 19.3233 75.3107 19.2798 75.5991 19.2798C76.8619 19.2798 77.565 19.804 77.565 20.7025C77.565 21.4089 77.0416 21.8866 76.2357 22.0817C76.2357 22.0817 76.4197 22.1889 76.6029 22.403C76.8256 22.6665 77.4269 23.5329 77.6764 23.8358C77.9256 24.1396 78.2445 24.4786 78.5863 24.4939V24.6124C78.4225 24.6483 78.1599 24.6797 77.959 24.6797C77.5302 24.6797 77.1879 24.5276 76.8555 24.1237C76.5677 23.7722 76.0796 23.0429 75.7923 22.6743C75.6086 22.4396 75.3859 22.2563 74.9782 22.1889C74.8995 22.1755 74.825 22.1642 74.7357 22.1537V23.9768ZM74.7357 21.8163C74.9037 21.8393 75.1509 21.85 75.3953 21.85C76.3839 21.85 76.6952 21.2792 76.6952 20.774C76.6952 20.0593 76.2199 19.6165 75.3547 19.6165C75.1757 19.6165 74.916 19.6389 74.7357 19.673V21.8163Z" fill="#1D1D1B"/>
<path d="M62.2182 19.9685C62.1031 19.7126 61.9263 19.5251 61.625 19.4586V19.3093C61.8123 19.3093 62.4614 19.3329 62.604 19.3329C62.7352 19.3329 63.3024 19.3093 63.4952 19.3093V19.4543C63.3241 19.4873 63.1292 19.5822 63.1292 19.758C63.1292 19.8835 63.2049 20.0546 63.3501 20.3766L64.7103 23.4838L65.9978 20.3713C66.0995 20.1201 66.1729 19.9255 66.1729 19.7768C66.1729 19.6124 66.0219 19.4985 65.808 19.4543V19.3093C65.9791 19.3093 66.3984 19.3329 66.5288 19.3329C66.648 19.3329 67.1402 19.3093 67.3282 19.3093V19.4586C67.0069 19.5458 66.8112 19.7233 66.6309 20.1437L64.7361 24.6289H64.3074L62.2182 19.9685Z" fill="#1D1D1B"/>
<path d="M67.0773 5.82286C66.8583 5.33753 66.5222 4.98375 65.9531 4.85701V4.57455C66.3073 4.57455 67.4831 4.61702 67.7533 4.61702C68.0024 4.61702 69.1413 4.57455 69.5042 4.57455V4.84993C69.1823 4.91311 68.8123 5.09353 68.8123 5.42661C68.8123 5.6618 68.958 5.98686 69.2282 6.59586L71.8084 12.4846L74.2499 6.58584C74.4403 6.10826 74.5824 5.74326 74.5824 5.4608C74.5824 5.14709 74.2934 4.93434 73.8887 4.84993V4.57455C74.2117 4.57455 74.997 4.61702 75.2466 4.61702C75.4734 4.61702 76.4061 4.57455 76.7609 4.57455V4.84112C76.1524 5.00686 75.7801 5.3577 75.4411 6.1542L71.8519 14.6562H71.0395L67.0773 5.82286Z" fill="#1D1D1B"/>
<path d="M32.334 14.3307C32.8027 14.2233 33.1322 14.0094 33.1322 13.4764V5.6819C33.1322 5.17013 32.8255 4.95778 32.334 4.8293V4.55272C32.5801 4.55272 33.6402 4.59465 33.8981 4.59465C34.1953 4.59465 35.3065 4.55272 35.5509 4.55272V4.8293C35.0827 4.93601 34.7356 5.14943 34.7356 5.6819V8.93789H40.5198V5.6819C40.5198 5.14943 40.2115 4.93601 39.7228 4.8293V4.55272C39.9671 4.55272 41.0585 4.59465 41.355 4.59465C41.6111 4.59465 42.696 4.55272 42.9379 4.55272V4.8293C42.4693 4.93601 42.1221 5.14943 42.1221 5.6819V13.4764C42.1221 13.9882 42.448 14.2028 42.9379 14.3307V14.5859C42.696 14.5859 41.6111 14.5648 41.355 14.5648C41.0585 14.5648 39.9671 14.5859 39.7228 14.5859V14.3307C40.188 14.2233 40.5198 14.0094 40.5198 13.4764V9.79276H34.7356V13.4764C34.7356 14.0094 35.061 14.2028 35.5509 14.3307V14.5859C35.3065 14.5859 34.1953 14.5648 33.8981 14.5648C33.6402 14.5648 32.5801 14.5859 32.334 14.5859V14.3307Z" fill="#1D1D1B"/>
<path d="M99.2383 14.3306C99.8385 14.2232 100.169 13.9839 100.169 13.4338V5.68176C100.169 5.14755 99.8432 4.93588 99.263 4.82917V4.55258C99.5971 4.55258 100.685 4.59452 100.986 4.59452C101.473 4.59452 102.829 4.48781 103.885 4.48781C107.444 4.48781 109.604 6.48254 109.604 9.51564C109.604 12.4638 107.356 14.6484 103.687 14.6484C102.63 14.6484 101.375 14.5647 100.884 14.5647C100.586 14.5647 99.5713 14.607 99.2383 14.607V14.3306ZM101.772 13.8169C102.134 13.8831 102.803 13.9243 103.331 13.9243C106.32 13.9243 107.876 12.1183 107.876 9.59937C107.876 6.9879 106.235 5.15049 103.44 5.15049C102.869 5.15049 102.156 5.1935 101.772 5.25613V13.8169Z" fill="#1D1D1B"/>
<path d="M58.9639 13.4084C58.9639 13.925 59.2898 14.2056 59.8896 14.3335V14.6101C59.5554 14.6101 58.467 14.5676 58.154 14.5676C57.8897 14.5676 56.8218 14.6101 56.4883 14.6101V14.3335C57.045 14.2263 57.3734 13.948 57.3734 13.4084V5.71194C57.3734 5.23837 57.1185 4.93894 56.4893 4.8321V4.55551C56.8237 4.55551 57.8785 4.59745 58.1745 4.59745C58.6638 4.59745 60.0512 4.51558 60.5985 4.51558C62.9914 4.51558 64.3235 5.50908 64.3235 7.20839C64.3235 8.54805 63.3297 9.44952 61.8045 9.8216C61.8045 9.8216 62.1503 10.0239 62.4985 10.4313C62.9209 10.9295 64.0863 12.6042 64.5573 13.1778C65.0283 13.7522 65.6326 14.3936 66.2788 14.4231V14.6491C65.9692 14.7161 65.4735 14.7734 65.0947 14.7734C64.2789 14.7734 63.631 14.4868 63.0008 13.7202C62.4575 13.0552 61.5071 11.6412 60.9626 10.9432C60.615 10.4984 60.1957 10.1519 59.4257 10.0239C59.274 9.99789 59.1314 9.97786 58.9639 9.95902V13.4084ZM58.9639 9.32051C59.2805 9.36232 59.7485 9.38355 60.2127 9.38355C62.084 9.38355 62.6718 8.30218 62.6718 7.34688C62.6718 5.99026 61.772 5.15343 60.1327 5.15343C59.795 5.15343 59.3029 5.19656 58.9639 5.25907V9.32051Z" fill="#1D1D1B"/>
<path d="M90.5019 13.4084C90.5019 13.925 90.829 14.2056 91.4294 14.3335V14.6101C91.0958 14.6101 90.0085 14.5676 89.6955 14.5676C89.4265 14.5676 88.3622 14.6101 88.0273 14.6101V14.3335C88.583 14.2263 88.912 13.948 88.912 13.4084V5.71194C88.912 5.23837 88.6547 4.93894 88.0292 4.8321V4.55551C88.3646 4.55551 89.416 4.59745 89.7143 4.59745C90.2047 4.59745 91.5913 4.51558 92.1353 4.51558C94.5323 4.51558 95.8603 5.50908 95.8603 7.20839C95.8603 8.54805 94.8689 9.44952 93.3425 9.8216C93.3425 9.8216 93.6901 10.0239 94.0354 10.4313C94.4618 10.9295 95.627 12.6042 96.0964 13.1778C96.5692 13.7522 97.1736 14.3936 97.8161 14.4231V14.6491C97.5108 14.7161 97.0122 14.7734 96.6373 14.7734C95.8198 14.7734 95.169 14.4868 94.5404 13.7202C93.9971 13.0552 93.0498 11.6412 92.5006 10.9432C92.1529 10.4984 91.7349 10.1519 90.9665 10.0239C90.8127 9.99789 90.6715 9.97786 90.5019 9.95902V13.4084ZM90.5019 9.32051C90.8225 9.36232 91.2877 9.38355 91.7523 9.38355C93.6244 9.38355 94.2105 8.30218 94.2105 7.34688C94.2105 5.99026 93.31 5.15343 91.6738 5.15343C91.333 5.15343 90.8431 5.19656 90.5019 5.25907V9.32051Z" fill="#1D1D1B"/>
<path d="M44.4595 14.3321C45.0926 14.1836 45.4404 13.772 45.6712 13.2212L48.8746 5.48347C49.0109 5.16335 49.1695 4.50521 49.1695 4.50521H50.0658C50.0658 4.50521 50.2261 5.16509 50.3594 5.48588L53.7449 13.2424C53.9863 13.7766 54.2476 14.1623 54.9208 14.3321L54.919 14.5898C54.5525 14.5898 53.4131 14.5686 53.154 14.5686C52.8961 14.5686 51.8078 14.5898 51.4419 14.5898L51.4431 14.3321C51.9359 14.2107 52.0915 13.9589 52.0915 13.7153C52.0915 13.5085 52.0064 13.2749 51.903 13.0326L51.1752 11.3662H47.4449L46.7784 13.042C46.7038 13.2319 46.6151 13.5002 46.6151 13.6812C46.6151 13.9607 46.7607 14.1836 47.3199 14.3321L47.3187 14.5898C46.9874 14.5898 46.1129 14.5686 45.908 14.5686L44.459 14.5898L44.4595 14.3321ZM50.8376 10.5761L49.2446 6.85024L47.761 10.5761H50.8376Z" fill="#1D1D1B"/>
<path d="M76.1965 14.3321C76.8292 14.1836 77.178 13.772 77.4077 13.2212L80.6122 5.48347C80.7485 5.16335 80.9088 4.50521 80.9088 4.50521H81.8051C81.8051 4.50521 81.9638 5.16509 82.0966 5.48588L85.4832 13.2424C85.7227 13.7766 85.9865 14.1623 86.6567 14.3321L86.6555 14.5898C86.2902 14.5898 85.1496 14.5686 84.8887 14.5686C84.6333 14.5686 83.5454 14.5898 83.1789 14.5898V14.3321C83.6747 14.2107 83.828 13.9589 83.828 13.7153C83.828 13.5085 83.7439 13.2749 83.6424 13.0326L82.9118 11.3662H79.1814L78.5142 13.042C78.4396 13.2319 78.3515 13.5002 78.3515 13.6812C78.3515 13.9607 78.4972 14.1836 79.0563 14.3321V14.5898C78.7239 14.5898 77.8507 14.5686 77.6445 14.5686L76.1953 14.5898L76.1965 14.3321ZM82.5746 10.5761L80.9805 6.85024L79.498 10.5761H82.5746Z" fill="#1D1D1B"/>
<path d="M2.75781 1.42644H25.0936V9.89657C25.0936 13.7775 23.6545 22.0076 14.009 28.1328C14.009 28.1328 3.55775 23.7511 2.75781 9.89657L2.75781 1.42644Z" fill="#A81D28"/>
<path d="M2.71289 1.40273H25.0703V9.87874C25.0703 13.761 23.6296 21.9956 13.9753 28.125C13.9753 28.125 3.51402 23.7405 2.71289 9.87874L2.71289 1.40273Z" stroke="#12110C" stroke-width="0.306667"/>
<path d="M19.6656 12.3118C19.6656 12.3118 19.4665 12.9491 18.5808 12.294L15.5401 12.2203C15.5401 12.2203 15.1419 12.3489 15.0878 11.9308C15.0878 11.9308 15.1607 11.0954 15.1237 11.0222C15.1237 11.0222 15.1419 10.7864 14.7424 10.7864C14.7424 10.7864 14.1281 10.8589 14.1098 10.3129C14.1098 10.3129 14.0025 9.73156 14.8523 9.75093C14.8523 9.75093 15.1237 9.87767 15.1419 9.53164C15.1419 9.53164 15.1061 7.16897 15.1237 6.98854C15.1237 6.98854 15.1965 6.77152 14.7794 6.73439C14.7794 6.73439 14.1827 6.86113 14.1098 6.46261C14.1098 6.46261 14.0741 5.86296 14.4729 5.82584C14.4729 5.82584 14.961 5.86296 15.0513 5.73502C15.0513 5.73502 15.1607 5.80687 15.1419 5.37296L15.1607 4.62641C15.1607 4.62641 15.213 4.42715 15.5213 4.44665C15.5213 4.44665 16.0827 4.48257 16.1562 4.42715C16.1562 4.42715 16.2814 4.26448 16.3183 4.19063C16.3183 4.19063 16.6085 4.173 16.662 4.24605C16.662 4.24605 17.0966 4.53679 18.7434 4.42715C18.7434 4.42715 18.9972 4.42715 19.0501 4.50033C19.0501 4.50033 19.359 4.73605 19.5394 4.48257C19.5394 4.48257 19.8107 4.42715 20.6248 4.44665C20.6248 4.44665 21.5128 4.68183 22.1266 4.173L22.3263 4.20959C22.3263 4.20959 22.5794 4.62641 22.7604 4.50033C22.7604 4.50033 23.3037 4.44665 23.3935 4.55509C23.3935 4.55509 23.5739 4.8258 23.4839 5.53683C23.4839 5.53683 23.3766 5.84467 23.901 5.84467C23.901 5.84467 24.499 5.73502 24.4254 6.29808C24.4254 6.29808 24.5881 6.93432 23.5938 6.84404C23.5938 6.84404 23.4664 7.02567 23.4839 7.15308C23.4839 7.15308 23.4664 9.22326 23.4482 9.46085C23.4482 9.46085 23.4305 9.78819 23.864 9.76922C23.864 9.76922 24.4438 9.73156 24.4631 10.2592C24.4631 10.2592 24.5348 10.9497 23.7013 10.8217C23.7013 10.8217 23.4482 10.8589 23.4105 11.0222L23.3766 11.9308C23.3766 11.9308 23.3935 12.3848 22.8878 12.2752C22.8156 12.2752 20.065 12.3313 19.829 12.2588C19.829 12.2588 19.7009 12.2405 19.6656 12.3118Z" fill="white"/>
<path d="M13.8178 15.3475C13.8178 15.3475 13.9447 15.2938 13.9805 15.2042C13.9805 15.2042 14.3611 15.1669 14.4144 15.1128L15.6097 15.2042C15.6097 15.2042 16.7856 15.2938 17.2925 14.9288C17.2925 14.9288 17.4746 14.9288 17.6014 14.9842C17.6014 14.9842 17.8533 15.0396 17.9256 15.147L18.614 15.1287C18.614 15.1287 19.0122 15.2572 18.9752 15.5119V15.838C18.9752 15.838 18.9025 16.4925 19.0834 16.5297H19.6095C19.6095 16.5297 20.0443 16.7291 19.9896 16.9831C19.9896 16.9831 20.0078 17.3451 19.6284 17.4189C19.6284 17.4189 19.2466 17.5273 19.1214 17.5102C19.1214 17.5102 18.994 17.673 18.9752 17.8728L18.9224 20.2532C18.9224 20.2532 18.8854 20.5074 19.266 20.4713C19.266 20.4713 19.8257 20.4166 19.9896 20.7267C19.9896 20.7267 20.1346 21.2526 19.8451 21.3434L19.6284 21.4513L19.1567 21.5269C19.1567 21.5269 18.9589 21.5433 18.94 21.8883V22.5232C18.94 22.5232 18.9589 22.9609 18.614 22.9609L18.1072 22.9973C18.1072 22.9973 17.9808 23.1047 17.7278 23.0322C17.7278 23.0322 14.6506 23.0881 14.5419 23.0511L14.1796 23.1247C14.1796 23.1247 13.7818 23.488 13.4559 23.2143L13.2027 23.0144C13.2027 23.0144 13.0213 23.0511 12.9502 23.0322C12.8775 23.0144 9.5471 23.0693 9.5471 23.0693C9.5471 23.0693 8.84109 23.143 8.78761 22.9054C8.78761 22.9054 8.69728 21.9797 8.73307 21.8688C8.73307 21.8688 8.73307 21.5976 8.57037 21.5799C8.57037 21.5799 7.86436 21.5433 7.84613 21.4696C7.84613 21.4696 7.46552 21.1985 7.57421 20.9265C7.57421 20.9265 7.70166 20.5616 8.08107 20.5255C8.08107 20.5255 8.66017 20.6176 8.66017 20.4537C8.66017 20.4537 8.69728 20.3446 8.69728 20.1636C8.69728 20.1636 8.73307 18.0002 8.71484 17.8552C8.71484 17.8552 8.76885 17.5827 8.53338 17.5827C8.53338 17.5827 8.28022 17.6547 8.11805 17.5463C8.11805 17.5463 7.68343 17.5646 7.59297 17.2189C7.59297 17.2189 7.5202 17.0014 7.62822 16.818C7.62822 16.818 7.82804 16.4188 8.40713 16.5466C8.40713 16.5466 8.73307 16.6381 8.76885 16.4028L8.75183 15.529C8.75183 15.529 8.67839 15.2938 9.13124 15.1669C9.13124 15.1669 9.71034 15.3297 9.89073 15.0396C9.89073 15.0396 10.0904 14.6386 10.2514 14.9112C10.2514 14.9112 10.5967 15.239 11.5377 15.2042C11.5377 15.2042 13.167 15.0757 13.2027 15.147C13.2027 15.147 13.601 15.2042 13.7091 15.3297L13.8178 15.3475Z" fill="white"/>
<path d="M8.89822 12.3119C8.89822 12.3119 8.69853 12.9492 7.81173 12.2936L4.7715 12.2205C4.7715 12.2205 4.37333 12.3491 4.31866 11.9305C4.31866 11.9305 4.39156 11.0955 4.35391 11.0224C4.35391 11.0224 4.37333 10.7853 3.9745 10.7853C3.9745 10.7853 3.36015 10.8596 3.34245 10.3143C3.34245 10.3143 3.23323 9.73105 4.08372 9.75108C4.08372 9.75108 4.35391 9.87782 4.37333 9.53246C4.37333 9.53246 4.33688 7.17086 4.35391 6.98816C4.35391 6.98816 4.42788 6.77234 4.01148 6.73508C4.01148 6.73508 3.41349 6.86129 3.34245 6.46156C3.34245 6.46156 3.30547 5.86312 3.70311 5.82599C3.70311 5.82599 4.19187 5.86312 4.28287 5.73745C4.28287 5.73745 4.39156 5.80769 4.37333 5.37125L4.39156 4.62723C4.39156 4.62723 4.4461 4.4273 4.75208 4.4456C4.75208 4.4456 5.31481 4.48152 5.38758 4.4273C5.38758 4.4273 5.51397 4.26464 5.54855 4.19078C5.54855 4.19078 5.8399 4.17369 5.89391 4.24447C5.89391 4.24447 6.32734 4.53695 7.97603 4.4273C7.97603 4.4273 8.22799 4.4273 8.28267 4.50049C8.28267 4.50049 8.58985 4.73621 8.77077 4.48152C8.77077 4.48152 9.04216 4.4273 9.85726 4.4456C9.85726 4.4456 10.7425 4.68145 11.3587 4.17369L11.5572 4.21095C11.5572 4.21095 11.8103 4.62723 11.993 4.50049C11.993 4.50049 12.5351 4.4456 12.6261 4.55524C12.6261 4.55524 12.8076 4.82769 12.7154 5.53698C12.7154 5.53698 12.6079 5.84536 13.1324 5.84536C13.1324 5.84536 13.7291 5.73745 13.6575 6.29823C13.6575 6.29823 13.8207 6.93447 12.8252 6.84419C12.8252 6.84419 12.6978 7.02636 12.7154 7.15323C12.7154 7.15323 12.6978 9.22342 12.6801 9.46101C12.6801 9.46101 12.6625 9.78594 13.0966 9.76938C13.0966 9.76938 13.6757 9.73105 13.6933 10.26C13.6933 10.26 13.7655 10.9498 12.9338 10.8219C12.9338 10.8219 12.6801 10.8596 12.6431 11.0224L12.6079 11.9305C12.6079 11.9305 12.6261 12.385 12.118 12.2765C12.0458 12.2765 9.29652 12.3302 9.06025 12.2589C9.06025 12.2589 8.934 12.2406 8.89822 12.3119Z" fill="white"/>
<path d="M19.6656 12.3118C19.6656 12.3118 19.4665 12.9491 18.5808 12.294L15.5401 12.2203C15.5401 12.2203 15.1419 12.3489 15.0878 11.9308C15.0878 11.9308 15.1607 11.0954 15.1237 11.0222C15.1237 11.0222 15.1419 10.7864 14.7424 10.7864C14.7424 10.7864 14.1281 10.8589 14.1098 10.3129C14.1098 10.3129 14.0025 9.73156 14.8523 9.75093C14.8523 9.75093 15.1237 9.87767 15.1419 9.53164C15.1419 9.53164 15.1061 7.16897 15.1237 6.98854C15.1237 6.98854 15.1965 6.77152 14.7794 6.73439C14.7794 6.73439 14.1827 6.86113 14.1098 6.46261C14.1098 6.46261 14.0741 5.86296 14.4729 5.82584C14.4729 5.82584 14.961 5.86296 15.0513 5.73502C15.0513 5.73502 15.1607 5.80687 15.1419 5.37296L15.1607 4.62641C15.1607 4.62641 15.213 4.42715 15.5213 4.44665C15.5213 4.44665 16.0827 4.48257 16.1562 4.42715C16.1562 4.42715 16.2814 4.26448 16.3183 4.19063C16.3183 4.19063 16.6085 4.173 16.662 4.24605C16.662 4.24605 17.0966 4.53679 18.7434 4.42715C18.7434 4.42715 18.9972 4.42715 19.0501 4.50033C19.0501 4.50033 19.359 4.73605 19.5394 4.48257C19.5394 4.48257 19.8107 4.42715 20.6248 4.44665C20.6248 4.44665 21.5128 4.68183 22.1266 4.173L22.3263 4.20959C22.3263 4.20959 22.5794 4.62641 22.7604 4.50033C22.7604 4.50033 23.3037 4.44665 23.3935 4.55509C23.3935 4.55509 23.5739 4.8258 23.4839 5.53683C23.4839 5.53683 23.3766 5.84467 23.901 5.84467C23.901 5.84467 24.499 5.73502 24.4254 6.29808C24.4254 6.29808 24.5881 6.93432 23.5938 6.84404C23.5938 6.84404 23.4664 7.02567 23.4839 7.15308C23.4839 7.15308 23.4664 9.22326 23.4482 9.46085C23.4482 9.46085 23.4305 9.78819 23.864 9.76922C23.864 9.76922 24.4438 9.73156 24.4631 10.2592C24.4631 10.2592 24.5348 10.9497 23.7013 10.8217C23.7013 10.8217 23.4482 10.8589 23.4105 11.0222L23.3766 11.9308C23.3766 11.9308 23.3935 12.3848 22.8878 12.2752C22.8156 12.2752 20.065 12.3313 19.829 12.2588C19.829 12.2588 19.7009 12.2405 19.6656 12.3118Z" fill="#12110C"/>
<path d="M19.6642 12.3117C19.6642 12.3117 19.465 12.9491 18.5794 12.2941L15.538 12.2203C15.538 12.2203 15.1398 12.3488 15.0858 11.9303C15.0858 11.9303 15.1593 11.0948 15.1216 11.0216C15.1216 11.0216 15.1398 10.7857 14.741 10.7857C14.741 10.7857 14.1261 10.8589 14.1079 10.3128C14.1079 10.3128 14.0004 9.73146 14.8502 9.7503C14.8502 9.7503 15.1216 9.87717 15.1398 9.53167C15.1398 9.53167 15.1041 7.16887 15.1216 6.98791C15.1216 6.98791 15.1951 6.77035 14.778 6.73376C14.778 6.73376 14.1807 6.86063 14.1079 6.46198C14.1079 6.46198 14.0726 5.86166 14.4708 5.8252C14.4708 5.8252 14.9589 5.86166 15.0495 5.73439C15.0495 5.73439 15.1593 5.80624 15.1398 5.37166L15.1593 4.62524C15.1593 4.62524 15.2109 4.42598 15.5205 4.44548C15.5205 4.44548 16.0813 4.48141 16.1542 4.42598C16.1542 4.42598 16.2794 4.26385 16.3169 4.19C16.3169 4.19 16.6065 4.17183 16.6606 4.24502C16.6606 4.24502 17.0946 4.53563 18.742 4.42598C18.742 4.42598 18.9958 4.42598 19.0486 4.49903C19.0486 4.49903 19.3576 4.73489 19.5379 4.48141C19.5379 4.48141 19.8093 4.42598 20.6234 4.44548C20.6234 4.44548 21.5114 4.68066 22.1257 4.17183L22.3255 4.20776C22.3255 4.20776 22.5786 4.62524 22.759 4.49903C22.759 4.49903 23.3023 4.44548 23.3921 4.55326C23.3921 4.55326 23.573 4.82517 23.4832 5.535C23.4832 5.535 23.3752 5.84404 23.9001 5.84404C23.9001 5.84404 24.4976 5.73439 24.424 6.29691C24.424 6.29691 24.5867 6.93369 23.5924 6.84287C23.5924 6.84287 23.4655 7.0245 23.4832 7.15244C23.4832 7.15244 23.4655 9.22263 23.4473 9.45969C23.4473 9.45969 23.4291 9.78689 23.8631 9.76926C23.8631 9.76926 24.4434 9.73146 24.4622 10.2586C24.4622 10.2586 24.5334 10.9491 23.7004 10.8211C23.7004 10.8211 23.4473 10.8589 23.4098 11.0216L23.3752 11.9303C23.3752 11.9303 23.3921 12.3849 22.8871 12.2752C22.8148 12.2752 20.0636 12.3307 19.8276 12.2581C19.8276 12.2581 19.6994 12.2404 19.6642 12.3117Z" stroke="#12110C" stroke-width="0.0133333"/>
<path d="M16.2435 4.82561C16.2435 4.82561 16.2792 5.18941 16.2792 5.28143C16.2792 5.37157 16.2259 10.531 16.2259 10.531C16.2259 10.531 16.2792 10.9307 15.9368 11.1311C15.9368 11.1311 15.8452 11.1665 15.8281 10.9124L15.8635 5.46359C15.8635 5.46359 15.8998 4.78955 16.2435 4.82561Z" fill="white"/>
<path d="M16.2452 4.825C16.2452 4.825 16.2804 5.18879 16.2804 5.28081C16.2804 5.37149 16.2276 10.5315 16.2276 10.5315C16.2276 10.5315 16.2804 10.9313 15.938 11.1311C15.938 11.1311 15.8464 11.1671 15.8281 10.913L15.8646 5.46297C15.8646 5.46297 15.9004 4.78894 16.2452 4.825Z" stroke="#12110C" stroke-width="0.016"/>
<path d="M15.6481 11.1865C15.6481 11.1865 15.6841 6.06315 15.667 5.97234C15.6481 5.88273 15.6841 6.04659 15.6841 6.04659C15.6841 6.04659 15.6299 5.155 15.8655 4.79067C15.8655 4.79067 15.7921 4.4835 15.3762 4.86439L15.358 5.60841C15.358 5.60841 15.358 6.02709 14.9786 6.0088C14.9786 6.0088 14.544 5.98997 14.3448 6.18989C14.3448 6.18989 14.2363 6.59015 14.652 6.5183C14.652 6.5183 15.304 6.5183 15.3404 6.78887L15.304 9.5331C15.304 9.5331 15.449 9.98945 14.9428 9.98945C14.9428 9.98945 14.3255 9.95058 14.3448 10.3321C14.3448 10.3321 14.4723 10.6587 14.9968 10.5508C14.9968 10.5508 15.3762 10.6221 15.358 10.9871V11.677C15.358 11.677 15.3215 11.9512 15.6841 11.9683H18.5073C18.5073 11.9683 18.6513 11.9859 18.6513 11.8043C18.6513 11.8043 18.6337 11.6594 18.4168 11.6594L16.0645 11.6228C16.0645 11.6228 15.6841 11.7507 15.6481 11.1865Z" fill="white"/>
<path d="M16.1905 11.177C16.1905 11.177 16.1177 11.4311 16.389 11.378H18.2533L18.759 11.4883C18.759 11.4883 19.2836 11.3598 18.759 11.0696C18.759 11.0696 17.0945 11.0862 16.95 11.0508C16.95 11.0508 16.6058 10.9605 16.5317 10.9423C16.5317 10.9423 16.3527 10.8698 16.1905 11.177Z" fill="white"/>
<path d="M16.1905 11.1764C16.1905 11.1764 16.1177 11.4311 16.389 11.3781H18.2539L18.7597 11.4883C18.7597 11.4883 19.2846 11.3593 18.7597 11.0685C18.7597 11.0685 17.095 11.085 16.9499 11.0502C16.9499 11.0502 16.6058 10.9594 16.5324 10.9411C16.5324 10.9411 16.3527 10.8686 16.1905 11.1764Z" stroke="#12110C" stroke-width="0.016"/>
<path d="M19.2836 11.4316C19.2836 11.4316 18.94 11.4316 18.9577 11.8867C18.9577 11.8867 18.994 12.2305 19.3559 12.2305C19.3559 12.2305 19.6806 12.1769 19.646 11.8137C19.646 11.8137 19.4463 11.3596 19.2836 11.4316Z" fill="white"/>
<path d="M19.539 11.2521C19.539 11.2521 19.7017 11.0712 19.811 11.0712C19.811 11.0712 21.6206 11.2338 21.9261 11.0163C21.9261 11.0163 22.1992 10.962 22.272 11.0163C22.272 11.0163 22.5428 11.2338 22.5428 11.3612C22.5428 11.3612 22.5251 11.5256 22.1992 11.4326C22.1992 11.4326 20.1541 11.4526 20.0454 11.4526C20.0454 11.4526 19.4833 11.5788 19.539 11.2521Z" fill="white"/>
<path d="M19.5371 11.2516C19.5371 11.2516 19.6998 11.07 19.809 11.07C19.809 11.07 21.6192 11.2328 21.9253 11.0151C21.9253 11.0151 22.1983 10.9609 22.2712 11.0151C22.2712 11.0151 22.5419 11.2328 22.5419 11.3613C22.5419 11.3613 22.5244 11.5258 22.1983 11.4326C22.1983 11.4326 20.1521 11.4526 20.0434 11.4526C20.0434 11.4526 19.4813 11.5788 19.5371 11.2516Z" stroke="#12110C" stroke-width="0.016"/>
<path d="M19.7734 11.8393C19.7734 11.8393 19.7734 11.6924 20.0271 11.6924L22.5598 11.6747C22.5598 11.6747 22.796 11.8021 22.796 11.3669C22.796 11.3669 22.8887 9.38645 22.8969 7.20595C22.8999 6.55675 22.9293 5.87577 22.9064 5.24474C22.9064 5.24474 22.85 4.97176 22.7772 4.91633C22.7772 4.91633 22.7772 4.62626 23.0855 4.73537C23.0855 4.73537 23.3568 4.75367 23.2846 5.17289L23.3034 5.80606C23.3034 5.80606 23.2488 6.08024 23.7363 6.00665C23.7363 6.00665 24.2244 6.08024 24.2438 6.26067C24.2438 6.26067 24.3883 6.62566 23.8102 6.58854H23.3921C23.3921 6.58854 23.2118 6.69711 23.2658 6.91587L23.2118 9.55085C23.2118 9.55085 23.1754 10.0043 23.61 9.98717C23.61 9.98717 24.0617 9.96833 24.1527 10.114C24.1527 10.114 24.4622 10.568 23.7915 10.5315C23.7915 10.5315 23.3751 10.5126 23.2846 10.5863C23.2846 10.5863 23.2118 10.6764 23.1577 11.5314C23.1577 11.5314 23.1947 12.0403 22.8141 11.9843C22.8141 11.9843 20.298 12.0202 20.0631 11.9667C20.0631 11.9667 19.8099 12.0403 19.7734 11.8393Z" fill="white"/>
<path d="M16.5157 4.66094L16.461 10.4948C16.461 10.4948 16.4435 10.7655 16.8958 10.8202C16.8958 10.8202 17.4202 10.8744 17.5459 10.8202C17.5459 10.8202 17.8919 10.8014 18.777 10.8385C18.777 10.8385 18.9955 11.0585 19.0137 10.7838C19.0137 10.7838 19.157 6.0619 19.0866 5.07843C19.0866 5.07843 19.0666 4.66094 18.76 4.64265C18.76 4.64265 17.3844 4.75416 17.2576 4.64265L16.7143 4.49881C16.7143 4.49881 16.4969 4.51644 16.5157 4.66094Z" fill="white"/>
<path d="M19.3756 4.95123C19.3756 4.95123 19.3216 7.69479 19.3397 7.78561L19.3039 10.0923L19.2305 10.8924C19.2305 10.8924 19.3397 11.0556 19.4303 10.9472C19.4303 10.9472 20.0094 10.7997 20.3711 10.857C20.3711 10.857 21.5306 10.9649 21.7649 10.7821C21.7649 10.7821 21.9464 10.8729 21.9993 10.5822C21.9993 10.5822 22.0709 5.49666 22.0375 5.40584C22.0375 5.40584 22.1073 4.67705 22.0709 4.60627C22.0709 4.60627 22.055 4.44294 21.7467 4.58744C21.7467 4.58744 21.7819 4.73368 20.0639 4.67705C20.0639 4.67705 19.4126 4.65929 19.3756 4.95123Z" fill="white"/>
<path d="M22.2519 4.88102L22.2344 10.6211C22.2344 10.6211 22.3788 11.1316 22.6138 11.0781C22.6138 11.0781 22.649 10.9678 22.6666 10.7862L22.74 5.3168C22.74 5.3168 22.5579 4.44644 22.2519 4.88102Z" fill="white"/>
<path d="M22.2519 4.8798L22.2344 10.6211C22.2344 10.6211 22.3794 11.1318 22.6143 11.0781C22.6143 11.0781 22.6502 10.9678 22.6678 10.7861L22.7406 5.31558C22.7406 5.31558 22.5586 4.44522 22.2519 4.8798Z" stroke="#12110C" stroke-width="0.016"/>
<path d="M20.03 6.59876C19.976 6.45372 20.3377 6.43542 20.3377 6.43542L20.5193 6.47135C20.6462 6.45372 20.773 6.50848 20.773 6.50848C20.8994 6.70787 20.682 6.81631 20.682 6.81631L20.6098 7.05337C20.591 7.25383 20.6098 8.97972 20.6098 8.97972C20.6462 9.06933 20.7907 9.23213 20.7907 9.23213C20.7907 9.39654 20.591 9.36061 20.591 9.36061L20.067 9.37891C19.9038 9.36061 19.9578 9.17831 19.9578 9.17831C20.1387 9.08763 20.1934 8.75976 20.1934 8.75976V6.96202L20.03 6.59876Z" fill="#12110C"/>
<path d="M17.5878 8.28859L17.552 8.85164L17.7135 9.12356C17.8234 9.26859 17.6418 9.37891 17.6418 9.37891L17.0627 9.32455C16.9552 9.26859 17.0627 9.0875 17.0627 9.0875C17.2079 8.99802 17.226 8.76029 17.226 8.76029L17.2079 7.7067L17.226 6.94372C17.226 6.85224 17.0815 6.69011 17.0815 6.69011C16.9552 6.67181 16.991 6.50848 16.991 6.50848C17.0269 6.41713 17.3334 6.47135 17.3334 6.47135H18.0947C18.8189 6.70787 18.7102 7.23486 18.7102 7.23486C18.7649 7.76093 18.2039 7.98022 18.2039 7.98022L18.1664 8.27096L18.692 9.10526C18.7824 9.17831 18.7649 9.25203 18.7649 9.25203C18.692 9.45196 18.4018 9.25203 18.4018 9.25203L17.7512 8.23383C17.6965 8.16065 17.5878 8.28859 17.5878 8.28859ZM17.606 6.85224C17.6236 7.25316 17.6236 7.79805 17.6236 7.79805C17.9684 8.07103 18.1664 7.68841 18.1664 7.68841C18.618 7.25316 18.1664 6.85224 18.0947 6.74433C18.0212 6.63468 17.6595 6.7255 17.6595 6.7255L17.606 6.85224Z" fill="#12110C"/>
<path d="M13.8178 15.3475C13.8178 15.3475 13.9447 15.2938 13.9805 15.2042C13.9805 15.2042 14.3611 15.1669 14.4144 15.1128L15.6097 15.2042C15.6097 15.2042 16.7856 15.2938 17.2925 14.9288C17.2925 14.9288 17.4746 14.9288 17.6014 14.9842C17.6014 14.9842 17.8533 15.0396 17.9256 15.147L18.614 15.1287C18.614 15.1287 19.0122 15.2572 18.9752 15.5119V15.838C18.9752 15.838 18.9025 16.4925 19.0834 16.5297H19.6095C19.6095 16.5297 20.0443 16.7291 19.9896 16.9831C19.9896 16.9831 20.0078 17.3451 19.6284 17.4189C19.6284 17.4189 19.2466 17.5273 19.1214 17.5102C19.1214 17.5102 18.994 17.673 18.9752 17.8728L18.9224 20.2532C18.9224 20.2532 18.8854 20.5074 19.266 20.4713C19.266 20.4713 19.8257 20.4166 19.9896 20.7267C19.9896 20.7267 20.1346 21.2526 19.8451 21.3434L19.6284 21.4513L19.1567 21.5269C19.1567 21.5269 18.9589 21.5433 18.94 21.8883V22.5232C18.94 22.5232 18.9589 22.9609 18.614 22.9609L18.1072 22.9973C18.1072 22.9973 17.9808 23.1047 17.7278 23.0322C17.7278 23.0322 14.6506 23.0881 14.5419 23.0511L14.1796 23.1247C14.1796 23.1247 13.7818 23.488 13.4559 23.2143L13.2027 23.0144C13.2027 23.0144 13.0213 23.0511 12.9502 23.0322C12.8775 23.0144 9.5471 23.0693 9.5471 23.0693C9.5471 23.0693 8.84109 23.143 8.78761 22.9054C8.78761 22.9054 8.69728 21.9797 8.73307 21.8688C8.73307 21.8688 8.73307 21.5976 8.57037 21.5799C8.57037 21.5799 7.86436 21.5433 7.84613 21.4696C7.84613 21.4696 7.46552 21.1985 7.57421 20.9265C7.57421 20.9265 7.70166 20.5616 8.08107 20.5255C8.08107 20.5255 8.66017 20.6176 8.66017 20.4537C8.66017 20.4537 8.69728 20.3446 8.69728 20.1636C8.69728 20.1636 8.73307 18.0002 8.71484 17.8552C8.71484 17.8552 8.76885 17.5827 8.53338 17.5827C8.53338 17.5827 8.28022 17.6547 8.11805 17.5463C8.11805 17.5463 7.68343 17.5646 7.59297 17.2189C7.59297 17.2189 7.5202 17.0014 7.62822 16.818C7.62822 16.818 7.82804 16.4188 8.40713 16.5466C8.40713 16.5466 8.73307 16.6381 8.76885 16.4028L8.75183 15.529C8.75183 15.529 8.67839 15.2938 9.13124 15.1669C9.13124 15.1669 9.71034 15.3297 9.89073 15.0396C9.89073 15.0396 10.0904 14.6386 10.2514 14.9112C10.2514 14.9112 10.5967 15.239 11.5377 15.2042C11.5377 15.2042 13.167 15.0757 13.2027 15.147C13.2027 15.147 13.601 15.2042 13.7091 15.3297L13.8178 15.3475Z" fill="#12110C"/>
<path d="M13.8184 15.3238C13.8184 15.3238 13.944 15.2708 13.9811 15.18C13.9811 15.18 14.3611 15.1428 14.4151 15.0885L15.6098 15.18C15.6098 15.18 16.7863 15.2708 17.2931 14.9058C17.2931 14.9058 17.4752 14.9058 17.602 14.9612C17.602 14.9612 17.8547 15.016 17.9257 15.1233L18.6152 15.1056C18.6152 15.1056 19.0129 15.2342 18.9759 15.4882V15.815C18.9759 15.815 18.9036 16.4694 19.0846 16.5055H19.6102C19.6102 16.5055 20.0443 16.7059 19.9908 16.9601C19.9908 16.9601 20.009 17.3221 19.6291 17.3959C19.6291 17.3959 19.2479 17.5043 19.1227 17.4865C19.1227 17.4865 18.9953 17.6499 18.9759 17.8498L18.9224 20.2308C18.9224 20.2308 18.8861 20.4837 19.266 20.4483C19.266 20.4483 19.8264 20.3948 19.9908 20.703C19.9908 20.703 20.1359 21.2296 19.8463 21.3209L19.6291 21.4295L19.1573 21.5032C19.1573 21.5032 18.9588 21.5209 18.9413 21.8646V22.5021C18.9413 22.5021 18.9588 22.9377 18.6152 22.9377L18.1084 22.9743C18.1084 22.9743 17.9814 23.0829 17.7284 23.0104C17.7284 23.0104 14.6512 23.0651 14.5425 23.0275L14.1796 23.1011C14.1796 23.1011 13.7825 23.4649 13.4566 23.1907L13.2029 22.9907C13.2029 22.9907 13.0219 23.0275 12.9504 23.0104C12.8775 22.9907 9.54775 23.0468 9.54775 23.0468C9.54775 23.0468 8.8412 23.12 8.78719 22.883C8.78719 22.883 8.69726 21.956 8.73305 21.8463C8.73305 21.8463 8.73305 21.5751 8.56981 21.5568C8.56981 21.5568 7.86447 21.5209 7.84571 21.4477C7.84571 21.4477 7.46563 21.1748 7.57419 20.9029C7.57419 20.9029 7.70163 20.5386 8.08171 20.5019C8.08171 20.5019 8.66028 20.5952 8.66028 20.4294C8.66028 20.4294 8.69726 20.3209 8.69726 20.1405C8.69726 20.1405 8.73305 17.9772 8.71549 17.832C8.71549 17.832 8.7695 17.5585 8.53336 17.5585C8.53336 17.5585 8.28033 17.631 8.1175 17.5231C8.1175 17.5231 7.68354 17.5409 7.59308 17.1959C7.59308 17.1959 7.51964 16.9784 7.62886 16.7955C7.62886 16.7955 7.82748 16.3957 8.40711 16.5231C8.40711 16.5231 8.73305 16.6151 8.7695 16.3793L8.75127 15.506C8.75127 15.506 8.6785 15.2708 9.13135 15.1428C9.13135 15.1428 9.71045 15.3067 9.89137 15.016C9.89137 15.016 10.0899 14.6157 10.252 14.887C10.252 14.887 10.5974 15.2148 11.5377 15.18C11.5377 15.18 13.1676 15.0514 13.2029 15.1233C13.2029 15.1233 13.6017 15.18 13.7097 15.3067L13.8184 15.3238Z" stroke="#12110C" stroke-width="0.0133333"/>
<path d="M14.2889 22.4866C14.2889 22.4866 14.5068 22.3763 14.6519 22.4141C14.797 22.4501 16.9138 22.3963 16.9138 22.3963C16.9138 22.3963 17.8365 22.4683 17.9822 22.3397L18.1977 22.2678C18.1977 22.2678 18.2887 22.1594 18.2887 22.0149C18.2887 21.8681 18.3069 21.3775 18.3069 21.3775L18.3621 21.1972C18.3621 21.1972 18.3434 21.0154 18.3621 16.1633C18.3621 16.1633 18.4332 15.7836 18.1977 15.546C18.1977 15.546 18.1977 15.4021 18.2699 15.4193C18.3434 15.4388 18.3069 15.4388 18.3069 15.4388C18.3069 15.4388 18.6323 15.3461 18.6858 15.4734C18.6858 15.4734 18.832 15.908 18.7046 16.1633C18.7046 16.1633 18.6681 16.691 18.9419 16.691C18.9419 16.691 19.0487 16.8008 19.2661 16.7453C19.2661 16.7453 19.7365 16.8008 19.7365 16.9446C19.7365 16.9446 19.7365 17.273 19.4106 17.2182L18.9754 17.2535C18.9754 17.2535 18.6858 17.3096 18.7228 17.6535C18.7598 17.9989 18.7046 20.47 18.7046 20.47C18.7046 20.47 18.7046 20.7619 19.1581 20.7436C19.1581 20.7436 19.7184 20.7248 19.7184 20.8875C19.7184 20.8875 19.8628 21.2507 19.4653 21.2697C19.4653 21.2697 18.7046 21.2507 18.7598 21.4683C18.7598 21.4683 18.7046 21.9783 18.6681 22.0679C18.6681 22.0679 18.7422 22.4866 18.65 22.5598C18.65 22.5598 18.5965 22.795 18.1084 22.759C18.1084 22.759 14.9961 22.7413 14.5068 22.7773C14.5068 22.7773 14.2167 22.7413 14.2889 22.4866Z" fill="white"/>
<path d="M13.7306 22.1429C13.7306 22.1429 14.0377 22.1966 14.0377 22.4879C14.0377 22.7779 14.056 22.9418 13.874 22.9779C13.6936 23.0143 13.4951 22.9608 13.4416 22.7248C13.3859 22.4879 13.4762 22.1966 13.7306 22.1429Z" fill="white"/>
<path d="M14.0896 21.9968C14.0896 21.9968 14.415 21.7774 14.5418 21.8153C14.5418 21.8153 16.1882 21.9231 16.6963 21.834C17.2025 21.7427 16.8948 21.8153 16.8948 21.8153C16.8948 21.8153 17.3295 21.8153 17.4551 21.6507C17.4551 21.6507 17.5825 21.6158 17.6548 21.7427L17.925 22.0345C17.925 22.0345 17.9455 22.2144 17.6366 22.1961C17.6366 22.1961 14.6857 22.1961 14.5965 22.2144C14.5965 22.2144 14.0356 22.304 14.0896 21.9968Z" fill="white"/>
<path d="M14.0896 21.9962C14.0896 21.9962 14.415 21.7768 14.5418 21.814C14.5418 21.814 16.1894 21.9225 16.6968 21.8334C17.2038 21.7415 16.8953 21.814 16.8953 21.814C16.8953 21.814 17.3306 21.814 17.4563 21.6488C17.4563 21.6488 17.5832 21.6148 17.656 21.7415L17.9262 22.0339C17.9262 22.0339 17.9461 22.2144 17.6378 22.1955C17.6378 22.1955 14.6869 22.1955 14.5965 22.2144C14.5965 22.2144 14.0356 22.304 14.0896 21.9962Z" stroke="#12110C" stroke-width="0.016"/>
<path d="M9.80186 15.5463C9.80186 15.5463 9.92877 15.5463 9.91041 15.7645L9.87356 21.251C9.87356 21.251 9.92877 21.6153 9.62093 21.8506C9.62093 21.8506 9.45703 22.0499 9.45703 21.7422L9.531 16.1459C9.531 16.1459 9.54816 15.7278 9.80186 15.5463Z" fill="white"/>
<path d="M9.80305 15.5451C9.80305 15.5451 9.92997 15.5451 9.91281 15.7632L9.87476 21.251C9.87476 21.251 9.92997 21.6153 9.62159 21.8506C9.62159 21.8506 9.45703 22.0499 9.45703 21.7421L9.53113 16.1453C9.53113 16.1453 9.54869 15.7266 9.80305 15.5451Z" stroke="#12110C" stroke-width="0.016"/>
<path d="M9.51205 15.5827C9.51205 15.5827 9.29467 15.9831 9.31289 16.0746L9.29467 17.2903C9.29467 17.2903 9.27644 18.0716 9.29467 18.163C9.31289 18.2532 9.27644 20.5429 9.27644 20.5429C9.27644 20.5429 9.25835 20.9778 9.27644 21.1241V22.1047C9.27644 22.1047 9.24012 22.5416 9.56552 22.4307C9.56552 22.4307 12.7513 22.3589 12.951 22.4142C12.951 22.4142 13.2394 22.468 13.1324 22.6136C13.1324 22.6136 13.1324 22.7417 12.9316 22.7044C12.9316 22.7044 11.4297 22.8488 10.0729 22.7952C10.0729 22.7952 9.16789 22.8488 9.11268 22.7417C9.11268 22.7417 8.96873 22.7232 8.96873 22.1956C8.96873 22.1956 8.96873 21.7062 8.93348 21.6153C8.93348 21.6153 8.96873 21.3577 8.51655 21.3052C8.51655 21.3052 7.88331 21.4148 7.86508 21.0334C7.86508 21.0334 7.95502 20.7609 8.5711 20.7963C8.5711 20.7963 9.02341 20.8694 8.93348 20.5051L8.98696 17.818C8.98696 17.818 9.0427 17.3435 8.7338 17.3245C8.7338 17.3245 8.44538 17.3098 8.35319 17.3435C8.35319 17.3435 7.82877 17.3435 7.86508 17.0368C7.86508 17.0368 8.04601 16.709 8.5711 16.782C8.5711 16.782 8.96873 16.8541 8.98696 16.4011C8.98696 16.4011 8.96873 15.4738 9.18545 15.4384C9.18545 15.4384 9.63896 15.4548 9.51205 15.5827Z" fill="white"/>
<path d="M10.0543 21.597C10.0543 21.597 10.308 21.8683 10.725 21.8524L13.1842 21.8878C13.1842 21.8878 13.4574 21.9071 13.4403 22.051C13.4403 22.051 13.4015 22.2687 13.0773 22.1961L10.1088 22.1602L9.78236 22.1801C9.78236 22.1801 9.56498 22.1425 9.91034 21.725L10.0543 21.597Z" fill="white"/>
<path d="M10.054 21.5956C10.054 21.5956 10.3078 21.8673 10.7254 21.8508L13.1852 21.8868C13.1852 21.8868 13.4577 21.9057 13.4413 22.05C13.4413 22.05 13.4031 22.2683 13.0789 22.1964L10.1087 22.1604L9.78208 22.1792C9.78208 22.1792 9.56537 22.1422 9.91006 21.7235L10.054 21.5956Z" stroke="#12110C" stroke-width="0.016"/>
<path d="M17.6562 21.3572C17.6562 21.3572 17.8735 21.7758 17.9822 21.833C17.9822 21.833 18.1813 22.0671 18.1273 21.6496L18.1631 16.4167C18.1631 16.4167 18.1084 16.2345 18.1631 15.945L17.9464 15.5451C17.9464 15.5451 17.7103 15.3636 17.7103 15.6537L17.6745 21.2322L17.6562 21.3572Z" fill="white"/>
<path d="M17.6562 21.3609C17.6562 21.3609 17.8742 21.779 17.9834 21.8368C17.9834 21.8368 18.1825 22.0714 18.1285 21.6529L18.1643 16.4186C18.1643 16.4186 18.1096 16.2376 18.1643 15.9481L17.9471 15.5478C17.9471 15.5478 17.7103 15.3667 17.7103 15.6568L17.6745 21.2358L17.6562 21.3609Z" stroke="#12110C" stroke-width="0.016"/>
<path d="M13.6388 18.8723C13.6388 18.8723 13.657 19.3068 13.6018 19.7238C13.5724 19.9543 13.6751 21.0156 13.5836 21.5599C13.5836 21.5599 13.5671 21.742 13.1853 21.5794C13.1853 21.5794 10.8694 21.6329 10.7972 21.5599C10.7972 21.5599 10.1641 21.5794 10.1094 21.2515C10.1094 21.2515 10.1998 18.7626 10.1458 18.6701C10.1458 18.6701 10.1094 17.308 10.1458 17.1812C10.1458 17.1812 10.1998 15.9277 10.1641 15.7825C10.1641 15.7825 10.1823 15.4918 10.1276 15.3457C10.1276 15.3457 10.1276 15.1641 10.436 15.2726C10.436 15.2726 10.5429 15.4731 11.1408 15.384C11.1408 15.384 11.5759 15.456 11.9925 15.4011C11.9925 15.4011 12.9145 15.3286 13.1507 15.4011C13.1507 15.4011 13.5131 15.3286 13.6199 15.7295L13.6018 16.8551L13.7098 17.2184L13.8373 17.1281L13.8907 16.8551L13.909 15.6558C13.909 15.6558 13.9812 15.437 14.2719 15.4011C14.2719 15.4011 14.7242 15.3457 14.7976 15.384C14.8699 15.4189 15.8454 15.4731 16.1185 15.4189C16.3892 15.3645 16.4427 15.6004 17.2586 15.1836C17.2586 15.1836 17.4759 15.2019 17.4759 15.3457C17.4759 15.3457 17.4019 16.8924 17.4759 17.1812C17.4759 17.1812 17.4759 20.0151 17.4195 20.215L17.4564 21.1234C17.4564 21.1234 17.4924 21.5234 16.8603 21.5599C16.8603 21.5599 17.2586 21.6146 14.7594 21.5421C14.7594 21.5421 14.3618 21.5234 13.9277 21.7227C13.9277 21.7227 13.8373 21.7049 13.8373 21.469C13.8373 21.469 13.909 20.6159 13.8373 19.7785L13.8021 18.8524L13.6388 18.8723Z" fill="white"/>
<path d="M12.0085 17.5843C12.0085 17.5843 12.0631 18.9282 12.0085 19.1097L11.9914 19.4011C11.9914 19.4011 12.0631 19.5997 12.1718 19.6734C12.1718 19.6734 12.2628 19.9269 12.0449 19.9093C12.0449 19.9093 11.5933 19.8727 11.4846 19.8899C11.4846 19.8899 11.2302 19.8899 11.4846 19.5648C11.4846 19.5648 11.575 19.4357 11.5563 19.1097C11.5563 19.1097 11.5563 17.5843 11.5933 17.4941C11.5933 17.4941 11.629 17.293 11.5021 17.2382L11.2842 17.2571L11.014 17.5112C11.014 17.5112 10.9588 17.7849 10.832 17.4941V17.3474L10.9959 16.9116L11.1046 16.8926C11.1046 16.8926 11.2667 17.0019 11.4111 17.0395H12.2628L12.57 16.8926C12.57 16.8926 12.6962 16.9116 12.6616 17.0749C12.6616 17.0749 12.7145 17.4941 12.4795 17.5473C12.4795 17.5473 12.3345 17.4941 12.2628 17.293C12.2628 17.293 12.0273 17.1669 12.0085 17.5843Z" fill="#12110C"/>
<path d="M16.009 17.0924C16.009 17.0924 15.3224 17.0375 15.3054 17.7822C15.3054 17.7822 15.2308 18.2923 15.992 18.6196C15.992 18.6196 16.5535 18.8908 16.5159 19.2358C16.5159 19.2358 16.4437 19.8537 15.8463 19.5452C15.8463 19.5452 15.5574 19.399 15.5767 19.2358C15.5767 19.2358 15.4846 19.0353 15.3765 19.0723C15.3765 19.0723 15.249 19.1079 15.3054 19.708C15.3054 19.708 15.3054 19.9444 15.5767 19.708L15.7194 19.7452C15.7194 19.7452 16.2087 20.1449 16.6241 19.6533C16.6241 19.6533 17.0774 19.2358 16.7508 18.7275C16.7508 18.7275 16.5159 18.3654 16.1002 18.1833C16.1002 18.1833 15.7019 17.9999 15.6121 17.6914C15.6121 17.6914 15.7388 17.1454 16.2264 17.4362C16.2264 17.4362 16.4079 17.6544 16.5159 17.6914C16.5159 17.6914 16.661 17.6914 16.6241 17.363L16.5899 17.0924C16.5899 17.0924 16.5535 16.8901 16.2992 17.0924C16.2992 17.0924 16.0637 17.182 16.009 17.0924Z" fill="#12110C"/>
<path d="M13.8001 16.7079C13.9264 16.8004 13.9446 16.9815 13.9446 16.9815C14.3064 17.9437 14.6148 19.344 14.6148 19.344C14.7046 19.5239 14.868 19.6702 14.868 19.6702C15.1757 19.7786 14.868 19.8689 14.868 19.8689C14.7411 19.9243 14.3259 19.8523 14.3259 19.8523C14.1073 19.8135 14.1972 19.7427 14.1972 19.7427C14.2887 19.6519 14.216 19.2874 14.216 19.2874C14.1972 19.1436 14.0357 18.9067 14.0357 18.9067C13.9635 18.8699 13.8366 19.0334 13.8366 19.0334C13.8366 19.0334 13.6381 19.1065 13.6186 19.0334C13.6004 18.9595 13.4742 18.8908 13.4742 18.8908C13.2568 18.8908 13.167 19.4325 13.167 19.4325C13.2932 19.8872 13.167 19.8135 13.167 19.8135C13.059 19.9604 12.7141 19.8523 12.7141 19.8523C12.5514 19.8135 12.6612 19.6867 12.6612 19.6867C12.8592 19.6519 12.9132 19.4325 12.9132 19.4325C13.0043 19.3057 13.5822 16.9444 13.5822 16.9444C13.6381 16.8346 13.6732 16.617 13.8001 16.7079ZM13.5118 17.9066C13.4929 17.998 13.3655 18.5068 13.3655 18.5068L13.4742 18.6902C13.4742 18.6902 13.7643 18.7067 13.8723 18.7067C13.9798 18.7067 13.9993 18.6177 13.9993 18.525C13.9993 18.435 13.8001 17.8901 13.8001 17.8901L13.7086 17.7809L13.5118 17.9066Z" fill="#12110C"/>
<path d="M8.89822 12.3119C8.89822 12.3119 8.69853 12.9492 7.81173 12.2936L4.7715 12.2205C4.7715 12.2205 4.37333 12.3491 4.31866 11.9305C4.31866 11.9305 4.39156 11.0955 4.35391 11.0224C4.35391 11.0224 4.37333 10.7853 3.9745 10.7853C3.9745 10.7853 3.36015 10.8596 3.34245 10.3143C3.34245 10.3143 3.23323 9.73105 4.08372 9.75108C4.08372 9.75108 4.35391 9.87782 4.37333 9.53246C4.37333 9.53246 4.33688 7.17086 4.35391 6.98816C4.35391 6.98816 4.42788 6.77234 4.01148 6.73508C4.01148 6.73508 3.41349 6.86129 3.34245 6.46156C3.34245 6.46156 3.30547 5.86312 3.70311 5.82599C3.70311 5.82599 4.19187 5.86312 4.28287 5.73745C4.28287 5.73745 4.39156 5.80769 4.37333 5.37125L4.39156 4.62723C4.39156 4.62723 4.4461 4.4273 4.75208 4.4456C4.75208 4.4456 5.31481 4.48152 5.38758 4.4273C5.38758 4.4273 5.51397 4.26464 5.54855 4.19078C5.54855 4.19078 5.8399 4.17369 5.89391 4.24447C5.89391 4.24447 6.32734 4.53695 7.97603 4.4273C7.97603 4.4273 8.22799 4.4273 8.28267 4.50049C8.28267 4.50049 8.58985 4.73621 8.77077 4.48152C8.77077 4.48152 9.04216 4.4273 9.85726 4.4456C9.85726 4.4456 10.7425 4.68145 11.3587 4.17369L11.5572 4.21095C11.5572 4.21095 11.8103 4.62723 11.993 4.50049C11.993 4.50049 12.5351 4.4456 12.6261 4.55524C12.6261 4.55524 12.8076 4.82769 12.7154 5.53698C12.7154 5.53698 12.6079 5.84536 13.1324 5.84536C13.1324 5.84536 13.7291 5.73745 13.6575 6.29823C13.6575 6.29823 13.8207 6.93447 12.8252 6.84419C12.8252 6.84419 12.6978 7.02636 12.7154 7.15323C12.7154 7.15323 12.6978 9.22342 12.6801 9.46101C12.6801 9.46101 12.6625 9.78594 13.0966 9.76938C13.0966 9.76938 13.6757 9.73105 13.6933 10.26C13.6933 10.26 13.7655 10.9498 12.9338 10.8219C12.9338 10.8219 12.6801 10.8596 12.6431 11.0224L12.6079 11.9305C12.6079 11.9305 12.6261 12.385 12.118 12.2765C12.0458 12.2765 9.29652 12.3302 9.06025 12.2589C9.06025 12.2589 8.934 12.2406 8.89822 12.3119Z" fill="#12110C"/>
<path d="M8.89869 12.3119C8.89869 12.3119 8.69901 12.9493 7.8122 12.2936L4.77145 12.2205C4.77145 12.2205 4.37314 12.349 4.3186 11.9299C4.3186 11.9299 4.39203 11.095 4.35438 11.0218C4.35438 11.0218 4.37314 10.7854 3.97431 10.7854C3.97431 10.7854 3.35995 10.8596 3.34239 10.3142C3.34239 10.3142 3.23371 9.73046 4.08419 9.75049C4.08419 9.75049 4.35438 9.87736 4.37314 9.5324C4.37314 9.5324 4.33669 7.16973 4.35438 6.98757C4.35438 6.98757 4.42835 6.77108 4.01142 6.73449C4.01142 6.73449 3.41343 6.86083 3.34239 6.46044C3.34239 6.46044 3.30541 5.86186 3.70358 5.8254C3.70358 5.8254 4.19168 5.86186 4.28334 5.73578C4.28334 5.73578 4.39203 5.8071 4.37314 5.37065L4.39203 4.62597C4.39203 4.62597 4.44604 4.42618 4.75255 4.44501C4.75255 4.44501 5.31476 4.4804 5.38753 4.42617C5.38753 4.42617 5.51444 4.26404 5.54903 4.19019C5.54903 4.19019 5.83971 4.17256 5.89439 4.24388C5.89439 4.24388 6.32728 4.53582 7.9765 4.42617C7.9765 4.42617 8.22847 4.42618 8.28314 4.49923C8.28314 4.49923 8.59032 4.73508 8.77125 4.4804C8.77125 4.4804 9.04317 4.42618 9.85773 4.44501C9.85773 4.44501 10.7436 4.67966 11.3592 4.17256L11.5582 4.20969C11.5582 4.20969 11.8113 4.62597 11.9935 4.49923C11.9935 4.49923 12.5356 4.44501 12.6278 4.55345C12.6278 4.55345 12.808 4.82656 12.7165 5.53519C12.7165 5.53519 12.6083 5.84476 13.1329 5.84476C13.1329 5.84476 13.7308 5.73579 13.658 6.2971C13.658 6.2971 13.8212 6.93388 12.8263 6.84306C12.8263 6.84306 12.6983 7.02523 12.7165 7.15264C12.7165 7.15264 12.6983 9.22282 12.6812 9.45988C12.6812 9.45988 12.663 9.78588 13.0971 9.76945C13.0971 9.76945 13.6762 9.73046 13.6944 10.26C13.6944 10.26 13.766 10.9493 12.9343 10.8213C12.9343 10.8213 12.6812 10.8596 12.6443 11.0218L12.6083 11.9299C12.6083 11.9299 12.6278 12.3851 12.1192 12.2765C12.0469 12.2765 9.297 12.3296 9.06073 12.2583C9.06073 12.2583 8.93448 12.2406 8.89869 12.3119Z" stroke="#12110C" stroke-width="0.0133333"/>
<path d="M5.47748 4.82713C5.47748 4.82713 5.51393 5.18972 5.51393 5.28054C5.51393 5.37135 5.45872 10.5313 5.45872 10.5313C5.45872 10.5313 5.51393 10.9322 5.16924 11.1309C5.16924 11.1309 5.0793 11.168 5.06055 10.9139L5.09753 5.46337C5.09753 5.46337 5.13332 4.79054 5.47748 4.82713Z" fill="white"/>
<path d="M5.47814 4.82546C5.47814 4.82546 5.51446 5.18806 5.51446 5.27887C5.51446 5.36969 5.45925 10.5301 5.45925 10.5301C5.45925 10.5301 5.51446 10.9311 5.16924 11.131C5.16924 11.131 5.0793 11.1676 5.06055 10.9134L5.09633 5.46224C5.09633 5.46224 5.13278 4.7894 5.47814 4.82546Z" stroke="#12110C" stroke-width="0.016"/>
<path d="M4.87905 11.1831C4.87905 11.1831 4.9143 6.05975 4.89728 5.96826C4.87905 5.87865 4.9143 6.04198 4.9143 6.04198C4.9143 6.04198 4.86149 5.15279 5.0963 4.78846C5.0963 4.78846 5.02353 4.47943 4.60713 4.86032L4.59063 5.60567C4.59063 5.60567 4.59063 6.02369 4.20949 6.00539C4.20949 6.00539 3.77487 5.98656 3.57518 6.18769C3.57518 6.18769 3.46703 6.58674 3.88236 6.51489C3.88236 6.51489 4.53489 6.51489 4.57068 6.78547L4.53489 9.52969C4.53489 9.52969 4.6799 9.98377 4.17251 9.98377C4.17251 9.98377 3.55749 9.94891 3.57518 10.3305C3.57518 10.3305 3.70197 10.6577 4.22772 10.548C4.22772 10.548 4.60713 10.6211 4.59063 10.9826V11.6748C4.59063 11.6748 4.55245 11.9478 4.9143 11.9643H7.73822C7.73822 11.9643 7.88283 11.9825 7.88283 11.8003C7.88283 11.8003 7.86447 11.657 7.64842 11.657L5.29664 11.6194C5.29664 11.6194 4.9143 11.7468 4.87905 11.1831Z" fill="white"/>
<path d="M5.368 11.2195C5.368 11.2195 5.29629 11.4749 5.56648 11.4188H7.43069L7.93755 11.5273C7.93755 11.5273 8.46383 11.4005 7.93755 11.1092C7.93755 11.1092 6.27249 11.1287 6.12735 11.0921C6.12735 11.0921 5.78439 11.0014 5.71162 10.983C5.71162 10.983 5.53016 10.9111 5.368 11.2195Z" fill="white"/>
<path d="M5.368 11.2223C5.368 11.2223 5.29629 11.4788 5.56648 11.4216H7.43135L7.93888 11.5312C7.93888 11.5312 8.46503 11.4045 7.93888 11.1127C7.93888 11.1127 6.27303 11.1321 6.12802 11.0944C6.12802 11.0944 5.78439 11.0041 5.71162 10.9865C5.71162 10.9865 5.53003 10.914 5.368 11.2223Z" stroke="#12110C" stroke-width="0.016"/>
<path d="M8.46401 11.4745C8.46401 11.4745 8.11931 11.4745 8.13741 11.9262C8.13741 11.9262 8.17386 12.2734 8.53505 12.2734C8.53505 12.2734 8.86111 12.2169 8.82586 11.8554C8.82586 11.8554 8.62604 11.4003 8.46401 11.4745Z" fill="white"/>
<path d="M8.71664 11.291C8.71664 11.291 8.87881 11.1094 8.98856 11.1094C8.98856 11.1094 10.7977 11.2734 11.1054 11.0557C11.1054 11.0557 11.3779 11.0015 11.449 11.0557C11.449 11.0557 11.7204 11.2734 11.7204 11.4001C11.7204 11.4001 11.7027 11.5652 11.3779 11.4744C11.3779 11.4744 9.33099 11.4915 9.2235 11.4915C9.2235 11.4915 8.66196 11.6182 8.71664 11.291Z" fill="white"/>
<path d="M8.71664 11.2943C8.71664 11.2943 8.87934 11.1121 8.98856 11.1121C8.98856 11.1121 10.7982 11.2767 11.1059 11.059C11.1059 11.059 11.379 11.0042 11.4501 11.059C11.4501 11.059 11.7215 11.2767 11.7215 11.404C11.7215 11.404 11.7039 11.5692 11.379 11.4777C11.379 11.4777 9.33219 11.4954 9.2235 11.4954C9.2235 11.4954 8.66196 11.6222 8.71664 11.2943Z" stroke="#12110C" stroke-width="0.016"/>
<path d="M9.00586 11.8396C9.00586 11.8396 9.00586 11.6951 9.25783 11.6951L11.7935 11.6763C11.7935 11.6763 12.0277 11.8018 12.0277 11.3672C12.0277 11.3672 12.1206 9.38613 12.1288 7.20563C12.1323 6.5571 12.1605 5.87612 12.1359 5.24509C12.1359 5.24509 12.0819 4.97331 12.0096 4.91722C12.0096 4.91722 12.0096 4.62661 12.3185 4.73679C12.3185 4.73679 12.5881 4.75401 12.5164 5.17136L12.5341 5.80761C12.5341 5.80761 12.48 6.08005 12.9687 6.00753C12.9687 6.00753 13.4568 6.08005 13.4743 6.26168C13.4743 6.26168 13.6207 6.62601 13.0421 6.58888H12.6262C12.6262 6.58888 12.4448 6.69746 12.4988 6.91622L12.4448 9.55C12.4448 9.55 12.4071 10.0041 12.843 9.98751C12.843 9.98751 13.2953 9.96868 13.3845 10.1137C13.3845 10.1137 13.6934 10.5683 13.0234 10.5319C13.0234 10.5319 12.6068 10.5129 12.5164 10.5854C12.5164 10.5854 12.4448 10.678 12.3901 11.5307C12.3901 11.5307 12.4259 12.0395 12.046 11.9846C12.046 11.9846 9.53028 12.02 9.29601 11.9664C9.29601 11.9664 9.04165 12.0395 9.00586 11.8396Z" fill="white"/>
<path d="M5.74823 4.6627L5.69541 10.4953C5.69541 10.4953 5.67719 10.766 6.12937 10.8208C6.12937 10.8208 6.65512 10.8757 6.78084 10.8208C6.78084 10.8208 7.1238 10.8031 8.01127 10.8397C8.01127 10.8397 8.22865 11.0566 8.24621 10.7855C8.24621 10.7855 8.39135 6.06072 8.31898 5.08018C8.31898 5.08018 8.30142 4.6627 7.99251 4.6444C7.99251 4.6444 6.61814 4.75298 6.49122 4.6444L5.94911 4.4987C5.94911 4.4987 5.73067 4.51592 5.74823 4.6627Z" fill="white"/>
<path d="M11.4845 4.88037L11.4668 10.6222C11.4668 10.6222 11.6119 11.1323 11.8481 11.078C11.8481 11.078 11.8839 10.9683 11.9016 10.7855L11.975 5.31615C11.975 5.31615 11.7934 4.44392 11.4845 4.88037Z" fill="white" stroke="#12110C" stroke-width="0.016"/>
<path d="M11.4845 4.88037L11.4668 10.6222C11.4668 10.6222 11.6119 11.1323 11.8481 11.078C11.8481 11.078 11.8839 10.9683 11.9016 10.7855L11.975 5.31615C11.975 5.31615 11.7934 4.44392 11.4845 4.88037Z" stroke="#12110C" stroke-width="0.016"/>
<path d="M8.60985 4.92742C8.60985 4.92742 8.55531 7.67044 8.57234 7.76246L8.53815 10.0702L8.46484 10.8674C8.46484 10.8674 8.57234 11.0331 8.66333 10.9234C8.66333 10.9234 9.24309 10.7789 9.60481 10.8327C9.60481 10.8327 10.7637 10.9423 10.9981 10.76C10.9981 10.76 11.179 10.8503 11.2335 10.5596C11.2335 10.5596 11.3053 5.47338 11.2693 5.38203C11.2693 5.38203 11.3422 4.65618 11.3053 4.58433C11.3053 4.58433 11.287 4.41912 10.981 4.56362C10.981 4.56362 11.0162 4.7104 9.29764 4.65618C9.29764 4.65618 8.64577 4.63735 8.60985 4.92742Z" fill="white"/>
<path d="M8.04958 6.60904L7.88581 6.95574C7.88581 6.95574 7.48924 8.71702 7.27253 9.07962C7.27253 9.07962 7.23607 9.44408 6.92837 9.15267C6.92837 9.15267 6.22182 6.91861 6.1859 6.84556L5.95043 6.68209C5.95043 6.68209 5.80769 6.4823 6.05965 6.46454L6.72921 6.4823C6.72921 6.4823 6.94593 6.66326 6.65698 6.86546C6.65698 6.86546 6.6929 7.15567 7.07284 8.26241C7.07284 8.26241 7.18086 8.68043 7.30778 8.37139L7.67016 7.08128L7.56148 6.69985C7.56148 6.69985 7.45225 6.51822 7.61615 6.50059C7.61615 6.50059 7.99623 6.46454 8.04958 6.60904Z" fill="#12110C"/>
<path d="M9.1008 6.89896L9.08138 8.82478L9.02857 8.96982C9.02857 8.96982 8.84711 9.20514 8.97336 9.22397C8.97336 9.22397 8.81185 9.33361 10.131 9.35124C10.131 9.35124 10.6391 9.44152 10.5116 8.78765C10.5116 8.78765 10.4576 8.55167 10.2755 8.8973C10.2755 8.8973 10.2215 9.18671 9.57134 9.09656C9.57134 9.09656 9.4262 8.96982 9.4262 8.82478V8.02467C9.4262 8.02467 9.40691 7.82408 9.71515 7.84478C9.71515 7.84478 10.0588 8.0618 10.1135 7.96978C10.1135 7.96978 10.2397 7.68024 10.1135 7.49808C10.1135 7.49808 9.95009 7.48098 9.93253 7.5535C9.93253 7.5535 9.82384 7.77039 9.51614 7.64311C9.51614 7.64311 9.37166 7.35304 9.46199 7.11652C9.46199 7.11652 9.4262 6.66204 9.73405 6.69903C9.73405 6.69903 10.0958 6.77102 10.131 6.88133C10.131 6.88133 10.2215 7.10009 10.3131 6.84541L10.2215 6.53517C10.2215 6.53517 10.1687 6.40776 10.0775 6.44435C10.0775 6.44435 9.46199 6.53517 9.38869 6.46145L8.89992 6.51687C8.89992 6.51687 8.82835 6.69903 9.04626 6.78878C9.04626 6.78878 9.1008 6.82591 9.1008 6.89896Z" fill="#12110C"/>
</g>
</svg>
