<svg width="112" height="48" viewBox="0 0 112 48" fill="none" xmlns="http://www.w3.org/2000/svg">
<g clip-path="url(#clip0_701_15808)">
<mask id="mask0_701_15808" style="mask-type:luminance" maskUnits="userSpaceOnUse" x="0" y="0" width="112" height="48">
<path d="M112 0H0V48H112V0Z" fill="white"/>
</mask>
<g mask="url(#mask0_701_15808)">
<path d="M27.7711 43.0789L30.6301 47.7633H28.0062L25.4997 43.3669H23.9702V47.7633H21.7832V35.25H25.3491C27.3837 35.25 28.2081 35.4863 28.9316 35.9775C30.0242 36.7216 30.6467 37.9901 30.6467 39.3602C30.6467 41.1512 29.5523 42.6395 27.7711 43.0789ZM27.6022 37.6855C27.0973 37.3475 26.4583 37.246 25.5677 37.246H23.9702V41.5925H25.8193C27.7877 41.5925 28.4763 40.4939 28.4763 39.4119C28.4763 38.6825 28.1567 38.0566 27.6022 37.6855Z" fill="#212121"/>
<path d="M41.004 46.565C40.1631 47.4956 39.0191 48.0015 37.6915 48.0015C36.7495 48.0015 35.2861 47.6803 34.3275 46.5816C33.4021 45.5162 33.1836 44.5191 33.1836 42.9792V35.2519H35.4531V42.9626C35.4531 43.7399 35.4862 44.6189 36.0077 45.2282C36.4282 45.7858 37.0837 45.9889 37.6731 45.9889C38.3287 45.9889 38.9842 45.7692 39.4047 45.1765C39.8417 44.5671 39.8747 43.7898 39.8747 42.9773V35.25H42.1443V42.9607C42.148 44.6705 41.7789 45.7027 41.004 46.565Z" fill="#212121"/>
<path d="M55.5472 47.9996H54.9081L47.4916 39.5946H47.4237V47.7614H45.3047V35.0117H45.9437L53.3767 43.3816H53.4447V35.2481H55.5472V47.9996Z" fill="#212121"/>
<path d="M70.2954 47.9996H69.572L66.4779 39.8661H66.41L63.2829 47.9996H62.5429L58.5234 35.25H60.8774L63.248 43.0622H63.3159L66.0904 35.1484H66.814L69.5554 43.0789H69.6234L72.0287 35.25H74.366L70.2954 47.9996Z" fill="#212121"/>
<path d="M83.5113 47.7634L82.3506 44.9568H77.4073L76.2306 47.7634H73.8086L79.6606 34.9805H80.1653L85.9493 47.7634H83.5113ZM79.8953 39.0888L78.0299 43.1971H81.7299L79.8953 39.0888Z" fill="#212121"/>
<path d="M91.3276 43.3337V47.7633H89.0742V43.3337L85.1562 35.25H87.5942L90.1836 41.1845L92.8076 35.25H95.2462L91.3276 43.3337Z" fill="#212121"/>
<path d="M111.497 18.2484L111.49 18.4257C111.363 21.2359 110.382 23.4905 108.576 25.1264C105.381 28.0198 100.674 27.7761 99.459 27.7613C99.4464 27.7613 99.2477 27.7613 99.237 27.7613V14.6682C99.2957 14.6682 99.5377 14.6682 99.5984 14.6663C101.879 14.6515 104.534 14.4447 104.977 20.1705L104.99 20.3405H105.428V8.41246H104.995L104.977 8.57679C104.393 14.009 101.664 13.9869 99.4404 13.9924C99.433 13.9924 99.2423 13.9924 99.237 13.9924V1.50861C99.5303 1.50676 100.012 1.50307 100.307 1.49753C104.501 1.4329 108.656 0.998986 110.425 9.97086L110.454 10.1204H110.9V0.8125H86.793V1.45321H88.9264V21.0956C88.875 23.917 87.777 25.6489 86.813 26.5666C85.649 27.6763 84.0184 28.2579 82.5437 28.2063C77.105 28.0087 76.9523 22.5081 76.949 22.2699V1.45321H79.4257V0.8125H69.791V1.45321H72.347L72.3397 19.9693C72.3397 25.0322 74.8977 28.9375 82.3677 28.9375C87.377 28.9375 89.6757 24.7534 89.6244 21.2839V1.45321H91.8957V1.45691H94.5897V27.7521H92.1584V28.4131H112V18.2484H111.497Z" fill="#212121"/>
<path d="M61.3176 16.6013V17.2439H63.5358V22.9992C63.5321 27.2977 60.697 28.2542 58.4733 28.2985C56.0734 28.3373 54.4649 27.1555 53.5541 24.7017C52.6562 22.3087 52.1825 19.9988 52.1825 14.6201C52.1825 12.7053 52.4763 6.42561 53.8828 3.67811C54.4171 2.64225 55.4123 0.71642 58.3797 0.71642C58.3889 0.71642 58.3981 0.71642 58.4072 0.71642C62.0246 0.731187 64.1031 3.24973 65.7888 10.0021L65.8237 10.1425H66.2332V0H65.8384L65.7907 0.114479C65.4051 1.04324 64.4851 1.24635 63.6919 1.22788C63.3136 1.21311 62.9684 1.15771 62.715 1.10601C62.491 1.05616 62.3477 1.01 62.3404 1.00815C61.9915 0.897367 61.683 0.79212 61.4003 0.697953C61.2717 0.653639 61.1469 0.616711 61.022 0.581628C60.1094 0.276966 59.4281 0.08309 58.3723 0.08309C53.6165 0.08309 47.0723 4.94291 47.0723 14.9691C47.0723 23.158 51.9639 28.9411 58.6404 28.9411C59.8835 28.9411 60.91 28.5311 61.8759 28.0806C62.0558 28.0068 62.2339 27.9311 62.4047 27.8498C63.3485 27.3993 64.2427 26.9727 65.2489 26.9192C65.2893 26.9174 65.3297 26.9174 65.3701 26.9155C65.3977 26.9155 65.4253 26.9137 65.4546 26.9137C66.0367 26.9137 67.2049 27.2922 67.4302 28.4185L67.4595 28.5663L67.8509 28.5681V17.2476H69.9515V16.605H61.3176V16.6013Z" fill="#212121"/>
<path d="M32.9153 0.140625C27.2745 0.140625 21.0938 5.80919 21.0938 14.4634C21.0938 23.1177 27.4783 28.862 32.9153 28.862C38.3542 28.862 44.7369 23.1177 44.7369 14.4634C44.7387 5.80919 38.5561 0.140625 32.9153 0.140625ZM39.5073 13.3999C39.5091 13.4626 39.511 13.5254 39.511 13.5864C39.5128 13.6326 39.5128 13.6768 39.5128 13.723C39.5128 13.7581 39.5147 13.795 39.5147 13.8301C39.5147 13.8874 39.5165 13.9428 39.5165 13.9963C39.5165 14.0166 39.5165 14.0388 39.5165 14.059C39.5165 14.1182 39.5183 14.1736 39.5183 14.229C39.5183 14.2437 39.5183 14.2585 39.5183 14.2732C39.5183 14.3397 39.5183 14.4025 39.5183 14.4634C39.5183 14.5114 39.5183 14.5632 39.5183 14.6167C39.511 16.2176 39.3769 22.4068 37.7647 25.4922C36.8558 27.2796 35.0582 28.225 32.9153 28.225C30.7725 28.225 28.9748 27.2796 28.064 25.4904C26.4518 22.4068 26.3178 16.2157 26.3105 14.6167C26.3105 14.5632 26.3105 14.5114 26.3105 14.4634C26.3105 14.4044 26.3105 14.3416 26.3105 14.2732C26.3105 14.2585 26.3105 14.2437 26.3105 14.229C26.3105 14.1736 26.3104 14.1182 26.3123 14.059C26.3123 14.0388 26.3123 14.0166 26.3123 13.9963C26.3123 13.9428 26.3142 13.8874 26.3142 13.8301C26.3142 13.795 26.3159 13.7581 26.3159 13.723C26.3159 13.6787 26.3178 13.6326 26.3178 13.5864C26.3196 13.5254 26.3196 13.4626 26.3215 13.3999C26.3215 13.3777 26.3233 13.3556 26.3233 13.3334C26.3857 10.8666 26.6924 6.23203 28.064 3.50853C29.1768 1.25218 31.4004 0.779492 32.9171 0.779492C34.432 0.779492 36.6557 1.25403 37.7666 3.51222C39.1383 6.23387 39.4431 10.8684 39.5055 13.3352C39.5055 13.3556 39.5073 13.3777 39.5073 13.3999Z" fill="#212121"/>
<path d="M18.0537 0.816406V1.44973H20.2994L14.3096 21.6036L7.0768 1.44973H9.12967V1.08045H9.13153V0.816406H0V1.44973H2.64415L12.7764 28.5628H12.9215L20.9916 1.44973H23.465V0.816406H18.0537Z" fill="#212121"/>
</g>
</g>
<defs>
<clipPath id="clip0_701_15808">
<rect width="112" height="48" fill="white"/>
</clipPath>
</defs>
</svg>
