<svg width="112" height="35" viewBox="0 0 112 35" fill="none" xmlns="http://www.w3.org/2000/svg">
<g clip-path="url(#clip0_701_16132)">
<path d="M47.5947 8.12641H47.5757L46.0526 16.0839H43.9585L41.9785 6.375H43.6539L45.0246 13.8566H45.0436L46.5095 6.375H48.6799L50.1267 13.8566H50.1458L51.5736 6.375H53.1918L51.1929 16.0839H49.0606L47.5947 8.12641Z" fill="#009CDE"/>
<path d="M55.7052 8.79688C57.1711 8.79688 58.8465 9.55836 58.8465 12.471C58.8465 15.4789 57.1711 16.1642 55.7052 16.1642C54.2393 16.1642 52.5449 15.4598 52.5449 12.471C52.564 9.55836 54.2583 8.79688 55.7052 8.79688ZM55.7052 14.9649C56.8094 14.9649 57.0759 13.6894 57.0759 12.4901C57.0759 11.2907 56.8285 10.0343 55.7052 10.0343C54.582 10.0343 54.3345 11.2907 54.3345 12.4901C54.3345 13.6894 54.601 14.9649 55.7052 14.9649Z" fill="#009CDE"/>
<path d="M59.7016 10.088C59.7016 9.6882 59.6826 9.30746 59.6445 8.90769H61.2056C61.2247 9.34554 61.2628 9.78339 61.2628 10.2212H61.2818C61.4912 9.66917 62.0243 8.8125 63.1094 8.8125C63.2046 8.8125 63.2998 8.83154 63.395 8.85057V10.4687C63.2427 10.4306 63.0714 10.3926 62.9191 10.3926C62.2147 10.3926 61.4341 10.8304 61.4341 12.163V16.0847H59.7207L59.7016 10.088Z" fill="#009CDE"/>
<path d="M64.1387 5.65625H65.8711V16.0695H64.1387V5.65625Z" fill="#009CDE"/>
<path d="M72.8973 5.65625V14.8511C72.8973 15.2509 72.9164 15.6697 72.9544 16.0695H71.3362C71.2981 15.7078 71.2791 15.3271 71.2791 14.9654H71.241C70.9554 15.5745 70.4414 16.1837 69.3372 16.1837C67.5667 16.1837 66.8242 14.4894 66.8242 12.5096C66.8242 10.168 67.7571 8.8164 69.2991 8.8164C70.0987 8.77832 70.8222 9.23521 71.1458 9.95862H71.1649V5.65625H72.8973ZM69.7941 14.9083C70.8031 14.9083 71.1458 13.8041 71.1458 12.4715C71.1458 11.0818 70.7651 10.0728 69.8132 10.0728C68.8613 10.0728 68.5186 11.0057 68.5186 12.4334C68.5376 14.0897 68.8042 14.9083 69.7941 14.9083Z" fill="#009CDE"/>
<path d="M78.0176 6.375H79.8071V10.3157H82.6819V6.375H84.4524V16.0839H82.6819V11.7815H79.8071V16.0649H78.0176V6.375Z" fill="#009CDE"/>
<path d="M90.7534 15.7229C90.0871 16.0275 89.3446 16.1798 88.6212 16.1798C86.3176 16.1798 85.3086 14.5236 85.3086 12.6009C85.3086 10.4687 86.4318 8.8125 88.2595 8.8125C89.8015 8.8125 91.1152 9.70724 91.1152 12.6389V12.9816H86.9839C86.9839 14.2 87.4789 14.9424 88.8116 14.9424C89.8587 14.9424 90.3727 14.6188 90.6963 14.3904L90.7534 15.7229ZM89.4398 11.8775C89.4398 10.621 89.021 9.97376 88.2404 9.97376C87.3266 9.97376 86.9649 10.9256 86.9649 11.8775H89.4398Z" fill="#009CDE"/>
<path d="M92.22 9.32991C92.9244 8.98725 93.705 8.79688 94.4855 8.79688C96.713 8.79688 97.227 9.88199 97.227 11.6715V14.7935C97.227 15.2124 97.2651 15.6312 97.3222 16.05H95.7611C95.6849 15.7264 95.6468 15.4027 95.6659 15.0791H95.6468C95.209 15.6692 94.6759 16.1642 93.6479 16.1642C92.5437 16.1642 91.5156 15.4027 91.5156 14.0701C91.5156 12.1284 93.0958 11.6334 95.2851 11.6334H95.6278V11.3669C95.6278 10.6625 95.2851 9.99621 94.2952 9.99621C93.5908 10.0152 92.9054 10.2627 92.3343 10.7006L92.22 9.32991ZM95.6088 12.5662H95.4565C93.9905 12.5662 93.1148 12.8708 93.1148 13.9178C93.0767 14.4889 93.5146 14.9839 94.0857 15.022C94.1238 15.022 94.1809 15.022 94.219 15.022C95.2471 15.022 95.6278 14.2605 95.6278 12.985V12.5662H95.6088Z" fill="#009CDE"/>
<path d="M98.8066 5.65625H100.52V16.0695H98.8066V5.65625Z" fill="#009CDE"/>
<path d="M102.501 7.44319L104.215 6.91016V8.90905H105.642V10.1655H104.215V13.8968C104.215 14.6582 104.5 14.8867 104.995 14.8867C105.224 14.8867 105.452 14.8296 105.642 14.7344V15.9528C105.281 16.105 104.881 16.1812 104.481 16.1812C103.206 16.1812 102.482 15.591 102.482 14.0871V10.1845H101.34V8.92808H102.482V7.44319H102.501Z" fill="#009CDE"/>
<path d="M106.193 5.65625H107.907V9.8444H107.945C108.249 9.40655 108.649 8.8164 109.715 8.8164C111.334 8.8164 111.829 10.0157 111.829 11.4625V16.0695H110.115V11.7862C110.115 10.682 109.83 10.2251 109.125 10.2251C108.23 10.2251 107.907 10.9866 107.907 11.9004V16.0695H106.193V5.65625Z" fill="#009CDE"/>
<path d="M45.9194 18.6562C47.9374 18.6562 49.7841 20.1602 49.7841 23.644C49.7841 27.1277 47.9374 28.6317 45.9194 28.6317C43.9014 28.6317 42.0547 27.1277 42.0547 23.644C42.0547 20.1602 43.9014 18.6562 45.9194 18.6562ZM45.9194 27.28C47.0426 27.28 47.9564 26.3282 47.9564 23.644C47.9564 20.9597 47.0426 20.0269 45.9194 20.0269C44.7961 20.0269 43.8823 20.9788 43.8823 23.644C43.8823 26.3091 44.7961 27.28 45.9194 27.28Z" fill="#009CDE"/>
<path d="M50.5063 22.5216C50.5063 22.1218 50.4873 21.7411 50.4492 21.3413H52.0103C52.0294 21.7791 52.0674 22.217 52.0674 22.6548H52.0865C52.2959 22.1028 52.848 21.2461 53.9141 21.2461C54.0093 21.2461 54.1045 21.2651 54.1997 21.2842V22.9023C54.0474 22.8642 53.876 22.8262 53.7047 22.8262C53.0003 22.8262 52.2197 23.264 52.2197 24.5966V28.5182H50.5063V22.5216Z" fill="#009CDE"/>
<path d="M55.0385 29.6224C55.6858 30.0031 56.4092 30.2125 57.1517 30.2316C58.7699 30.2316 59.0364 29.1084 59.0364 27.9852V27.2999H59.0174C58.7318 27.8519 58.2559 28.5182 57.1326 28.5182C56.1427 28.5182 54.6387 27.8519 54.6387 24.9583C54.6387 22.9785 55.3431 21.2461 57.2278 21.2461C58.2749 21.2461 58.7509 21.8362 59.1126 22.4645H59.1697C59.1697 22.0837 59.2078 21.722 59.2268 21.3603H60.7879C60.7689 21.7411 60.7308 22.1028 60.7308 22.4835V27.7568C60.7308 30.0031 60.0454 31.5832 57.4182 31.5832C56.5805 31.5832 55.7429 31.4309 54.9623 31.1454L55.0385 29.6224ZM57.5324 27.2428C58.6176 27.2428 59.0555 26.4622 59.0555 24.8441C59.0555 23.3402 58.4843 22.5406 57.6657 22.5596C56.7519 22.5787 56.4092 23.4163 56.4092 24.8631C56.4092 26.5384 56.9423 27.2428 57.5324 27.2428Z" fill="#009CDE"/>
<path d="M62.2552 21.7596C62.9596 21.3979 63.7401 21.2266 64.5207 21.2266C66.7481 21.2266 67.2622 22.3117 67.2622 24.1012V27.2232C67.2622 27.642 67.3002 28.0609 67.3573 28.4797H65.7962C65.7201 28.156 65.682 27.8324 65.701 27.5088H65.682C65.2441 28.0989 64.7111 28.5939 63.683 28.5939C62.5788 28.5939 61.5508 27.8324 61.5508 26.4998C61.5508 24.558 63.1309 24.0631 65.3203 24.0631H65.663V23.7966C65.663 23.0922 65.3203 22.4259 64.3303 22.4259C63.6259 22.4449 62.9406 22.6924 62.3694 23.1303L62.2552 21.7596ZM65.6439 24.9959H65.4916C64.0257 24.9959 63.15 25.3005 63.15 26.3475C63.1119 26.9186 63.5498 27.4136 64.1209 27.4517C64.159 27.4517 64.1971 27.4517 64.2542 27.4517C65.2822 27.4517 65.663 26.6902 65.663 25.4147L65.6439 24.9959Z" fill="#009CDE"/>
<path d="M68.6509 22.5216C68.6509 22.1218 68.6318 21.7411 68.5938 21.3413H70.212C70.231 21.703 70.2691 22.0837 70.2691 22.4454H70.2881C70.5356 22.0076 71.0306 21.2461 72.1919 21.2461C73.8101 21.2461 74.3051 22.4454 74.3051 23.8922V28.4992H72.5727V24.1968C72.5727 23.0927 72.2871 22.6358 71.5827 22.6358C70.6879 22.6358 70.3643 23.3973 70.3643 24.3111V28.4802H68.6509V22.5216Z" fill="#009CDE"/>
<path d="M75.6172 18.2969H77.4067V19.9912H75.6172V18.2969ZM75.6553 21.3428H77.3687V28.5007H75.6553V21.3428Z" fill="#009CDE"/>
<path d="M78.7222 27.0129L81.7873 22.6534H78.8174V21.3398H83.5007V22.8057L80.4927 27.1842H83.5959V28.4978H78.7031V27.0129H78.7222Z" fill="#009CDE"/>
<path d="M84.9095 21.7596C85.6139 21.3979 86.3944 21.2266 87.175 21.2266C89.4024 21.2266 89.9165 22.3117 89.9165 24.1012V27.2232C89.9165 27.642 89.9545 28.0609 90.0116 28.4797H88.4505C88.3744 28.156 88.3363 27.8324 88.3553 27.5088H88.3363C87.8984 28.0989 87.3654 28.5939 86.3373 28.5939C85.2331 28.5939 84.2051 27.8324 84.2051 26.4998C84.2051 24.558 85.7852 24.0631 87.9746 24.0631H88.3173V23.7966C88.3173 23.0922 87.9746 22.4259 86.9846 22.4259C86.2802 22.4449 85.5948 22.6924 85.0237 23.1303L84.9095 21.7596ZM88.2982 24.9959H88.1459C86.68 24.9959 85.8043 25.3005 85.8043 26.3475C85.7662 26.9186 86.2041 27.4136 86.7752 27.4517C86.8133 27.4517 86.8513 27.4517 86.9085 27.4517C87.9365 27.4517 88.3173 26.6902 88.3173 25.4147V24.9959H88.2982Z" fill="#009CDE"/>
<path d="M91.7824 19.8768L93.4958 19.3438V21.3426H94.9237V22.5991H93.4958V26.3113C93.4958 27.0728 93.7814 27.3012 94.2764 27.3012C94.5048 27.3012 94.7333 27.2632 94.9237 27.1489V28.3673C94.5619 28.5386 94.1621 28.6148 93.7623 28.5958C92.4868 28.5958 91.7634 28.0056 91.7634 26.5207V22.5991H90.6211V21.3426H91.7634L91.7824 19.8768Z" fill="#009CDE"/>
<path d="M95.9688 18.2969H97.7393V19.9912H95.9688V18.2969ZM96.0068 21.3428H97.7393V28.5007H96.0259L96.0068 21.3428Z" fill="#009CDE"/>
<path d="M101.834 21.2266C103.3 21.2266 104.975 21.988 104.975 24.9007C104.975 27.9086 103.3 28.5939 101.834 28.5939C100.368 28.5939 98.6738 27.9086 98.6738 24.9007C98.6929 22.0071 100.387 21.2266 101.834 21.2266ZM101.834 27.3946C102.938 27.3946 103.205 26.1191 103.205 24.9197C103.205 23.7204 102.957 22.464 101.834 22.464C100.711 22.464 100.463 23.7204 100.463 24.9197C100.463 26.1191 100.73 27.3946 101.834 27.3946Z" fill="#009CDE"/>
<path d="M106.346 22.5216C106.346 22.1218 106.327 21.7411 106.289 21.3413H107.907C107.926 21.703 107.964 22.0837 107.964 22.4454H107.983C108.231 22.0076 108.726 21.2461 109.887 21.2461C111.505 21.2461 112 22.4454 112 23.8922V28.4992H110.287V24.1968C110.287 23.0927 110.001 22.6358 109.297 22.6358C108.402 22.6358 108.079 23.3973 108.079 24.3111V28.4802H106.365L106.346 22.5216Z" fill="#009CDE"/>
<path d="M31.5839 6.28357C32.3264 7.17831 33.6209 7.69231 34.3825 8.58705C33.8304 5.95994 31.8123 3.80876 29.4136 3.29476C30.5939 4.17046 30.8414 5.38883 31.5839 6.28357ZM2.79857 12.9465C4.45487 9.34854 6.91076 10.11 7.95784 6.70239C7.34863 7.73039 4.66429 8.16824 3.42682 10.8525C4.07411 9.25335 3.75047 6.81661 4.81659 5.48402C1.59918 7.88268 2.96991 11.7282 2.79857 12.9465ZM5.76849 21.5513C6.07309 22.941 5.19735 24.9779 6.58712 26.9007C5.15927 25.3016 2.11321 24.8828 0.875744 22.446C2.41781 28.4046 6.45385 27.1862 8.26245 28.4808C6.77749 26.3296 7.99592 24.9018 5.76849 21.5513ZM5.31158 25.3016C4.41679 21.9701 5.99694 20.8088 4.79755 17.6106C4.68333 19.4191 3.4649 20.2948 4.28353 23.5882C2.85569 20.7898 0.647289 19.7428 0 17.8391C0.0380758 23.0742 4.24545 23.8548 5.31158 25.3016ZM11.7654 30.8794C10.528 29.1661 11.3656 28.1952 7.90073 25.0922C8.64321 26.2344 7.88169 27.6622 10.2234 29.8705C7.93881 28.5188 4.75948 29.0899 3.23644 27.2814C5.86368 32.3072 10.4708 30.2512 11.7654 30.8794ZM28.614 29.8705C30.9556 27.6431 30.1941 26.2154 30.9366 25.0922C27.4527 28.1952 28.3094 29.1661 27.0529 30.8794C28.3665 30.2512 32.9737 32.3072 35.5818 27.2814C34.0779 29.109 30.8985 28.5188 28.614 29.8705ZM32.2502 26.9007C33.64 24.9779 32.7642 22.96 33.0498 21.5513C30.8224 24.9018 32.0408 26.3296 30.5558 28.4808C32.3835 27.1862 36.4005 28.4046 37.9426 22.446C36.7051 24.8828 33.6781 25.3016 32.2502 26.9007ZM26.6911 31.1269C25.4537 30.8033 24.1781 30.5939 22.8836 30.5558C21.7032 30.5368 20.5229 30.7271 19.4187 31.146C18.3145 30.7271 17.1341 30.5368 15.9538 30.5558C14.6592 30.5939 13.3836 30.8033 12.1462 31.1269C10.052 31.679 8.24341 32.1168 6.66327 31.3173C8.16726 32.6499 9.93779 33.1448 12.4889 32.8593C14.6021 32.6308 16.3155 31.5648 18.3145 31.5838H18.3906C17.1341 32.212 16.0109 33.0877 15.0971 34.1538L16.068 34.2871C16.068 34.2871 17.077 32.2501 19.4187 31.7171C21.7603 32.2501 22.7693 34.2871 22.7693 34.2871L23.7403 34.1538C22.8265 33.0877 21.7032 32.212 20.4467 31.5838H20.5229C22.5218 31.5648 24.2353 32.6308 26.3485 32.8593C28.8995 33.1258 30.651 32.6499 32.1741 31.3173C30.5939 32.1168 28.7853 31.679 26.6911 31.1269ZM4.94986 13.9936C4.09315 15.6498 2.74146 16.0305 2.89376 19.4382C2.17032 16.4113 0.437872 15.2691 0.45691 13.3463C-0.742478 18.4102 2.45589 19.0003 3.29356 21.1325C3.16029 18.0865 5.10216 17.4774 4.94986 13.9936ZM6.14924 10.091C5.84464 10.5098 5.63522 10.7002 4.83563 11.3474C3.63624 12.2993 2.79857 13.6509 2.513 15.1548C2.58916 13.2892 1.44688 10.624 2.2084 8.68224C-0.742478 12.8514 2.37974 15.3452 2.49397 16.8682C3.23644 13.9555 5.00697 13.9365 6.14924 10.091ZM36.3243 15.1548C36.0197 13.6509 35.2011 12.2993 34.0017 11.3474C33.2021 10.6811 32.9927 10.5098 32.6881 10.091C33.8304 13.9365 35.6009 13.9555 36.3624 16.8682C36.4766 15.3642 39.5988 12.8704 36.648 8.68224C37.4095 10.624 36.2672 13.2892 36.3243 15.1548ZM38.8373 17.8391C38.19 19.7618 35.9816 20.7898 34.5538 23.5882C35.3724 20.2948 34.154 19.4191 34.0398 17.6106C32.8404 20.8088 34.4205 21.9701 33.5258 25.3016C34.5919 23.8548 38.7993 23.0742 38.8373 17.8391ZM33.8875 13.9936C33.7161 17.4774 35.677 18.0865 35.5438 21.1325C36.3624 19.0194 39.5798 18.4102 38.3804 13.3463C38.3995 15.2881 36.667 16.4113 35.9436 19.4572C36.0959 16.0115 34.7632 15.6498 33.8875 13.9936ZM7.25344 6.28357C7.99592 5.38883 8.24341 4.17046 9.42376 3.29476C7.00595 3.80876 4.98793 5.9409 4.43583 8.56802C5.19735 7.67328 6.51096 7.15928 7.25344 6.28357ZM30.8985 6.66431C31.9456 10.091 34.4015 9.3295 36.0578 12.9085C35.8865 11.7091 37.2572 7.84461 34.0398 5.48402C35.1249 6.79757 34.8013 9.25335 35.4295 10.8525C34.173 8.16824 31.4887 7.73039 30.8985 6.66431ZM22.5218 8.62513C21.8936 8.35861 21.2273 8.18728 20.5609 8.09209C20.5609 8.24439 20.5609 8.37765 20.5609 8.52994C21.1892 8.62513 21.7984 8.79646 22.3695 9.02491C22.4457 8.89165 22.5028 8.75839 22.5218 8.62513ZM22.0269 4.37987L22.1601 4.26565L21.9126 4.15142L21.2463 4.13239L21.075 4.24661L20.6942 4.20853V4.30372C20.9417 4.32276 21.1892 4.34179 21.3796 4.37987L21.7032 4.36083L22.0269 4.37987ZM20.7704 18.5815C20.7704 18.4673 20.6181 18.3531 20.4086 18.2579H20.3706C20.3706 18.3531 20.3515 18.7909 20.3515 19.0194C20.599 18.8861 20.7704 18.7719 20.7704 18.5815ZM13.1362 10.2242C13.1552 10.1481 13.1742 10.0529 13.1933 9.97676C13.0981 9.9958 13.0219 10.0148 12.9267 9.99579L13.1362 10.2242ZM10.0711 7.15928L11.6322 8.72031C9.74741 10.6811 8.68129 13.3082 8.64321 16.0305H6.43481C6.47289 12.6991 7.76747 9.53891 10.0711 7.15928ZM9.11916 19.3049L8.98589 19.2859L8.85263 19.1526L8.22438 19.0955L8.41475 19.362L7.84362 19.2478L7.99592 19.1145L7.86266 18.9813L7.44382 19.1526L7.29152 19.4191L7.34863 20.0474L7.82458 21.1896L8.05303 21.5513L8.1863 21.5894L7.82458 20.904L7.74843 20.5614L7.82458 20.4852L7.76747 20.2948L7.97688 20.3329L8.31957 20.8279L8.39572 20.8659V20.5042L8.52898 20.5804L8.56706 20.7708L8.90974 20.8659L9.06204 20.7517L9.11916 20.7898V21.0563L9.27146 21.2467L9.46184 21.2848L9.88067 21.9701L10.1282 22.0462L10.2043 21.7226C10.6422 22.427 11.1372 23.0933 11.7274 23.6834L10.1662 25.2445C7.84362 22.9029 6.51096 19.7618 6.43481 16.4684H8.64321C8.66225 17.4202 8.83359 18.3911 9.11916 19.3049ZM11.2895 16.4494C11.2895 16.6588 11.3085 16.8682 11.3466 17.0966L11.0801 17.1537L11.0229 17.4202L10.4518 18.1437L10.4708 19.1336L9.89971 19.3239H9.57607C9.27146 18.3911 9.11916 17.4393 9.08108 16.4494H11.2895ZM11.7845 22.6745L12.2794 22.96L12.3746 23.0362L12.0129 23.3979C11.8416 23.2265 11.6893 23.0552 11.537 22.8648L11.7845 22.6745ZM13.8025 10.8905L15.3636 12.4516C15.0399 12.8133 14.7544 13.2131 14.545 13.6509H14.4307L14.2023 13.708H14.1261L13.8977 13.9174L14.2023 13.8794L14.4688 13.8222L14.4117 13.8984L14.1832 14.0507H14.069L13.7263 14.3172L13.4027 14.2791L12.9267 15.1739L13.0219 15.3452L12.7554 15.6498L12.7173 16.0305H11.7274C11.7464 14.1078 12.4889 12.2802 13.8025 10.8905ZM15.4017 17.3441L15.5159 17.287L15.8015 17.4964L15.6682 17.5916L15.9918 17.801L15.9728 17.5725L16.1441 17.287L16.3345 17.4774L16.5249 17.7439L16.1822 17.8391L16.3345 18.1437L16.563 18.0104L16.5249 17.9152L16.6962 17.801L16.7914 17.3251C16.9247 17.6106 17.096 17.8771 17.3055 18.1056L15.7443 19.6666C14.9828 18.8671 14.5069 17.8391 14.3736 16.7349L14.6973 17.0776H15.0019L15.4017 17.3441ZM13.1552 15.6879L13.1933 15.25L13.4598 15.0977L13.9357 15.1739L14.0119 15.25C13.9738 15.4975 13.9548 15.764 13.9357 16.0115H13.4027L13.1552 15.6879ZM12.4318 17.2108L12.2223 17.5345H11.8606L11.8416 17.5154C11.7845 17.1728 11.7464 16.8111 11.7274 16.4684H12.3937L12.2414 17.0014L12.4318 17.2108ZM13.8977 21.5132C13.7454 21.3419 13.574 21.1705 13.4408 20.9992L13.5169 20.4471L13.2885 19.9141L13.2313 19.0765L12.9648 18.5625L13.0219 18.2388L12.6983 17.6296L12.4318 17.4964L12.546 17.1728L12.4318 16.9253L12.546 16.6397H12.8506L12.9648 16.4684H13.4788L13.555 16.6207L13.4408 17.1347L13.3836 17.2299L13.574 17.6487L13.4408 17.7248L13.3456 17.6106L13.3075 17.6487L13.4027 17.8962L13.555 18.1817H13.6311L13.6692 17.9152L13.5931 17.82V17.6487L13.574 17.287L13.6883 16.6397L13.574 16.4684H13.9357C14.0119 17.7819 14.545 19.0194 15.4588 19.9712L13.8977 21.5132ZM27.1861 23.6454C29.0709 21.7036 30.156 19.1336 30.2132 16.4494H32.4216C32.3454 19.7237 31.0318 22.8648 28.7282 25.2064L27.1861 23.6454ZM26.5769 23.0362L26.7483 22.8458L26.5769 21.9891L26.4627 21.9511L26.5388 21.7988L26.1771 21.6845L26.101 21.9891L26.0629 22.3699L25.9867 22.446L25.3204 21.7797C26.7102 20.3329 27.5098 18.4482 27.5859 16.4494H29.7943C29.7182 19.0384 28.6901 21.4942 26.8815 23.3408L26.5769 23.0362ZM24.635 25.1112L24.8445 24.6734L24.7683 24.483L25.0729 24.2165V24.0642L24.8064 23.8928L25.0158 23.455L25.3395 23.0362L25.0158 22.6935H24.7683L24.616 22.446C24.7493 22.3318 24.8825 22.2176 24.9968 22.1034L26.5579 23.6644C25.9867 24.2165 25.3395 24.7114 24.635 25.1112ZM24.3304 20.8088L24.121 20.5994L24.2733 20.39L24.4827 19.9712L24.4066 19.857L24.5399 19.5524L24.5208 19.2668L24.4447 18.9813L24.2543 18.9242L24.1781 19.0765L24.0639 19.0384C24.2353 18.7909 24.3876 18.5054 24.5208 18.2388L24.7112 18.1627L24.8254 18.0104L24.8825 18.0675L25.0158 17.9152L24.9016 17.7819L24.9968 17.7629L25.1681 17.8391H25.5108L25.7202 17.7248L26.2533 17.5725L26.1581 17.4012L26.12 17.1918L26.4056 17.3251L26.5198 17.2679L26.4627 17.0395L26.101 17.1728L25.7202 17.0966L25.4156 16.4874H27.11C27.0338 18.3721 26.2723 20.1616 24.9777 21.5132L24.7493 21.2848L24.8445 20.9802L24.6731 20.2948L24.3304 20.8088ZM23.5309 12.5087L25.092 10.9476C25.4537 11.3474 25.7773 11.7853 26.0629 12.2422L25.8725 12.2993L25.8916 12.6419L26.4627 13.0036C26.615 13.3273 26.7292 13.6509 26.8244 13.9936L26.7292 14.1459L26.5198 14.2982L26.4627 14.6218L26.3104 14.6979L26.1962 14.8502L26.0819 14.7931H25.8725L25.9867 14.6218L26.0819 14.1839L26.2342 14.0888L25.8154 13.689L25.5108 13.8032L25.4346 14.1078L25.2443 14.3172L25.0348 14.1459L24.9587 13.9555L25.0729 13.8794L25.13 13.9936L25.2252 13.9555L25.1872 13.7651H25.0539V13.8413L24.9587 13.8603L24.4827 13.2892L24.3114 13.1559L24.3685 13.0988L24.5208 13.0417L24.3685 12.9846C24.3685 12.9846 24.1972 13.0227 24.1781 13.0227L24.2733 13.1559H24.0258C23.8735 12.9085 23.7212 12.6991 23.5309 12.5087ZM23.7783 21.0182L23.3024 20.885L23.1501 20.9421L22.8836 20.7327L22.6361 20.6375C22.7693 20.5423 22.8836 20.4471 22.9978 20.3519L23.3976 20.6375L23.7022 20.7898L23.8545 20.9421L23.7783 21.0182ZM22.9407 13.689L23.1311 13.6509V13.6128L22.9407 13.4796L22.9978 13.0608L23.2262 12.8133C23.3785 12.9846 23.5118 13.1559 23.6451 13.3463L23.5689 13.5938L23.3595 13.4415L23.1882 13.4796L23.2643 13.6319H23.3405L23.2453 13.8603L23.1882 13.7651L22.9407 13.689ZM25.5869 15.2119L25.9867 15.0025L26.3865 14.9454L26.4817 14.7551L26.7102 14.6218L26.8054 14.4314L26.8815 14.1078C26.9196 14.222 26.9386 14.3362 26.9767 14.4505L26.7673 15.0787V15.2881L27.0338 14.8502C27.0909 15.231 27.129 15.6308 27.1481 16.0115H25.2062L25.1681 15.8402L25.3966 15.6688L25.4346 15.5546L25.5298 15.4785L25.7964 15.4404L25.8154 15.3262L25.5869 15.2119ZM26.0248 10.0339L26.5579 10.0529L26.6911 10.2052L26.634 10.4336L27.3765 10.8905L27.5288 10.8715L28.4617 11.9566L28.8424 11.8234C29.4516 13.1369 29.7753 14.5837 29.7943 16.0305H27.5859C27.5859 15.4594 27.5098 14.9074 27.3765 14.3553L27.4717 14.222L27.605 13.5176L27.5098 12.7752L27.2432 11.9185L26.634 11.0238L26.7863 11.0999L26.8625 11.0238L26.3675 10.6811L26.3294 10.7954L26.8244 11.4997L27.11 12.0708L27.3004 12.6419L27.3575 13.0227L27.4527 13.6699L27.2623 13.689C27.2623 13.689 27.0529 13.2892 26.9767 13.1179L27.0719 12.9656L26.8815 12.6991V12.4516L26.7483 12.2802L26.5769 12.2993C26.5198 12.1851 26.4627 12.0708 26.3865 11.9756L26.5008 12.0328L26.5388 11.9947L26.4817 11.8614L26.634 11.7853L26.5769 11.7091L26.3675 11.7853L26.4437 11.4426L26.3104 11.3665L26.1962 11.633C25.9487 11.2713 25.6821 10.9286 25.3966 10.605L26.0248 10.0339ZM28.8424 7.19735C31.127 9.57698 32.4025 12.7371 32.4406 16.0305H30.2322C30.2132 14.3934 29.8324 12.7752 29.0899 11.3094L29.109 11.2713L29.2613 11.3474L29.2993 11.2332L28.8995 10.5479L28.4236 9.90061L27.8715 9.44372C27.6811 9.21528 27.4907 8.98683 27.2813 8.75839L28.8424 7.19735ZM19.4377 29.5849C26.8625 29.5849 32.8785 23.5502 32.8594 16.1257C32.8594 9.23431 27.643 3.46609 20.7894 2.76172L20.7704 2.83787C20.7513 2.97113 20.7132 3.08535 20.6942 3.19957C23.6451 3.48513 26.4056 4.77965 28.5188 6.85468L27.0338 8.33957L27.0909 8.07305L26.9006 7.97787L26.6531 7.99691L26.7102 7.82557L26.5388 7.21639L26.1771 6.81661L25.0158 6.20742L24.9206 6.32165L24.7112 6.37876C25.111 6.94987 25.3204 7.6352 25.3204 8.32054C25.3204 8.41572 25.3204 8.49187 25.3204 8.58705L25.8916 9.31046L25.625 9.36757L25.7964 9.63409L25.2823 10.1481L25.0729 9.76735C24.9777 10.0339 24.8445 10.3004 24.6922 10.5288L24.8064 10.624L23.2262 12.1851C23.1311 12.0899 23.0359 12.0137 22.9407 11.9185C22.7884 11.9947 22.6361 12.0518 22.4838 12.1089L22.617 12.2041L22.5409 12.2802L22.3505 12.3754L22.2744 12.5658L22.1601 12.4516L21.8365 12.5658L21.9317 12.7181L22.1601 12.661L22.3124 12.68L22.3315 12.6039L22.4457 12.5468L22.4838 12.4896L22.6932 12.4325H22.8455L22.9407 12.5087L22.3315 13.1369L22.2934 13.0798L21.6461 13.194L21.4938 13.3463L21.3605 13.3654L21.7603 12.9846L21.608 12.9085L21.2273 13.4034L21.3415 13.3844V13.5748L21.4748 13.6319L21.4938 13.8222L21.2653 13.7842L21.0369 13.8222L20.4657 13.5367C20.4657 13.5367 20.4277 15.0596 20.4277 15.8211C21.7603 16.278 23.1882 16.9253 23.1882 18.6386C23.2072 19.362 22.8265 20.0474 22.2172 20.4471L22.1792 20.4662L22.1411 20.5042C21.608 20.8659 20.9036 21.0563 20.2944 21.2467L20.2754 22.446C21.2463 22.9219 22.4076 23.6263 22.2934 25.6062C22.2744 26.1011 22.084 26.2344 21.9317 26.2725C21.3605 26.4057 20.7704 26.5009 20.1992 26.539C20.1992 26.6913 20.1992 26.8436 20.1992 26.9768C22.7122 26.8055 25.0729 25.7585 26.9006 24.0261L28.4617 25.5871C23.4547 30.4225 15.5159 30.4225 10.4899 25.6252L12.051 24.0642C13.8596 25.7585 16.2013 26.7865 18.6762 26.9768C18.6762 26.8436 18.6762 26.6913 18.6762 26.539C16.3155 26.3486 14.1071 25.3777 12.3937 23.7405L12.7935 23.3217L13.3646 23.3788L13.6692 23.0552L14.4688 23.0933L14.583 22.8077L14.545 22.6935C15.7253 23.5882 17.1341 24.1594 18.6191 24.3117C18.6191 24.1403 18.6191 23.988 18.6191 23.8738C16.9818 23.6834 15.4588 22.9981 14.2404 21.8749L15.8015 20.3139C16.1822 20.6565 16.6011 20.9421 17.077 21.1705C17.1151 21.0182 17.1532 20.885 17.2293 20.7517C16.8295 20.5423 16.4488 20.2948 16.1251 20.0093L17.6862 18.4482C17.9337 18.6386 18.2193 18.8099 18.5048 18.9051C18.5048 18.7528 18.5048 18.5815 18.5048 18.4292C18.3145 18.3531 18.1431 18.2388 17.9908 18.1246L18.4287 17.6868C18.2764 17.6487 18.1241 17.5916 17.9718 17.5345L17.6672 17.8391C17.5149 17.6677 17.3816 17.4774 17.2864 17.287C17.0199 17.1728 16.7534 17.0395 16.5059 16.8682C15.592 16.3161 15.0399 15.3071 15.059 14.222C15.0399 13.4986 15.2494 12.7752 15.6872 12.2041L14.1261 10.6431C15.2684 9.53891 16.7343 8.83454 18.2954 8.58705C18.2954 8.43476 18.2954 8.28246 18.2954 8.1492C16.6201 8.39668 15.0399 9.15816 13.8215 10.3385L13.555 10.0719C13.4979 10.1671 13.4217 10.3004 13.3456 10.4717L13.5169 10.6431C12.1271 12.1089 11.3466 14.0507 11.3085 16.0686H9.08108C9.11916 13.4605 10.1282 10.9667 11.9368 9.06298L12.6412 9.76735C12.6792 9.76735 12.6983 9.76735 12.7364 9.76735C12.8696 9.74831 13.0219 9.71024 13.1362 9.65313L12.2414 8.75839C12.7173 8.3015 13.2313 7.88268 13.7834 7.52098C13.8215 7.40676 13.8406 7.29253 13.8977 7.19735C13.9929 7.04505 14.1071 6.89276 14.2404 6.74046C13.4027 7.19735 12.6412 7.76846 11.9558 8.43476L10.3947 6.87372C12.4889 4.83676 15.2113 3.56127 18.1431 3.25668C18.1431 3.19957 18.1241 3.1615 18.1241 3.1615C18.105 3.04727 18.086 2.95209 18.067 2.81883C10.6612 3.58031 5.31158 10.1862 6.09213 17.5725C6.81557 24.4068 12.565 29.6039 19.4377 29.5849ZM26.0439 6.34068L25.9106 6.13128L25.625 5.97898L25.3966 6.15031L25.6821 6.30261L26.0058 6.53105L26.0439 6.34068ZM24.7112 12.5848L24.7302 12.7562L25.111 12.6419L25.2252 12.4135L24.9587 12.0708L25.092 11.8614L25.4537 12.1089L25.5108 12.0518L25.4346 11.9947L25.3585 11.8424L25.5108 11.7662L25.3585 11.5759L25.0158 11.7472L24.9016 11.9566L24.8254 12.147L24.9777 12.3945L24.9206 12.5087L24.7112 12.5848ZM8.75744 22.4841L8.77647 22.3889L8.5861 21.9511L8.35764 21.8559L8.75744 22.4841ZM17.7624 14.1839C17.7624 14.5647 17.9908 14.8122 18.3906 15.0406C18.3906 15.0406 18.3906 14.9835 18.3906 14.8693L18.1431 14.6028L18.2764 14.3553L18.3906 14.3172C18.3716 13.8794 18.3716 13.4034 18.3716 13.3273H18.3525C17.9718 13.5557 17.7814 13.8222 17.7624 14.1839Z" fill="#009CDE"/>
<path d="M20.2383 23.7585C20.9236 24.1012 21.5709 24.5961 21.8375 25.5099C21.9517 23.987 21.095 23.3397 20.2573 22.8828L20.2383 23.7585Z" fill="#009CDE"/>
<path d="M24.8437 8.31823C24.8437 6.92853 23.8347 5.40557 21.3788 4.87253C21.1313 4.83445 20.8838 4.79638 20.6363 4.77734C20.6363 4.98675 20.6173 5.46268 20.6173 5.46268C20.6173 5.61497 20.5983 6.16705 20.5983 6.28127C20.7506 6.30031 20.9219 6.31934 21.0742 6.33838C22.502 6.68105 23.0161 7.49964 23.0161 8.2992C23.0161 9.61275 21.8928 10.1077 20.5221 10.4885L20.0652 10.6027C19.6464 10.6979 19.2085 10.8121 18.7897 10.9263C18.6373 10.9644 18.485 11.0025 18.3327 11.0596C16.8097 11.5165 15.4961 12.2589 15.4961 14.1436C15.4961 16.0282 17.0001 16.7136 18.466 17.1705C18.466 16.6374 18.447 16.0853 18.4279 15.5523C17.7616 15.2477 17.3237 14.8479 17.3237 14.1816C17.3237 13.5153 17.7426 13.1346 18.3708 12.8491C18.5041 12.7919 18.6564 12.7348 18.8277 12.6777C19.1894 12.5445 19.6083 12.4493 20.0271 12.3351L20.484 12.2208C22.5401 11.7259 24.8627 11.0786 24.8437 8.31823Z" fill="#009CDE"/>
<path d="M17.4375 21.512C17.4375 22.2735 17.9896 22.6733 18.5417 22.9969C18.5417 22.8637 18.5227 21.7024 18.5227 21.6834C18.5417 21.4549 18.7511 21.3026 18.9415 21.2265C19.2271 21.0932 19.5317 20.979 19.8363 20.8838C20.0076 20.8267 20.1409 20.7696 20.2932 20.7315C21.4164 20.3889 22.711 19.97 22.711 18.5994C22.711 17.2287 21.6068 16.6766 20.3884 16.2578C20.3693 16.6957 20.3693 17.3239 20.3503 17.7617C20.8643 17.9521 21.207 18.1996 21.207 18.5994C21.207 19.0943 20.693 19.3608 20.3122 19.5131C20.1599 19.5703 19.9315 19.6464 19.8553 19.6654C19.5507 19.7606 19.2461 19.8558 18.9415 19.97C18.7892 20.0271 18.6369 20.0843 18.4846 20.1604C17.9896 20.4269 17.4375 20.8267 17.4375 21.512Z" fill="#009CDE"/>
<path d="M18.1992 4.98828C17.7423 5.14058 17.2854 5.31191 16.8475 5.54036C16.3716 5.69265 15.6862 5.73073 14.9818 6.49221C14.7533 6.75873 14.5439 7.04428 14.3345 7.32984C14.1251 7.63443 14.1061 8.12939 13.9537 8.37687C13.7253 8.75762 13.7824 8.98606 13.7824 8.98606C13.7443 9.15739 13.6491 9.32873 13.5349 9.46199C13.3065 9.7285 12.9638 9.86176 12.6211 9.80465C12.9447 9.95695 13.3826 9.74754 13.3826 9.74754C13.3065 9.95695 13.2493 10.1664 13.2113 10.3758C13.573 9.55717 13.8966 9.27162 14.0109 9.17643C14.1632 9.2145 14.4868 9.19547 15.077 8.8528C15.7433 8.47206 16.7523 7.84384 17.0379 7.44406C17.3425 7.04428 17.7423 6.72065 18.2182 6.54932C18.2182 5.97821 18.1992 5.44517 18.1992 4.98828ZM15.3816 7.52021L15.0389 7.59636L15.4577 6.91102L15.9337 6.93006L15.3816 7.52021Z" fill="#009CDE"/>
<path d="M19.5902 21.4155C19.5331 21.4345 19.3617 21.5107 19.2475 21.5488C19.1333 21.5868 19 21.6439 19 21.682C19 21.682 19.1142 27.5454 19.1142 27.6596C19.1142 28.859 19.7234 28.878 19.7234 27.6596C19.7234 27.5835 19.8567 21.3203 19.8567 21.3203C19.8567 21.3203 19.6854 21.3774 19.5902 21.4155Z" fill="#009CDE"/>
<path d="M18.9424 19.4755C19.1327 19.4184 19.3231 19.3422 19.4945 19.3041C19.6277 19.2661 19.7419 19.228 19.8752 19.1899C19.8752 18.8282 19.9894 13.7263 20.0085 12.8125C19.6087 12.9077 19.2089 13.0219 18.8281 13.1552C18.8472 13.8405 18.9424 18.9234 18.9424 19.4755Z" fill="#009CDE"/>
<path d="M19.4577 0C17.7443 0 18.4677 2.55096 18.601 3.38859C18.601 3.42667 18.7343 9.15682 18.7724 10.4704C19.0389 10.3942 19.2864 10.3371 19.5529 10.28L20.0669 10.1467C20.086 8.87126 20.2192 3.40763 20.2192 3.36956C20.3335 2.49385 21.2282 0 19.4577 0Z" fill="#009CDE"/>
</g>
<defs>
<clipPath id="clip0_701_16132">
<rect width="112" height="34.2857" fill="white"/>
</clipPath>
</defs>
</svg>
