<svg width="88" height="26" viewBox="0 0 88 26" fill="none" xmlns="http://www.w3.org/2000/svg">
<path d="M8.09091 25H0.556818V1.72727H8.32955C10.6098 1.72727 12.5682 2.19318 14.2045 3.125C15.8409 4.04924 17.0947 5.37879 17.9659 7.11364C18.8447 8.84091 19.2841 10.9129 19.2841 13.3295C19.2841 15.7538 18.8409 17.8371 17.9545 19.5795C17.0758 21.322 15.803 22.6629 14.1364 23.6023C12.4697 24.5341 10.4545 25 8.09091 25ZM4.06818 21.9318H7.89773C9.67046 21.9318 11.1439 21.5985 12.3182 20.9318C13.4924 20.2576 14.3712 19.2841 14.9545 18.0114C15.5379 16.7311 15.8295 15.1705 15.8295 13.3295C15.8295 11.5038 15.5379 9.95455 14.9545 8.68182C14.3788 7.40909 13.5189 6.44318 12.375 5.78409C11.2311 5.125 9.81061 4.79545 8.11364 4.79545H4.06818V21.9318ZM30.7301 25.3523C29.0938 25.3523 27.6657 24.9773 26.446 24.2273C25.2263 23.4773 24.2794 22.428 23.6051 21.0795C22.9309 19.7311 22.5938 18.1553 22.5938 16.3523C22.5938 14.5417 22.9309 12.9583 23.6051 11.6023C24.2794 10.2462 25.2263 9.19318 26.446 8.44318C27.6657 7.69318 29.0938 7.31818 30.7301 7.31818C32.3665 7.31818 33.7945 7.69318 35.0142 8.44318C36.2339 9.19318 37.1809 10.2462 37.8551 11.6023C38.5294 12.9583 38.8665 14.5417 38.8665 16.3523C38.8665 18.1553 38.5294 19.7311 37.8551 21.0795C37.1809 22.428 36.2339 23.4773 35.0142 24.2273C33.7945 24.9773 32.3665 25.3523 30.7301 25.3523ZM30.7415 22.5C31.8021 22.5 32.6809 22.2197 33.3778 21.6591C34.0748 21.0985 34.59 20.3523 34.9233 19.4205C35.2642 18.4886 35.4347 17.4621 35.4347 16.3409C35.4347 15.2273 35.2642 14.2045 34.9233 13.2727C34.59 12.3333 34.0748 11.5795 33.3778 11.0114C32.6809 10.4432 31.8021 10.1591 30.7415 10.1591C29.6733 10.1591 28.7869 10.4432 28.0824 11.0114C27.3854 11.5795 26.8665 12.3333 26.5256 13.2727C26.1922 14.2045 26.0256 15.2273 26.0256 16.3409C26.0256 17.4621 26.1922 18.4886 26.5256 19.4205C26.8665 20.3523 27.3854 21.0985 28.0824 21.6591C28.7869 22.2197 29.6733 22.5 30.7415 22.5ZM50.0114 25.3523C48.322 25.3523 46.8674 24.9697 45.6477 24.2045C44.4356 23.4318 43.5038 22.3674 42.8523 21.0114C42.2008 19.6553 41.875 18.1023 41.875 16.3523C41.875 14.5795 42.2083 13.0152 42.875 11.6591C43.5417 10.2955 44.4811 9.23106 45.6932 8.46591C46.9053 7.70076 48.3333 7.31818 49.9773 7.31818C51.303 7.31818 52.4848 7.56439 53.5227 8.05682C54.5606 8.54167 55.3977 9.22348 56.0341 10.1023C56.678 10.9811 57.0606 12.0076 57.1818 13.1818H53.875C53.6932 12.3636 53.2765 11.6591 52.625 11.0682C51.9811 10.4773 51.1174 10.1818 50.0341 10.1818C49.0871 10.1818 48.2576 10.4318 47.5455 10.9318C46.8409 11.4242 46.2917 12.1288 45.8977 13.0455C45.5038 13.9545 45.3068 15.0303 45.3068 16.2727C45.3068 17.5455 45.5 18.6439 45.8864 19.5682C46.2727 20.4924 46.8182 21.2083 47.5227 21.7159C48.2348 22.2235 49.072 22.4773 50.0341 22.4773C50.678 22.4773 51.2614 22.3598 51.7841 22.125C52.3144 21.8826 52.7576 21.5379 53.1136 21.0909C53.4773 20.6439 53.7311 20.1061 53.875 19.4773H57.1818C57.0606 20.6061 56.6932 21.6136 56.0795 22.5C55.4659 23.3864 54.6439 24.0833 53.6136 24.5909C52.5909 25.0985 51.3902 25.3523 50.0114 25.3523ZM69.1222 7.54545V10.2727H59.2585V7.54545H69.1222ZM61.9631 25V5.52273C61.9631 4.43182 62.2017 3.52651 62.679 2.80682C63.1563 2.07954 63.7888 1.53788 64.5767 1.18182C65.3646 0.818181 66.2206 0.636362 67.1449 0.636362C67.8267 0.636362 68.41 0.693181 68.8949 0.806818C69.3797 0.912878 69.7396 1.01136 69.9744 1.10227L69.179 3.85227C69.0199 3.80682 68.8153 3.75379 68.5653 3.69318C68.3153 3.625 68.0123 3.59091 67.6562 3.59091C66.8305 3.59091 66.2396 3.79545 65.8835 4.20454C65.535 4.61364 65.3608 5.20455 65.3608 5.97727V25H61.9631ZM79.2926 25.3523C77.6563 25.3523 76.2282 24.9773 75.0085 24.2273C73.7888 23.4773 72.8419 22.428 72.1676 21.0795C71.4934 19.7311 71.1562 18.1553 71.1562 16.3523C71.1562 14.5417 71.4934 12.9583 72.1676 11.6023C72.8419 10.2462 73.7888 9.19318 75.0085 8.44318C76.2282 7.69318 77.6563 7.31818 79.2926 7.31818C80.929 7.31818 82.357 7.69318 83.5767 8.44318C84.7964 9.19318 85.7434 10.2462 86.4176 11.6023C87.0919 12.9583 87.429 14.5417 87.429 16.3523C87.429 18.1553 87.0919 19.7311 86.4176 21.0795C85.7434 22.428 84.7964 23.4773 83.5767 24.2273C82.357 24.9773 80.929 25.3523 79.2926 25.3523ZM79.304 22.5C80.3646 22.5 81.2434 22.2197 81.9403 21.6591C82.6373 21.0985 83.1525 20.3523 83.4858 19.4205C83.8267 18.4886 83.9972 17.4621 83.9972 16.3409C83.9972 15.2273 83.8267 14.2045 83.4858 13.2727C83.1525 12.3333 82.6373 11.5795 81.9403 11.0114C81.2434 10.4432 80.3646 10.1591 79.304 10.1591C78.2358 10.1591 77.3494 10.4432 76.6449 11.0114C75.9479 11.5795 75.429 12.3333 75.0881 13.2727C74.7547 14.2045 74.5881 15.2273 74.5881 16.3409C74.5881 17.4621 74.7547 18.4886 75.0881 19.4205C75.429 20.3523 75.9479 21.0985 76.6449 21.6591C77.3494 22.2197 78.2358 22.5 79.304 22.5Z" fill="white"/>
</svg>
