<svg width="38" height="38" viewBox="0 0 38 38" fill="none" xmlns="http://www.w3.org/2000/svg">
<path d="M36.4193 6.33301V9.49967H31.6693V14.2497H28.5026V9.49967H23.7526V6.33301H28.5026V1.58301H31.6693V6.33301H36.4193ZM22.9609 17.4163C23.591 17.4161 24.1952 17.1656 24.6406 16.7199C25.086 16.2742 25.3361 15.6699 25.3359 15.0398C25.3357 14.4097 25.0852 13.8054 24.6395 13.3601C24.1938 12.9147 23.5895 12.6645 22.9594 12.6648C22.6474 12.6649 22.3384 12.7264 22.0502 12.8459C21.762 12.9654 21.5002 13.1405 21.2796 13.3612C21.0591 13.5819 20.8842 13.8438 20.7649 14.1321C20.6456 14.4204 20.5842 14.7293 20.5844 15.0413C20.5845 15.3533 20.646 15.6623 20.7655 15.9505C20.885 16.2387 21.0601 16.5005 21.2808 16.721C21.5015 16.9416 21.7634 17.1165 22.0517 17.2358C22.34 17.3551 22.6489 17.4164 22.9609 17.4163ZM28.5026 22.5368L27.6904 21.6343C27.3934 21.3037 27.0301 21.0392 26.6242 20.8582C26.2183 20.6771 25.7788 20.5836 25.3344 20.5836C24.8899 20.5836 24.4504 20.6771 24.0445 20.8582C23.6386 21.0392 23.2753 21.3037 22.9784 21.6343L21.9397 22.7918L14.2526 14.2497L9.5026 19.5269V9.49967H20.5859V6.33301H9.5026C8.66275 6.33301 7.8573 6.66664 7.26343 7.2605C6.66957 7.85437 6.33594 8.65982 6.33594 9.49967V28.4997C6.33594 29.3395 6.66957 30.145 7.26343 30.7388C7.8573 31.3327 8.66275 31.6663 9.5026 31.6663H28.5026C29.3425 31.6663 30.1479 31.3327 30.7418 30.7388C31.3356 30.145 31.6693 29.3395 31.6693 28.4997V17.4163H28.5026V22.5368Z" fill="#328ECC"/>
</svg>
