<svg width="40" height="40" viewBox="0 0 40 40" fill="none" xmlns="http://www.w3.org/2000/svg">
<rect width="40" height="40" rx="20" fill="#EAF4FA"/>
<path d="M23.55 25.325C27.325 26.0375 30 27.8625 30 30V32.5H10V30C10 27.8625 12.675 26.0375 16.45 25.325L20 31.25L23.55 25.325ZM15 15H25V17.5C25 18.8261 24.4732 20.0979 23.5355 21.0356C22.5979 21.9732 21.3261 22.5 20 22.5C18.6739 22.5 17.4021 21.9732 16.4645 21.0356C15.5268 20.0979 15 18.8261 15 17.5V15ZM15 13.75L15.5125 8.62502C15.5436 8.31561 15.6889 8.02891 15.92 7.82088C16.1512 7.61286 16.4515 7.49846 16.7625 7.50002H23.25C23.8875 7.50002 24.425 7.98752 24.4875 8.62502L25 13.75H15ZM20 8.75002H18.75V10H17.5V11.25H18.75V12.5H20V11.25H21.25V10H20V8.75002Z" fill="#328ECC" fill-opacity="0.4"/>
</svg>
