<svg width="201" height="48" viewBox="0 0 201 48" fill="none" xmlns="http://www.w3.org/2000/svg">
<rect width="201" height="48" rx="12" fill="#232323"/>
<path d="M83.185 24.919C83.1587 22.2808 85.3363 21.0154 85.4337 20.9515C84.2099 19.1621 82.3032 18.9165 81.6246 18.8886C80.0032 18.7239 78.4593 19.8436 77.6368 19.8436C76.8159 19.8436 75.5451 18.9127 74.2006 18.9364C72.4319 18.9627 70.8016 19.9651 69.8915 21.5484C68.0546 24.7348 69.4216 29.4571 71.2114 32.0432C72.0865 33.3073 73.13 34.7297 74.499 34.6776C75.8186 34.6256 76.3164 33.8242 77.9115 33.8242C79.5066 33.8242 79.9545 34.6776 81.3502 34.651C82.7693 34.6251 83.6688 33.3628 84.5367 32.0936C85.5412 30.6251 85.9548 29.2031 85.9794 29.1311C85.9485 29.1167 83.2133 28.069 83.185 24.919Z" fill="white"/>
<path d="M80.5626 17.1768C81.2886 16.2955 81.7805 15.0708 81.6468 13.8516C80.599 13.8939 79.3307 14.5479 78.5785 15.4285C77.9045 16.2099 77.3152 17.4541 77.4731 18.6513C78.642 18.7419 79.8341 18.0565 80.5626 17.1768Z" fill="white"/>
<path d="M101.098 31V16.4545H106.283C107.414 16.4545 108.352 16.6605 109.095 17.0724C109.839 17.4844 110.395 18.0478 110.764 18.7628C111.134 19.473 111.318 20.2732 111.318 21.1634C111.318 22.0582 111.131 22.8632 110.757 23.5781C110.388 24.2884 109.829 24.8518 109.081 25.2685C108.338 25.6804 107.402 25.8864 106.276 25.8864H102.71V24.0256H106.077C106.792 24.0256 107.372 23.9025 107.817 23.6562C108.262 23.4053 108.589 23.0644 108.797 22.6335C109.005 22.2027 109.109 21.7126 109.109 21.1634C109.109 20.6141 109.005 20.1264 108.797 19.7003C108.589 19.2741 108.259 18.9403 107.81 18.6989C107.365 18.4574 106.777 18.3366 106.048 18.3366H103.293V31H101.098ZM116.798 31.2415C116.106 31.2415 115.481 31.1136 114.923 30.858C114.364 30.5975 113.921 30.2211 113.594 29.7287C113.272 29.2363 113.112 28.6326 113.112 27.9176C113.112 27.3021 113.23 26.7955 113.467 26.3977C113.703 26 114.023 25.6851 114.425 25.4531C114.828 25.2211 115.278 25.0459 115.775 24.9276C116.272 24.8092 116.779 24.7192 117.295 24.6577C117.948 24.5819 118.478 24.5204 118.886 24.473C119.293 24.4209 119.589 24.3381 119.773 24.2244C119.958 24.1108 120.05 23.9261 120.05 23.6705V23.6207C120.05 23.0005 119.875 22.5199 119.525 22.179C119.179 21.8381 118.663 21.6676 117.977 21.6676C117.262 21.6676 116.698 21.8262 116.286 22.1435C115.879 22.456 115.597 22.804 115.441 23.1875L113.445 22.733C113.682 22.0701 114.028 21.535 114.482 21.1278C114.942 20.7159 115.469 20.4176 116.066 20.233C116.663 20.0436 117.29 19.9489 117.948 19.9489C118.384 19.9489 118.845 20.0009 119.333 20.1051C119.826 20.2045 120.285 20.3892 120.711 20.6591C121.142 20.929 121.495 21.3149 121.769 21.8168C122.044 22.3139 122.181 22.9602 122.181 23.7557V31H120.107V29.5085H120.022C119.885 29.7831 119.679 30.053 119.404 30.3182C119.129 30.5833 118.777 30.8035 118.346 30.9787C117.915 31.1539 117.399 31.2415 116.798 31.2415ZM117.259 29.5369C117.846 29.5369 118.348 29.4209 118.765 29.1889C119.186 28.9569 119.506 28.6539 119.724 28.2798C119.946 27.901 120.058 27.4962 120.058 27.0653V25.6591C119.982 25.7348 119.835 25.8059 119.617 25.8722C119.404 25.9337 119.16 25.9882 118.886 26.0355C118.611 26.0781 118.344 26.1184 118.083 26.1562C117.823 26.1894 117.605 26.2178 117.43 26.2415C117.018 26.2936 116.641 26.3812 116.3 26.5043C115.964 26.6274 115.694 26.8049 115.491 27.0369C115.292 27.2642 115.192 27.5672 115.192 27.946C115.192 28.4716 115.387 28.8693 115.775 29.1392C116.163 29.4044 116.658 29.5369 117.259 29.5369ZM125.961 35.0909C125.644 35.0909 125.355 35.0649 125.095 35.0128C124.834 34.9654 124.64 34.9134 124.512 34.8565L125.024 33.1165C125.412 33.2206 125.758 33.2656 126.061 33.2514C126.364 33.2372 126.631 33.1236 126.863 32.9105C127.1 32.6974 127.308 32.3494 127.488 31.8665L127.751 31.142L123.76 20.0909H126.032L128.795 28.5568H128.909L131.672 20.0909H133.951L129.456 32.456C129.247 33.0241 128.982 33.5047 128.66 33.8977C128.338 34.2955 127.955 34.5938 127.51 34.7926C127.065 34.9915 126.548 35.0909 125.961 35.0909Z" fill="white"/>
</svg>
