<svg width="28" height="28" viewBox="0 0 28 28" fill="none" xmlns="http://www.w3.org/2000/svg">
<rect width="28" height="28" rx="14" fill="#328ECC" fill-opacity="0.1"/>
<path d="M13.9993 13.2212C15.8607 13.2212 17.3696 11.7122 17.3696 9.85084C17.3696 7.98944 15.8607 6.48047 13.9993 6.48047C12.1379 6.48047 10.6289 7.98944 10.6289 9.85084C10.6289 11.7122 12.1379 13.2212 13.9993 13.2212Z" fill="#328ECC" fill-opacity="0.4"/>
<path d="M20.7412 19.122V19.9646C20.7412 20.188 20.6525 20.4023 20.4945 20.5604C20.3364 20.7184 20.1221 20.8071 19.8987 20.8071H8.10236C7.87889 20.8071 7.66457 20.7184 7.50656 20.5604C7.34854 20.4023 7.25977 20.188 7.25977 19.9646V19.122C7.25977 17.7811 7.7924 16.4952 8.7405 15.5471C9.6886 14.599 10.9745 14.0664 12.3153 14.0664H15.6857C17.0265 14.0664 18.3124 14.599 19.2605 15.5471C20.2086 16.4952 20.7412 17.7811 20.7412 19.122Z" fill="#328ECC" fill-opacity="0.4"/>
</svg>
