<svg width="184" height="184" viewBox="0 0 184 184" fill="none" xmlns="http://www.w3.org/2000/svg">
<rect width="184" height="184" rx="92" fill="#328ECC" fill-opacity="0.1"/>
<path d="M102.175 107.266C112.997 109.309 120.665 114.541 120.665 120.668V127.835H63.332V120.668C63.332 114.541 71.0004 109.309 81.822 107.266L91.9987 124.251L102.175 107.266ZM77.6654 77.668H106.332V84.8347C106.332 88.6361 104.822 92.2819 102.134 94.9699C99.4459 97.6579 95.8001 99.168 91.9987 99.168C88.1973 99.168 84.5515 97.6579 81.8635 94.9699C79.1755 92.2819 77.6654 88.6361 77.6654 84.8347V77.668ZM77.6654 74.0847L79.1345 59.393C79.2237 58.5061 79.6402 57.6842 80.3028 57.0878C80.9654 56.4915 81.8264 56.1635 82.7179 56.168H101.315C103.143 56.168 104.684 57.5655 104.863 59.393L106.332 74.0847H77.6654ZM91.9987 59.7513H88.4154V63.3347H84.832V66.918H88.4154V70.5013H91.9987V66.918H95.582V63.3347H91.9987V59.7513Z" fill="#328ECC" fill-opacity="0.4"/>
</svg>
