<svg width="242" height="184" viewBox="0 0 242 184" fill="none" xmlns="http://www.w3.org/2000/svg">
<rect width="242" height="184" fill="#328ECC" fill-opacity="0.1"/>
<g clip-path="url(#clip0_2005_8925)">
<path d="M159.222 68.3333H140.111V58.7778C140.111 56.1351 137.976 54 135.333 54H106.667C104.024 54 101.889 56.1351 101.889 58.7778V68.3333H82.7778C80.1351 68.3333 78 70.4684 78 73.1111V128.056C78 129.369 79.075 130.444 80.3889 130.444H161.611C162.925 130.444 164 129.369 164 128.056V73.1111C164 70.4684 161.865 68.3333 159.222 68.3333ZM101.889 119.097C101.889 120.083 101.083 120.889 100.097 120.889H94.125C93.1396 120.889 92.3333 120.083 92.3333 119.097V113.125C92.3333 112.14 93.1396 111.333 94.125 111.333H100.097C101.083 111.333 101.889 112.14 101.889 113.125V119.097ZM101.889 99.9861C101.889 100.972 101.083 101.778 100.097 101.778H94.125C93.1396 101.778 92.3333 100.972 92.3333 99.9861V94.0139C92.3333 93.0285 93.1396 92.2222 94.125 92.2222H100.097C101.083 92.2222 101.889 93.0285 101.889 94.0139V99.9861ZM125.778 119.097C125.778 120.083 124.972 120.889 123.986 120.889H118.014C117.028 120.889 116.222 120.083 116.222 119.097V113.125C116.222 112.14 117.028 111.333 118.014 111.333H123.986C124.972 111.333 125.778 112.14 125.778 113.125V119.097ZM125.778 99.9861C125.778 100.972 124.972 101.778 123.986 101.778H118.014C117.028 101.778 116.222 100.972 116.222 99.9861V94.0139C116.222 93.0285 117.028 92.2222 118.014 92.2222H123.986C124.972 92.2222 125.778 93.0285 125.778 94.0139V99.9861ZM128.167 74.6042C128.167 75.0969 127.764 75.5 127.271 75.5H123.389V79.3819C123.389 79.8747 122.986 80.2778 122.493 80.2778H119.507C119.014 80.2778 118.611 79.8747 118.611 79.3819V75.5H114.729C114.236 75.5 113.833 75.0969 113.833 74.6042V71.6181C113.833 71.1253 114.236 70.7222 114.729 70.7222H118.611V66.8403C118.611 66.3476 119.014 65.9444 119.507 65.9444H122.493C122.986 65.9444 123.389 66.3476 123.389 66.8403V70.7222H127.271C127.764 70.7222 128.167 71.1253 128.167 71.6181V74.6042ZM149.667 119.097C149.667 120.083 148.86 120.889 147.875 120.889H141.903C140.917 120.889 140.111 120.083 140.111 119.097V113.125C140.111 112.14 140.917 111.333 141.903 111.333H147.875C148.86 111.333 149.667 112.14 149.667 113.125V119.097ZM149.667 99.9861C149.667 100.972 148.86 101.778 147.875 101.778H141.903C140.917 101.778 140.111 100.972 140.111 99.9861V94.0139C140.111 93.0285 140.917 92.2222 141.903 92.2222H147.875C148.86 92.2222 149.667 93.0285 149.667 94.0139V99.9861Z" fill="#328ECC" fill-opacity="0.4"/>
</g>
<defs>
<clipPath id="clip0_2005_8925">
<rect width="86" height="76.4444" fill="white" transform="translate(78 54)"/>
</clipPath>
</defs>
</svg>
